<svg width="103" height="97" viewBox="0 0 103 97" fill="none" xmlns="http://www.w3.org/2000/svg">
<g clip-path="url(#clip0_112_42)">
<path d="M18.896 21.0065C18.7784 21.0065 18.6619 21.0402 18.5531 21.1057C18.4444 21.1711 18.3457 21.2671 18.2624 21.3881C18.1792 21.509 18.1132 21.6526 18.0682 21.8107C18.0232 21.9687 18 22.1381 18 22.3092V37.7785C18 38.495 18.4032 39.0812 18.896 39.0812H31.2346C32.8839 39.0812 34.4656 38.1287 35.6318 36.4333C36.798 34.7378 37.4532 32.4383 37.4532 30.0406C37.4532 27.6429 36.798 25.3434 35.6318 23.6479C34.4656 21.9525 32.8839 21 31.2346 21H18.896V21.0065ZM18.896 50.6751C18.7784 50.6751 18.6619 50.7088 18.5531 50.7743C18.4444 50.8397 18.3457 50.9357 18.2624 51.0566C18.1792 51.1776 18.1132 51.3212 18.0682 51.4793C18.0232 51.6373 18 51.8067 18 51.9778V70.6973C18 71.4138 18.4032 72 18.896 72H32.0321C33.9772 72 35.8427 70.8766 37.2181 68.877C38.5935 66.8774 39.3662 64.1654 39.3662 61.3375C39.3662 58.5097 38.5935 55.7977 37.2181 53.7981C35.8427 51.7985 33.9772 50.6751 32.0321 50.6751H18.896ZM69.8586 51.6C69.7541 51.6 69.6538 51.5396 69.5799 51.4321C69.5059 51.3246 69.4644 51.1788 69.4644 51.0268C69.4644 44.6828 72.9993 39.5437 77.3586 39.5437H79.1058C83.4651 39.5437 87 44.6893 87 51.0268C87 51.3395 86.8208 51.6 86.6057 51.6H69.8586Z" fill="#E07A5F"/>
<path fill-rule="evenodd" clip-rule="evenodd" d="M53.3285 44.5017C53.0462 43.9928 52.7515 43.4984 52.4448 43.0195C54.3579 38.6931 55.3299 33.6447 55.2372 28.5329C55.3172 24.1302 54.7025 19.7584 53.4389 15.744C52.2066 11.7534 50.2374 8.32128 47.7438 5.81814L47.6952 5.76746C45.3432 3.4533 42.6767 1.87756 39.8704 1.14343C37.175 0.342572 34.4271 -0.0396899 31.6746 0.00325367H6.6274C4.8697 0.00325367 3.184 1.0043 1.94112 2.78616C0.698242 4.56803 0 6.98476 0 9.5047V85.2439C0 87.7638 0.698242 90.1806 1.94112 91.9624C3.184 93.7443 4.8697 94.7453 6.6274 94.7453H32.2533C35.1606 94.7453 38.0501 94.2196 40.8601 93.1744C43.7475 92.1042 46.4833 90.3232 48.9456 87.9106L48.9765 87.8789C51.4332 85.4402 53.4725 82.235 54.9411 78.5042C55.9122 81.1753 57.1114 83.6627 58.5111 85.909C60.8881 89.5829 63.813 92.4333 67.0649 94.2829L67.1444 94.3273C70.4836 96.1444 74.031 97.0468 77.6024 96.9877C82.7409 97.1747 87.808 95.2327 92.196 91.3945C97.0106 86.7058 100.489 79.6914 101.996 71.6315C102.281 70.0958 102.293 68.482 102.031 66.9378C102.526 65.7152 102.84 64.3217 102.915 62.8268C103.165 57.8079 102.865 52.7639 102.027 47.8779L102.018 47.8399C101.162 42.9393 99.6658 38.3159 97.6083 34.2148L97.5421 34.0754C95.3331 29.8338 92.4748 26.3752 89.1871 23.9659C85.656 21.4794 81.7659 20.2207 77.8322 20.292C74.2376 20.2687 70.6755 21.2677 67.3521 23.2311L67.3079 23.2565C64.183 25.1408 61.3505 27.8968 58.975 31.3644L58.922 31.434C56.5375 34.9938 54.6905 39.2202 53.4964 43.8493L53.492 43.8619C53.4362 44.0745 53.3817 44.2877 53.3285 44.5017ZM41.2136 44.0583C44.1903 45.0893 46.8035 47.638 48.5656 51.2287C50.2035 54.795 51.0393 58.9955 50.9603 63.2639C51.0334 66.7136 50.4985 70.134 49.4051 73.2087C48.4198 75.9515 46.975 78.3078 45.2077 80.0688C43.3764 81.8612 41.3417 83.1836 39.1944 83.977C36.929 84.8186 34.5981 85.2443 32.2578 85.2439H6.6274V9.5047H31.7143C34.0294 9.46387 36.3407 9.78674 38.6068 10.4675C40.5199 10.9553 42.3402 12.0257 43.9441 13.603C45.4551 15.1232 46.6481 17.2009 47.3903 19.6206C48.274 22.414 48.6893 25.4671 48.6053 28.5329C48.6995 31.8952 48.0685 35.2174 46.7983 38.047C45.4198 40.7074 43.352 42.7788 41.2136 44.0583ZM68.492 63.5046C68.4774 63.053 68.4774 62.6006 68.492 62.149H96.305C96.5091 58.1188 96.2676 54.0676 95.5892 50.1455C94.9382 46.4095 93.7987 42.8845 92.2313 39.7573C90.6494 36.7225 88.6087 34.2408 86.2622 32.4982C83.6497 30.6565 80.7697 29.7296 77.8587 29.7934C75.1225 29.7641 72.4098 30.5178 69.8793 32.0105C67.5597 33.4103 65.461 35.45 63.7026 38.0154C61.9477 40.6319 60.588 43.7392 59.7084 47.1431C58.7677 50.8135 58.2992 54.698 58.3255 58.6082C58.2814 62.5734 58.7364 66.5197 59.6687 70.2569C60.464 73.6395 61.7188 76.7623 63.3668 79.4417C65.0722 82.0704 67.1665 84.1227 69.4993 85.4402C72.1013 86.8583 74.8678 87.5526 77.651 87.4862C81.5542 87.6592 85.408 86.1977 88.7409 83.2802C92.1019 79.8679 94.5246 74.8776 95.5892 69.1738H86.302C85.8054 71.0608 84.8914 72.6627 83.6996 73.7345C82.083 75.2657 80.1754 76.0423 78.2387 75.9578C76.9564 76.1483 75.6604 75.9587 74.4314 75.4008C73.2023 74.8429 72.0665 73.9286 71.0943 72.7146C69.5159 70.1627 68.5958 66.9118 68.4875 63.5046H68.492Z" fill="#E07A5F"/>
<path d="M88.9521 9.32941C88.9476 8.70946 88.7625 8.11701 88.4373 7.68082C88.1121 7.24463 87.6729 6.99997 87.2152 7H69.737C69.2763 7 68.8345 7.2479 68.5087 7.68916C68.183 8.13042 68 8.7289 68 9.35294V15.6471C68 15.9561 68.0449 16.262 68.1322 16.5475C68.2195 16.833 68.3475 17.0924 68.5087 17.3108C68.67 17.5293 68.8615 17.7026 69.0723 17.8209C69.283 17.9391 69.5089 18 69.737 18H87.2629C87.4925 18 87.7198 17.9384 87.9317 17.8187C88.1436 17.699 88.3358 17.5235 88.4973 17.3025C88.6589 17.0816 88.7864 16.8194 88.8727 16.5312C88.959 16.243 89.0022 15.9345 88.9999 15.6235L88.9521 9.32941Z" fill="#E07A5F"/>
</g>
<defs>
<clipPath id="clip0_112_42">
<rect width="103" height="97" fill="white"/>
</clipPath>
</defs>
</svg>
