<svg width="151" height="107" viewBox="0 0 151 107" fill="none" xmlns="http://www.w3.org/2000/svg">
<path d="M29.961 30.7871C29.7957 30.7871 29.6321 30.8196 29.4794 30.8828C29.3268 30.9461 29.188 31.0388 29.0712 31.1556C28.9543 31.2725 28.8617 31.4112 28.7984 31.5638C28.7352 31.7165 28.7026 31.8801 28.7026 32.0454V46.9881C28.7026 47.6802 29.2689 48.2464 29.961 48.2464H47.2882C49.6043 48.2464 51.8255 47.3264 53.4633 45.6886C55.101 44.0509 56.0211 41.8297 56.0211 39.5136C56.0211 37.1975 55.101 34.9763 53.4633 33.3386C51.8255 31.7008 49.6043 30.7808 47.2882 30.7808H29.961V30.7871ZM29.961 59.4456C29.7957 59.4456 29.6321 59.4781 29.4794 59.5414C29.3268 59.6046 29.188 59.6973 29.0712 59.8141C28.9543 59.931 28.8617 60.0697 28.7984 60.2224C28.7352 60.3751 28.7026 60.5387 28.7026 60.7039V78.7862C28.7026 79.4783 29.2689 80.0445 29.961 80.0445H48.4081C51.1397 80.0445 53.7594 78.9594 55.691 77.0279C57.6225 75.0963 58.7076 72.4766 58.7076 69.7451C58.7076 67.0135 57.6225 64.3938 55.691 62.4622C53.7594 60.5307 51.1397 59.4456 48.4081 59.4456H29.961ZM101.529 60.339C101.382 60.339 101.241 60.2807 101.137 60.1768C101.033 60.073 100.975 59.9322 100.975 59.7853C100.975 53.6573 105.939 48.6931 112.061 48.6931H114.515C120.636 48.6931 125.601 53.6636 125.601 59.7853C125.601 60.0873 125.349 60.339 125.047 60.339H101.529Z" fill="#E07A5F"/>
<path fill-rule="evenodd" clip-rule="evenodd" d="M79.0862 53.456C78.6842 52.9505 78.2645 52.4595 77.8278 51.9837C80.5521 47.6865 81.9363 42.6721 81.8042 37.5947C81.9182 33.2216 81.0428 28.8792 79.2435 24.8918C77.4886 20.9281 74.6844 17.5191 71.1335 15.0328L71.0643 14.9824C67.715 12.6838 63.9179 11.1187 59.9218 10.3895C56.0834 9.59405 52.1704 9.21436 48.2507 9.25702H12.5833C10.0803 9.25702 7.67981 10.2513 5.90993 12.0212C4.14006 13.7911 3.14575 16.1915 3.14575 18.6945V93.924C3.14575 96.4269 4.14006 98.8274 5.90993 100.597C7.67981 102.367 10.0803 103.361 12.5833 103.361H49.0749C53.2148 103.361 57.3296 102.839 61.3311 101.801C65.4428 100.738 69.3386 98.9691 72.8448 96.5728L72.8889 96.5413C76.3873 94.119 79.2912 90.9354 81.3826 87.2296C82.7654 89.8828 84.4731 92.3534 86.4663 94.5846C89.8512 98.2338 94.0163 101.065 98.647 102.902L98.7602 102.946C103.515 104.751 108.567 105.647 113.653 105.589C120.97 105.775 128.185 103.846 134.434 100.033C141.29 95.376 146.243 88.4088 148.389 80.4032C148.795 78.8778 148.813 77.2748 148.439 75.7411C149.144 74.5268 149.591 73.1426 149.698 71.6578C150.053 66.6727 149.627 61.6626 148.433 56.8094L148.42 56.7717C147.202 51.9041 145.071 47.3119 142.141 43.2383L142.047 43.0999C138.901 38.8868 134.831 35.4515 130.149 33.0584C125.121 30.5886 119.581 29.3384 113.98 29.4092C108.861 29.3861 103.789 30.3784 99.0559 32.3286L98.993 32.3537C94.5431 34.2254 90.5096 36.9629 87.1269 40.4071L87.0514 40.4763C83.6558 44.0121 81.0257 48.21 79.3253 52.8079L79.319 52.8205C79.2395 53.0316 79.1619 53.2435 79.0862 53.456ZM61.8344 53.0156C66.0732 54.0396 69.7946 56.5712 72.3038 60.1377C74.6361 63.68 75.8263 67.8522 75.7138 72.0919C75.8179 75.5184 75.0562 78.9158 73.4992 81.9698C72.0961 84.6941 70.0388 87.0346 67.5221 88.7837C64.9142 90.564 62.0168 91.8776 58.9591 92.6656C55.733 93.5016 52.4138 93.9244 49.0812 93.924H12.5833V18.6945H48.3073C51.6041 18.654 54.8954 18.9747 58.1223 19.6508C60.8466 20.1353 63.4388 21.1986 65.7227 22.7652C67.8744 24.2752 69.5732 26.3389 70.6302 28.7423C71.8885 31.5169 72.4799 34.5495 72.3604 37.5947C72.4944 40.9343 71.5959 44.2341 69.7871 47.0448C67.8241 49.6873 64.8796 51.7446 61.8344 53.0156ZM100.679 72.331C100.658 71.8824 100.658 71.4331 100.679 70.9846H140.285C140.576 66.9814 140.232 62.9575 139.266 59.0618C138.339 55.351 136.716 51.8497 134.484 48.7435C132.232 45.7292 129.326 43.2641 125.984 41.5333C122.264 39.704 118.163 38.7833 114.018 38.8467C110.121 38.8176 106.258 39.5662 102.655 41.0488C99.3516 42.4393 96.3631 44.4652 93.859 47.0133C91.36 49.6123 89.4238 52.6986 88.1713 56.0796C86.8318 59.7253 86.1645 63.5837 86.202 67.4675C86.1391 71.4061 86.7872 75.3258 88.1147 79.0379C89.2472 82.3976 91.034 85.4994 93.3808 88.1608C95.8094 90.7719 98.7917 92.8103 102.114 94.119C105.819 95.5275 109.758 96.2172 113.722 96.1512C119.28 96.3231 124.768 94.8713 129.514 91.9736C134.3 88.5841 137.75 83.6274 139.266 77.962H126.041C125.334 79.8364 124.032 81.4275 122.335 82.492C120.033 84.0129 117.317 84.7843 114.559 84.7004C112.733 84.8896 110.887 84.7013 109.137 84.1471C107.387 83.593 105.769 82.6848 104.385 81.4791C102.137 78.9443 100.827 75.7152 100.673 72.331H100.679Z" fill="#E07A5F"/>
<path d="M128.646 18.2415C128.639 17.5784 128.371 16.9447 127.9 16.4782C127.428 16.0117 126.792 15.75 126.129 15.75H100.805C100.138 15.75 99.4974 16.0151 99.0254 16.4871C98.5535 16.9591 98.2883 17.5992 98.2883 18.2667V24.9987C98.2883 25.3292 98.3534 25.6565 98.4799 25.9618C98.6064 26.2672 98.7918 26.5446 99.0254 26.7783C99.2591 27.012 99.5366 27.1974 99.8419 27.3238C100.147 27.4503 100.475 27.5154 100.805 27.5154H126.198C126.531 27.5154 126.86 27.4495 127.167 27.3215C127.474 27.1934 127.753 27.0058 127.987 26.7694C128.221 26.5331 128.406 26.2526 128.531 25.9444C128.656 25.6362 128.718 25.3062 128.715 24.9736L128.646 18.2415Z" fill="#E07A5F"/>
</svg>
