<svg width="600" height="600" viewBox="0 0 600 600" fill="none" xmlns="http://www.w3.org/2000/svg">
<g clip-path="url(#clip0_112_46)">
<path d="M0 0H510C559.706 0 600 40.2944 600 90V600H90C40.2944 600 0 559.706 0 510V0Z" fill="#3D405B"/>
<path d="M517.5 306.5C205.5 350.9 109.167 535 100 621.5L650.5 729.5L769 423.5L630 -20C584.333 -17.1667 502.8 -9.8 542 -3C591 5.5 605.5 153.5 533.5 211.5C461.5 269.5 907.5 251 517.5 306.5Z" fill="#E07A5F"/>
<path d="M755 470C632.6 428.8 368.333 604.5 251.5 697.5L440 741L786 710C826.667 647.167 877.4 511.2 755 470Z" fill="#3D405B"/>
<path d="M111.523 245.041C54.725 210.111 95.857 4.04045 123.523 -94.6282L-61.9711 -102C-63.6377 1.96123 -68.4709 237.329 -74.4707 347.113C-81.9704 484.341 -8.4729 500.219 63.5247 523.469C135.522 546.718 74.0243 359.588 299.017 366.96C479.011 372.857 302.017 558.059 191.02 649.923C290.517 667.691 507.11 694.721 577.508 660.697C665.505 618.168 476.011 307.418 342.015 144.672C208.02 -18.0749 182.521 288.705 111.523 245.041Z" fill="#81B29A"/>
<path d="M55 217H456C505.706 217 546 257.294 546 307V383H145C95.2944 383 55 342.706 55 293V217Z" fill="#F2CC8F"/>
<path d="M174.032 336.152C168.144 336.152 163.472 335.096 160.016 332.984C156.624 330.808 154.224 327.8 152.816 323.96C151.408 320.056 150.704 315.48 150.704 310.232V282.2C150.704 276.824 151.408 272.216 152.816 268.376C154.224 264.472 156.624 261.464 160.016 259.352C163.472 257.24 168.144 256.184 174.032 256.184C179.792 256.184 184.272 257.144 187.472 259.064C190.736 260.92 193.04 263.544 194.384 266.936C195.728 270.328 196.4 274.232 196.4 278.648V285.368H179.6V277.592C179.6 276.056 179.504 274.584 179.312 273.176C179.184 271.768 178.736 270.616 177.968 269.72C177.2 268.76 175.888 268.28 174.032 268.28C172.24 268.28 170.896 268.76 170 269.72C169.168 270.68 168.624 271.896 168.368 273.368C168.176 274.776 168.08 276.28 168.08 277.88V314.456C168.08 316.184 168.208 317.784 168.464 319.256C168.784 320.664 169.36 321.816 170.192 322.712C171.088 323.544 172.368 323.96 174.032 323.96C175.824 323.96 177.104 323.512 177.872 322.616C178.64 321.656 179.12 320.44 179.312 318.968C179.504 317.496 179.6 315.992 179.6 314.456V306.296H196.4V313.016C196.4 317.432 195.728 321.4 194.384 324.92C193.104 328.376 190.832 331.128 187.568 333.176C184.368 335.16 179.856 336.152 174.032 336.152ZM223.23 335.96C219.262 335.96 215.806 335.288 212.862 333.944C209.982 332.6 207.742 330.584 206.142 327.896C204.606 325.208 203.838 321.848 203.838 317.816V296.696C203.838 292.664 204.606 289.304 206.142 286.616C207.742 283.928 209.982 281.912 212.862 280.568C215.806 279.224 219.262 278.552 223.23 278.552C227.198 278.552 230.622 279.224 233.502 280.568C236.446 281.912 238.718 283.928 240.318 286.616C241.918 289.304 242.718 292.664 242.718 296.696V317.816C242.718 321.848 241.918 325.208 240.318 327.896C238.718 330.584 236.446 332.6 233.502 333.944C230.622 335.288 227.198 335.96 223.23 335.96ZM223.326 325.592C224.35 325.592 225.15 325.336 225.726 324.824C226.302 324.248 226.686 323.48 226.878 322.52C227.134 321.496 227.262 320.28 227.262 318.872V295.64C227.262 294.232 227.134 293.048 226.878 292.088C226.686 291.064 226.302 290.296 225.726 289.784C225.15 289.208 224.35 288.92 223.326 288.92C222.302 288.92 221.502 289.208 220.926 289.784C220.35 290.296 219.934 291.064 219.678 292.088C219.422 293.048 219.294 294.232 219.294 295.64V318.872C219.294 320.28 219.422 321.496 219.678 322.52C219.934 323.48 220.35 324.248 220.926 324.824C221.502 325.336 222.302 325.592 223.326 325.592ZM251.396 335V279.512H267.044V285.08C269.092 283.032 271.204 281.432 273.38 280.28C275.62 279.128 277.956 278.552 280.388 278.552C282.692 278.552 284.58 279.128 286.052 280.28C287.588 281.368 288.74 282.904 289.508 284.888C290.276 286.808 290.66 289.016 290.66 291.512V335H275.108V293.72C275.108 292.376 274.884 291.352 274.436 290.648C273.988 289.944 273.156 289.592 271.94 289.592C271.3 289.592 270.532 289.784 269.636 290.168C268.804 290.488 267.94 290.968 267.044 291.608V335H251.396ZM317.236 335.576C313.076 335.576 309.844 334.968 307.54 333.752C305.3 332.536 303.764 330.776 302.932 328.472C302.1 326.104 301.684 323.256 301.684 319.928V289.784H296.308V279.512H301.684V262.616H317.524V279.512H325.396V289.784H317.524V318.392C317.524 319.992 317.972 321.144 318.868 321.848C319.828 322.552 321.012 322.904 322.42 322.904C323.252 322.904 324.02 322.872 324.724 322.808C325.428 322.68 326.068 322.584 326.644 322.52V334.808C325.812 334.936 324.5 335.096 322.708 335.288C320.916 335.48 319.092 335.576 317.236 335.576ZM345.414 335.96C342.598 335.96 340.23 335.288 338.31 333.944C336.39 332.6 334.95 330.904 333.99 328.856C333.03 326.744 332.55 324.6 332.55 322.424C332.55 318.968 333.222 316.056 334.566 313.688C335.974 311.32 337.798 309.336 340.038 307.736C342.278 306.136 344.742 304.792 347.43 303.704C350.118 302.552 352.774 301.528 355.398 300.632V295.064C355.398 294.104 355.302 293.272 355.11 292.568C354.918 291.8 354.598 291.224 354.15 290.84C353.702 290.392 353.03 290.168 352.134 290.168C351.238 290.168 350.534 290.36 350.022 290.744C349.574 291.128 349.254 291.672 349.062 292.376C348.87 293.016 348.742 293.752 348.678 294.584L348.294 298.616L333.702 298.04C334.022 291.384 335.782 286.488 338.982 283.352C342.246 280.152 347.11 278.552 353.574 278.552C359.206 278.552 363.398 280.12 366.15 283.256C368.966 286.328 370.374 290.328 370.374 295.256V321.176C370.374 323.48 370.406 325.496 370.47 327.224C370.598 328.952 370.726 330.456 370.854 331.736C371.046 333.016 371.206 334.104 371.334 335H357.318C357.126 333.528 356.902 331.928 356.646 330.2C356.39 328.472 356.198 327.448 356.07 327.128C355.43 329.432 354.214 331.48 352.422 333.272C350.694 335.064 348.358 335.96 345.414 335.96ZM350.982 325.4C351.622 325.4 352.198 325.272 352.71 325.016C353.286 324.76 353.798 324.408 354.246 323.96C354.694 323.512 355.078 323.064 355.398 322.616V307.448C354.118 308.216 352.934 309.016 351.846 309.848C350.758 310.616 349.83 311.48 349.062 312.44C348.294 313.4 347.686 314.456 347.238 315.608C346.854 316.696 346.662 317.944 346.662 319.352C346.662 321.208 347.046 322.68 347.814 323.768C348.582 324.856 349.638 325.4 350.982 325.4ZM397.694 335.96C393.662 335.96 390.206 335.224 387.326 333.752C384.51 332.28 382.334 330.168 380.798 327.416C379.262 324.664 378.494 321.336 378.494 317.432V297.08C378.494 293.112 379.262 289.752 380.798 287C382.334 284.248 384.51 282.168 387.326 280.76C390.206 279.288 393.662 278.552 397.694 278.552C401.662 278.552 405.022 279.16 407.774 280.376C410.59 281.592 412.734 283.448 414.206 285.944C415.678 288.376 416.414 291.48 416.414 295.256V301.112H401.342V294.776C401.342 293.304 401.182 292.184 400.862 291.416C400.606 290.584 400.19 290.008 399.614 289.688C399.102 289.368 398.462 289.208 397.694 289.208C396.926 289.208 396.286 289.432 395.774 289.88C395.262 290.264 394.878 290.936 394.622 291.896C394.366 292.792 394.238 294.072 394.238 295.736V318.776C394.238 321.272 394.526 322.968 395.102 323.864C395.742 324.76 396.638 325.208 397.79 325.208C398.622 325.208 399.294 325.048 399.806 324.728C400.318 324.344 400.702 323.768 400.958 323C401.214 322.168 401.342 321.08 401.342 319.736V312.344H416.414V319.064C416.414 322.776 415.646 325.912 414.11 328.472C412.638 330.968 410.494 332.856 407.678 334.136C404.926 335.352 401.598 335.96 397.694 335.96ZM441.736 335.576C437.576 335.576 434.344 334.968 432.04 333.752C429.8 332.536 428.264 330.776 427.432 328.472C426.6 326.104 426.184 323.256 426.184 319.928V289.784H420.808V279.512H426.184V262.616H442.024V279.512H449.896V289.784H442.024V318.392C442.024 319.992 442.472 321.144 443.368 321.848C444.328 322.552 445.512 322.904 446.92 322.904C447.752 322.904 448.52 322.872 449.224 322.808C449.928 322.68 450.568 322.584 451.144 322.52V334.808C450.312 334.936 449 335.096 447.208 335.288C445.416 335.48 443.592 335.576 441.736 335.576Z" fill="#3D405B"/>
</g>
<defs>
<clipPath id="clip0_112_46">
<path d="M0 0H510C559.706 0 600 40.2944 600 90V600H90C40.2944 600 0 559.706 0 510V0Z" fill="white"/>
</clipPath>
</defs>
</svg>
