<svg width="1227" height="21" viewBox="0 0 1227 21" fill="none" xmlns="http://www.w3.org/2000/svg">
<path d="M1.06647 11.8603C-7.63306 7.10539 39.3799 8.1286 51.8392 7.98945C86.9428 7.59738 122.062 7.14308 157.182 6.66863C262.283 5.2488 367.357 3.96828 472.405 2.80087C656.39 0.756237 840.282 -0.890368 1023.44 0.53702C1074.56 0.935455 1125.66 1.41347 1176.78 1.82209C1193.44 1.95518 1201.05 2.62275 1215.86 5.72727C1227.9 8.25265 1232.26 11.9341 1218.34 14.9546C1202.02 18.4976 1199.32 18.8057 1183.15 18.9156C1090.55 19.5446 997.819 20.7073 905.303 20.9397C679.704 21.5065 455.038 17.9631 230.369 15.1353C173.311 14.4172 116.256 13.6864 59.2077 12.9357C52.7245 12.8504 4.59092 13.7867 1.06647 11.8603Z" fill="#3D405B"/>
</svg>
