<svg width="1227" height="21" viewBox="0 0 1227 21" fill="none" xmlns="http://www.w3.org/2000/svg">
<path d="M1225.93 11.8603C1234.63 7.10539 1187.62 8.1286 1175.16 7.98945C1140.06 7.59738 1104.94 7.14308 1069.82 6.66863C964.717 5.2488 859.643 3.96828 754.595 2.80087C570.61 0.756237 386.718 -0.890368 203.564 0.53702C152.44 0.935455 101.337 1.41347 50.2153 1.82209C33.5643 1.95518 25.9466 2.62275 11.1425 5.72727C-0.899897 8.25265 -5.2573 11.9341 8.65777 14.9546C24.9801 18.4976 27.6792 18.8057 43.8492 18.9156C136.455 19.5446 229.181 20.7073 321.697 20.9397C547.296 21.5065 771.962 17.9631 996.631 15.1353C1053.69 14.4172 1110.74 13.6864 1167.79 12.9357C1174.28 12.8504 1222.41 13.7867 1225.93 11.8603Z" fill="#3D405B"/>
</svg>
