<svg width="153" height="116" viewBox="0 0 153 116" fill="none" xmlns="http://www.w3.org/2000/svg">
<path d="M105.085 58.847L144.298 24.779V92.5261L105.085 58.847ZM54.5572 64.6164L68.3272 76.5695C70.4884 78.4055 73.3061 79.5148 76.3852 79.5148H76.4936H76.5765C79.662 79.5148 82.4797 78.3991 84.6664 76.5504L84.6472 76.5631L98.4172 64.61L140.275 100.559H12.7181L54.5572 64.6164ZM12.6607 16.7019H140.352L79.0181 69.9714C78.3285 70.5168 77.4749 70.8134 76.5956 70.8129H76.5064H76.4235C75.5411 70.814 74.6846 70.515 73.9946 69.965L74.001 69.9714L12.6607 16.7019ZM8.70187 24.7726L47.9081 58.8406L8.70187 92.5006V24.7726ZM146.402 9.21125C144.872 8.44625 143.074 8 141.168 8H11.8511C10.0034 8.00044 8.18107 8.43038 6.528 9.25588L6.59812 9.224C4.61916 10.2001 2.95257 11.7101 1.78662 13.5835C0.620674 15.4569 0.00183185 17.619 0 19.8256L0 97.4221C0.00337495 100.563 1.25238 103.573 3.47297 105.794C5.69356 108.014 8.70436 109.264 11.8447 109.267H141.149C144.289 109.264 147.3 108.014 149.521 105.794C151.741 103.573 152.99 100.563 152.994 97.4221V19.8256C152.994 15.191 150.322 11.1748 146.434 9.24313L146.364 9.21125H146.402Z" fill="#81B29A"/>
</svg>
