<svg width="103" height="97" viewBox="0 0 103 97" fill="none" xmlns="http://www.w3.org/2000/svg">
<g clip-path="url(#clip0_112_76)">
<path d="M70.7468 48.7046L97.1459 16.072V80.9646L70.7468 48.7046ZM36.7296 54.2308L46 65.6803C47.4549 67.439 49.3519 68.5015 51.4249 68.5015H51.4979H51.5536C53.6309 68.5015 55.5279 67.4329 57 65.662L56.9871 65.6742L66.2575 54.2247L94.4378 88.6587H8.56223L36.7296 54.2308ZM8.5236 8.33522H94.4893L53.1974 59.3602C52.7332 59.8827 52.1585 60.1667 51.5665 60.1663H51.5064H51.4506C50.8566 60.1673 50.28 59.8809 49.8155 59.3541L49.8197 59.3602L8.5236 8.33522ZM5.85837 16.0659L32.2532 48.6985L5.85837 80.9402V16.0659ZM98.5622 1.16021C97.5322 0.427448 96.3219 0 95.0386 0H7.97854C6.7346 0.000422776 5.50775 0.412246 4.39485 1.20296L4.44206 1.17243C3.10976 2.10738 1.98776 3.55379 1.20281 5.34825C0.417857 7.14272 0.00123325 9.21373 0 11.3274L0 85.6543C0.00227212 88.6624 0.843143 91.5463 2.33811 93.6734C3.83308 95.8004 5.86004 96.9968 7.97425 97H95.0258C97.14 96.9968 99.1669 95.8004 100.662 93.6734C102.157 91.5463 102.998 88.6624 103 85.6543V11.3274C103 6.88801 101.202 3.04098 98.5837 1.19075L98.5365 1.16021H98.5622Z" fill="#81B29A"/>
</g>
<defs>
<clipPath id="clip0_112_76">
<rect width="103" height="97" fill="white"/>
</clipPath>
</defs>
</svg>
