<svg width="115" height="101" viewBox="0 0 115 101" fill="none" xmlns="http://www.w3.org/2000/svg">
<path d="M83.8029 37.7283C79.5392 37.7276 75.3418 38.7291 71.5856 40.6433C71.2425 39.7861 70.6328 39.0482 69.8374 38.5276C69.0419 38.0069 68.0984 37.7282 67.1321 37.7283H48.0797C46.8164 37.7283 45.6049 38.2044 44.7116 39.052C43.8184 39.8995 43.3166 41.0491 43.3166 42.2477V96.4806C43.3166 97.6792 43.8184 98.8287 44.7116 99.6763C45.6049 100.524 46.8164 101 48.0797 101H67.1321C68.3953 101 69.6068 100.524 70.5001 99.6763C71.3934 98.8287 71.8952 97.6792 71.8952 96.4806V71.6238C71.8952 70.4252 72.397 69.2757 73.2903 68.4281C74.1835 67.5806 75.395 67.1044 76.6583 67.1044C77.9215 67.1044 79.1331 67.5806 80.0263 68.4281C80.9196 69.2757 81.4214 70.4252 81.4214 71.6238V96.4806C81.4214 97.6792 81.9232 98.8287 82.8165 99.6763C83.7097 100.524 84.9212 101 86.1845 101H105.237C106.5 101 107.712 100.524 108.605 99.6763C109.498 98.8287 110 97.6792 110 96.4806V62.585C109.991 55.9952 107.228 49.6776 102.317 45.0179C97.4063 40.3582 90.7481 37.7366 83.8029 37.7283ZM100.474 91.9612H90.9476V71.6238C90.9476 68.028 89.4421 64.5794 86.7624 62.0367C84.0826 59.4941 80.448 58.0656 76.6583 58.0656C72.8685 58.0656 69.234 59.4941 66.5542 62.0367C63.8745 64.5794 62.369 68.028 62.369 71.6238V91.9612H52.8428V46.7671H62.369V49.9442C62.3685 50.881 62.6748 51.7947 63.2456 52.5591C63.8163 53.3234 64.6233 53.9006 65.5549 54.2108C66.4864 54.521 67.4966 54.5489 68.4456 54.2905C69.3945 54.0322 70.2355 53.5005 70.8521 52.7689C72.9904 50.1933 75.9229 48.3155 79.2403 47.3978C82.5577 46.48 86.0943 46.568 89.3564 47.6495C92.6185 48.731 95.4433 50.752 97.4364 53.4304C99.4295 56.1088 100.491 59.3109 100.474 62.5895V91.9612ZM33.7904 37.7283H14.738C13.4747 37.7283 12.2632 38.2044 11.3699 39.052C10.4767 39.8995 9.97485 41.0491 9.97485 42.2477V96.4806C9.97485 97.6792 10.4767 98.8287 11.3699 99.6763C12.2632 100.524 13.4747 101 14.738 101H33.7904C35.0536 101 36.2651 100.524 37.1584 99.6763C38.0516 98.8287 38.5535 97.6792 38.5535 96.4806V42.2477C38.5535 41.0491 38.0516 39.8995 37.1584 39.052C36.2651 38.2044 35.0536 37.7283 33.7904 37.7283ZM29.0273 91.9612H19.5011V46.7671H29.0273V91.9612ZM24.3356 4.02705C22.2498 3.90646 20.16 4.18995 18.1933 4.86024C16.2267 5.53052 14.4244 6.57359 12.8962 7.92592C11.368 9.27826 10.1459 10.9116 9.30423 12.7264C8.46259 14.5412 8.01905 16.4996 8.0006 18.4823C7.98215 20.465 8.38919 22.4305 9.19694 24.2591C10.0047 26.0877 11.1962 27.7413 12.699 29.119C14.2018 30.4967 15.9844 31.5698 17.9383 32.2729C19.8921 32.976 21.9764 33.2945 24.0641 33.2089H24.1975C26.2845 33.322 28.3739 33.0308 30.3384 32.3529C32.3029 31.6751 34.1014 30.6249 35.6243 29.2662C37.1473 27.9075 38.3627 26.2688 39.1966 24.4501C40.0305 22.6313 40.4654 20.6704 40.4747 18.687C40.4841 16.7036 40.0678 14.7391 39.2512 12.9133C38.4346 11.0875 37.2347 9.43856 35.7247 8.06696C34.2147 6.69536 32.4262 5.62983 30.4682 4.93528C28.5101 4.24073 26.4236 3.93171 24.3356 4.02705ZM24.1975 24.17H24.0641C23.2403 24.2655 22.4045 24.1926 21.6128 23.9564C20.8211 23.7202 20.0918 23.3261 19.4738 22.8005C18.8558 22.2749 18.3634 21.63 18.0296 20.909C17.6959 20.188 17.5285 19.4076 17.5387 18.6202C17.5387 15.2442 20.206 13.0659 24.3356 13.0659C25.1673 12.962 26.0128 13.0283 26.8152 13.2602C27.6177 13.4921 28.3585 13.8844 28.988 14.4105C29.6174 14.9367 30.1208 15.5846 30.4645 16.3107C30.8081 17.0368 30.9839 17.8243 30.9801 18.6202C30.9801 21.9917 28.3176 24.17 24.1975 24.17Z" fill="#5A6193"/>
</svg>
