<svg width="115" height="109" viewBox="0 0 115 109" fill="none" xmlns="http://www.w3.org/2000/svg">
<path d="M83.8542 38.7601C79.5649 38.7594 75.3423 39.8212 71.5636 41.8508C71.2185 40.9419 70.6051 40.1596 69.8049 39.6076C69.0047 39.0556 68.0555 38.76 67.0834 38.7601H47.9167C46.6459 38.7601 45.4271 39.265 44.5285 40.1636C43.6299 41.0622 43.125 42.281 43.125 43.5518V101.052C43.125 102.323 43.6299 103.541 44.5285 104.44C45.4271 105.339 46.6459 105.843 47.9167 105.843H67.0834C68.3542 105.843 69.573 105.339 70.4716 104.44C71.3702 103.541 71.875 102.323 71.875 101.052V74.6976C71.875 73.4268 72.3799 72.208 73.2785 71.3094C74.1771 70.4108 75.3959 69.906 76.6667 69.906C77.9375 69.906 79.1563 70.4108 80.0549 71.3094C80.9535 72.208 81.4584 73.4268 81.4584 74.6976V101.052C81.4584 102.323 81.9632 103.541 82.8618 104.44C83.7604 105.339 84.9792 105.843 86.25 105.843H105.417C106.688 105.843 107.906 105.339 108.805 104.44C109.704 103.541 110.208 102.323 110.208 101.052V65.1143C110.2 58.1275 107.42 51.4293 102.48 46.4889C97.5392 41.5485 90.841 38.769 83.8542 38.7601ZM100.625 96.2601H91.0417V74.6976C91.0417 70.8852 89.5272 67.2288 86.8314 64.533C84.1355 61.8371 80.4792 60.3226 76.6667 60.3226C72.8542 60.3226 69.1979 61.8371 66.502 64.533C63.8062 67.2288 62.2917 70.8852 62.2917 74.6976V96.2601H52.7084V48.3435H62.2917V51.712C62.2912 52.7052 62.5994 53.674 63.1736 54.4844C63.7478 55.2948 64.5596 55.9067 65.4967 56.2356C66.4339 56.5645 67.4501 56.594 68.4047 56.3201C69.3594 56.0463 70.2054 55.4825 70.8257 54.7068C72.9768 51.9761 75.9269 49.9852 79.2642 49.0121C82.6015 48.0391 86.1593 48.1324 89.441 49.279C92.7227 50.4257 95.5644 52.5685 97.5694 55.4082C99.5744 58.2479 100.643 61.6429 100.625 65.1191V96.2601ZM33.5417 38.7601H14.375C13.1042 38.7601 11.8854 39.265 10.9868 40.1636C10.0882 41.0622 9.58337 42.281 9.58337 43.5518V101.052C9.58337 102.323 10.0882 103.541 10.9868 104.44C11.8854 105.339 13.1042 105.843 14.375 105.843H33.5417C34.8125 105.843 36.0313 105.339 36.9299 104.44C37.8285 103.541 38.3334 102.323 38.3334 101.052V43.5518C38.3334 42.281 37.8285 41.0622 36.9299 40.1636C36.0313 39.265 34.8125 38.7601 33.5417 38.7601ZM28.75 96.2601H19.1667V48.3435H28.75V96.2601ZM24.0302 3.02867C21.9319 2.90083 19.8296 3.20139 17.8511 3.91206C15.8727 4.62273 14.0596 5.72863 12.5222 7.16243C10.9849 8.59623 9.75542 10.3279 8.90873 12.2521C8.06205 14.1762 7.61584 16.2526 7.59728 18.3547C7.57873 20.4568 7.98821 22.5407 8.8008 24.4795C9.61338 26.4183 10.8121 28.1715 12.3239 29.6322C13.8357 31.0929 15.629 32.2307 17.5946 32.9761C19.5601 33.7216 21.6569 34.0592 23.7571 33.9685H23.8913C25.9908 34.0884 28.0927 33.7796 30.069 33.061C32.0453 32.3423 33.8546 31.2288 35.3867 29.7883C36.9187 28.3477 38.1415 26.6104 38.9803 24.682C39.8192 22.7537 40.2567 20.6747 40.2662 18.5718C40.2756 16.4689 39.8568 14.3861 39.0353 12.4503C38.2137 10.5145 37.0067 8.76619 35.4876 7.31197C33.9686 5.85774 32.1694 4.72801 30.1996 3.99162C28.2298 3.25523 26.1307 2.92759 24.0302 3.02867ZM23.8913 24.3851H23.7571C22.9284 24.4863 22.0876 24.4091 21.2911 24.1587C20.4946 23.9082 19.761 23.4903 19.1392 22.9331C18.5175 22.3758 18.0222 21.692 17.6864 20.9276C17.3507 20.1632 17.1823 19.3358 17.1925 18.501C17.1925 14.9216 19.8759 12.612 24.0302 12.612C24.8669 12.5019 25.7175 12.5722 26.5248 12.8181C27.332 13.064 28.0773 13.4798 28.7105 14.0377C29.3437 14.5955 29.8502 15.2825 30.1959 16.0523C30.5415 16.8222 30.7184 17.6571 30.7146 18.501C30.7146 22.0756 28.0361 24.3851 23.8913 24.3851Z" fill="#5A6193"/>
</svg>
