<svg width="103" height="97" viewBox="0 0 103 97" fill="none" xmlns="http://www.w3.org/2000/svg">
<path d="M76.8029 33.7283C72.5392 33.7276 68.3418 34.7291 64.5856 36.6433C64.2425 35.7861 63.6328 35.0482 62.8374 34.5276C62.0419 34.0069 61.0984 33.7282 60.1321 33.7283H41.0797C39.8164 33.7283 38.6049 34.2044 37.7116 35.052C36.8184 35.8995 36.3166 37.0491 36.3166 38.2477V92.4806C36.3166 93.6792 36.8184 94.8287 37.7116 95.6763C38.6049 96.5238 39.8164 97 41.0797 97H60.1321C61.3953 97 62.6068 96.5238 63.5001 95.6763C64.3934 94.8287 64.8952 93.6792 64.8952 92.4806V67.6238C64.8952 66.4252 65.397 65.2757 66.2903 64.4281C67.1835 63.5806 68.395 63.1044 69.6583 63.1044C70.9215 63.1044 72.1331 63.5806 73.0263 64.4281C73.9196 65.2757 74.4214 66.4252 74.4214 67.6238V92.4806C74.4214 93.6792 74.9232 94.8287 75.8165 95.6763C76.7097 96.5238 77.9212 97 79.1845 97H98.2369C99.5002 97 100.712 96.5238 101.605 95.6763C102.498 94.8287 103 93.6792 103 92.4806V58.585C102.991 51.9952 100.228 45.6776 95.3173 41.0179C90.4063 36.3582 83.7481 33.7366 76.8029 33.7283ZM93.4738 87.9612H83.9476V67.6238C83.9476 64.028 82.4421 60.5794 79.7624 58.0367C77.0826 55.4941 73.448 54.0656 69.6583 54.0656C65.8685 54.0656 62.234 55.4941 59.5542 58.0367C56.8745 60.5794 55.369 64.028 55.369 67.6238V87.9612H45.8428V42.7671H55.369V45.9442C55.3685 46.881 55.6748 47.7947 56.2456 48.5591C56.8163 49.3234 57.6233 49.9006 58.5549 50.2108C59.4864 50.521 60.4966 50.5489 61.4456 50.2905C62.3945 50.0322 63.2355 49.5005 63.8521 48.7689C65.9904 46.1933 68.9229 44.3155 72.2403 43.3978C75.5577 42.48 79.0943 42.568 82.3564 43.6495C85.6185 44.731 88.4433 46.752 90.4364 49.4304C92.4295 52.1088 93.4913 55.3109 93.4738 58.5895V87.9612ZM26.7904 33.7283H7.73795C6.4747 33.7283 5.26318 34.2044 4.36993 35.052C3.47667 35.8995 2.97485 37.0491 2.97485 38.2477V92.4806C2.97485 93.6792 3.47667 94.8287 4.36993 95.6763C5.26318 96.5238 6.4747 97 7.73795 97H26.7904C28.0536 97 29.2651 96.5238 30.1584 95.6763C31.0516 94.8287 31.5535 93.6792 31.5535 92.4806V38.2477C31.5535 37.0491 31.0516 35.8995 30.1584 35.052C29.2651 34.2044 28.0536 33.7283 26.7904 33.7283ZM22.0273 87.9612H12.5011V42.7671H22.0273V87.9612ZM17.3356 0.0270454C15.2498 -0.0935354 13.16 0.189948 11.1933 0.860236C9.22667 1.53052 7.42438 2.57359 5.89619 3.92592C4.368 5.27826 3.14587 6.91156 2.30423 8.72639C1.46259 10.5412 1.01905 12.4996 1.0006 14.4823C0.982154 16.465 1.38919 18.4305 2.19694 20.2591C3.00468 22.0877 4.19622 23.7413 5.69902 25.119C7.20181 26.4967 8.98441 27.5698 10.9383 28.2729C12.8921 28.976 14.9764 29.2945 17.0641 29.2089H17.1975C19.2845 29.322 21.3739 29.0308 23.3384 28.3529C25.3029 27.6751 27.1014 26.6249 28.6243 25.2662C30.1473 23.9075 31.3627 22.2688 32.1966 20.4501C33.0305 18.6313 33.4654 16.6704 33.4747 14.687C33.4841 12.7036 33.0678 10.7391 32.2512 8.91333C31.4346 7.08751 30.2347 5.43856 28.7247 4.06696C27.2147 2.69536 25.4262 1.62983 23.4682 0.935278C21.5101 0.240728 19.4236 -0.0682919 17.3356 0.0270454ZM17.1975 20.17H17.0641C16.2403 20.2655 15.4045 20.1926 14.6128 19.9564C13.8211 19.7202 13.0918 19.3261 12.4738 18.8005C11.8558 18.2749 11.3634 17.63 11.0296 16.909C10.6959 16.188 10.5285 15.4076 10.5387 14.6202C10.5387 11.2442 13.206 9.06586 17.3356 9.06586C18.1673 8.96201 19.0128 9.02827 19.8152 9.26021C20.6177 9.49214 21.3585 9.88437 21.988 10.4105C22.6174 10.9367 23.1208 11.5846 23.4645 12.3107C23.8081 13.0368 23.9839 13.8243 23.9801 14.6202C23.9801 17.9917 21.3176 20.17 17.1975 20.17Z" fill="#5A6193"/>
</svg>
