<svg width="700" height="450" viewBox="0 0 700 450" fill="none" xmlns="http://www.w3.org/2000/svg">
<rect width="200" height="200" fill="#F6BD60"/>
<rect x="125" y="250" width="200" height="200" fill="#0F4C5C"/>
<rect x="250" width="200" height="200" fill="#36827F"/>
<rect x="375" y="250" width="200" height="200" fill="#5F0F40"/>
<rect x="500" width="200" height="200" fill="#0D79A7"/>
<path d="M47.9482 85.132C48.4762 85.132 48.9322 85.252 49.3162 85.492V91.324H53.3482C53.5642 91.804 53.6722 92.224 53.6722 92.584C53.6722 93.136 53.5162 93.58 53.2042 93.916C52.9162 94.228 52.4962 94.384 51.9442 94.384H49.3162V99.532H53.3482C53.5642 100.012 53.6722 100.432 53.6722 100.792C53.6722 101.344 53.5162 101.788 53.2042 102.124C52.9162 102.436 52.4962 102.592 51.9442 102.592H49.3162V107.128C49.3162 107.752 49.1362 108.22 48.7762 108.532C48.4402 108.844 47.9602 109 47.3362 109C46.7842 109 46.3162 108.88 45.9322 108.64V102.592H41.8642V107.128C41.8642 107.752 41.6842 108.22 41.3242 108.532C40.9642 108.844 40.4722 109 39.8482 109C39.3202 109 38.8642 108.88 38.4802 108.64V102.592H34.4122C34.1962 102.112 34.0882 101.692 34.0882 101.332C34.0882 100.78 34.2442 100.348 34.5562 100.036C34.8682 99.7 35.3002 99.532 35.8522 99.532H38.4802V94.384H34.4122C34.1962 93.904 34.0882 93.484 34.0882 93.124C34.0882 92.572 34.2442 92.14 34.5562 91.828C34.8682 91.492 35.3002 91.324 35.8522 91.324H38.4802V87.004C38.4802 86.38 38.6482 85.912 38.9842 85.6C39.3442 85.288 39.8362 85.132 40.4602 85.132C41.0122 85.132 41.4802 85.252 41.8642 85.492V91.324H45.9322V87.004C45.9322 86.38 46.1122 85.912 46.4722 85.6C46.8322 85.288 47.3242 85.132 47.9482 85.132ZM45.9322 94.384H41.8642V99.532H45.9322V94.384ZM67.8567 85.24V87.904H60.0087V95.968H66.7767V98.632H60.0087V109H55.7967V85.24H67.8567ZM80.1684 84.52C81.4644 84.52 82.6164 84.796 83.6244 85.348C84.6564 85.9 85.1724 86.692 85.1724 87.724C85.1724 88.06 85.0884 88.348 84.9204 88.588C84.7764 88.828 84.5484 89.056 84.2364 89.272C83.2764 88.288 82.0164 87.796 80.4564 87.796C78.4884 87.796 77.0124 88.528 76.0284 89.992C75.0684 91.432 74.5404 93.34 74.4444 95.716C74.8284 94.804 75.5124 94.096 76.4964 93.592C77.5044 93.088 78.6084 92.836 79.8084 92.836C81.9444 92.836 83.5884 93.604 84.7404 95.14C85.8924 96.652 86.4684 98.572 86.4684 100.9C86.4684 102.58 86.1324 104.104 85.4604 105.472C84.8124 106.816 83.8764 107.872 82.6524 108.64C81.4284 109.408 80.0004 109.792 78.3684 109.792C72.7764 109.792 69.9804 105.844 69.9804 97.948C69.9804 95.596 70.3644 93.4 71.1324 91.36C71.9004 89.296 73.0524 87.64 74.5884 86.392C76.1244 85.144 77.9844 84.52 80.1684 84.52ZM78.3684 95.5C77.1924 95.5 76.3164 96.04 75.7404 97.12C75.1884 98.176 74.8644 99.52 74.7684 101.152C74.8404 102.832 75.1524 104.272 75.7044 105.472C76.2564 106.672 77.1444 107.272 78.3684 107.272C79.6164 107.272 80.5164 106.66 81.0684 105.436C81.6444 104.212 81.9324 102.784 81.9324 101.152C81.9324 99.712 81.6324 98.416 81.0324 97.264C80.4324 96.088 79.5444 95.5 78.3684 95.5ZM104.865 90.712C104.865 91.72 104.565 92.68 103.965 93.592C103.365 94.48 102.597 95.188 101.661 95.716C103.245 96.028 104.457 96.748 105.297 97.876C106.161 99.004 106.593 100.396 106.593 102.052C106.593 103.66 106.149 105.016 105.261 106.12C104.373 107.2 103.185 108.016 101.697 108.568C100.233 109.096 98.637 109.36 96.909 109.36C94.893 109.36 92.685 109.18 90.285 108.82V85.384C93.117 85.192 95.373 85.096 97.053 85.096C99.501 85.096 101.409 85.516 102.777 86.356C104.169 87.196 104.865 88.648 104.865 90.712ZM94.497 94.996C95.049 95.068 95.661 95.104 96.333 95.104C97.749 95.104 98.805 94.78 99.501 94.132C100.197 93.484 100.545 92.464 100.545 91.072C100.545 88.768 99.297 87.616 96.801 87.616C96.057 87.616 95.289 87.676 94.497 87.796V94.996ZM94.497 106.624C95.361 106.768 96.165 106.84 96.909 106.84C98.589 106.84 99.873 106.456 100.761 105.688C101.673 104.92 102.129 103.744 102.129 102.16C102.129 100.36 101.637 99.148 100.653 98.524C99.693 97.876 98.181 97.552 96.117 97.552C95.469 97.552 94.929 97.588 94.497 97.66V106.624ZM109.726 85.384C112.558 85.192 115.054 85.096 117.214 85.096C123.502 85.096 126.646 88.912 126.646 96.544C126.646 105.088 123.214 109.36 116.35 109.36C114.334 109.36 112.126 109.18 109.726 108.82V85.384ZM116.35 106.84C118.03 106.84 119.302 106.42 120.166 105.58C121.03 104.74 121.594 103.636 121.858 102.268C122.122 100.876 122.254 99.136 122.254 97.048C122.254 94.264 121.882 91.996 121.138 90.244C120.394 88.492 119.002 87.616 116.962 87.616C116.074 87.616 115.066 87.676 113.938 87.796V106.624C114.802 106.768 115.606 106.84 116.35 106.84ZM139.407 84.52C140.703 84.52 141.855 84.796 142.863 85.348C143.895 85.9 144.411 86.692 144.411 87.724C144.411 88.06 144.327 88.348 144.159 88.588C144.015 88.828 143.787 89.056 143.475 89.272C142.515 88.288 141.255 87.796 139.695 87.796C137.727 87.796 136.251 88.528 135.267 89.992C134.307 91.432 133.779 93.34 133.683 95.716C134.067 94.804 134.751 94.096 135.735 93.592C136.743 93.088 137.847 92.836 139.047 92.836C141.183 92.836 142.827 93.604 143.979 95.14C145.131 96.652 145.707 98.572 145.707 100.9C145.707 102.58 145.371 104.104 144.699 105.472C144.051 106.816 143.115 107.872 141.891 108.64C140.667 109.408 139.239 109.792 137.607 109.792C132.015 109.792 129.219 105.844 129.219 97.948C129.219 95.596 129.603 93.4 130.371 91.36C131.139 89.296 132.291 87.64 133.827 86.392C135.363 85.144 137.223 84.52 139.407 84.52ZM137.607 95.5C136.431 95.5 135.555 96.04 134.979 97.12C134.427 98.176 134.103 99.52 134.007 101.152C134.079 102.832 134.391 104.272 134.943 105.472C135.495 106.672 136.383 107.272 137.607 107.272C138.855 107.272 139.755 106.66 140.307 105.436C140.883 104.212 141.171 102.784 141.171 101.152C141.171 99.712 140.871 98.416 140.271 97.264C139.671 96.088 138.783 95.5 137.607 95.5ZM157.047 84.52C160.071 84.52 162.231 85.66 163.527 87.94C164.823 90.196 165.471 93.148 165.471 96.796C165.471 100.516 164.811 103.612 163.491 106.084C162.195 108.556 160.047 109.792 157.047 109.792C154.047 109.792 151.899 108.628 150.603 106.3C149.331 103.948 148.695 100.924 148.695 97.228C148.695 93.532 149.331 90.496 150.603 88.12C151.899 85.72 154.047 84.52 157.047 84.52ZM157.047 107.272C158.631 107.272 159.675 106.36 160.179 104.536C160.683 102.712 160.935 100.216 160.935 97.048C160.935 94.096 160.671 91.696 160.143 89.848C159.639 87.976 158.607 87.04 157.047 87.04C155.511 87.04 154.491 87.964 153.987 89.812C153.483 91.66 153.231 94.072 153.231 97.048C153.231 100.216 153.471 102.712 153.951 104.536C154.455 106.36 155.487 107.272 157.047 107.272Z" fill="black"/>
<path d="M425.085 336.132C425.613 336.132 426.069 336.252 426.453 336.492V342.324H430.485C430.701 342.804 430.809 343.224 430.809 343.584C430.809 344.136 430.653 344.58 430.341 344.916C430.053 345.228 429.633 345.384 429.081 345.384H426.453V350.532H430.485C430.701 351.012 430.809 351.432 430.809 351.792C430.809 352.344 430.653 352.788 430.341 353.124C430.053 353.436 429.633 353.592 429.081 353.592H426.453V358.128C426.453 358.752 426.273 359.22 425.913 359.532C425.577 359.844 425.097 360 424.473 360C423.921 360 423.453 359.88 423.069 359.64V353.592H419.001V358.128C419.001 358.752 418.821 359.22 418.461 359.532C418.101 359.844 417.609 360 416.985 360C416.457 360 416.001 359.88 415.617 359.64V353.592H411.549C411.333 353.112 411.225 352.692 411.225 352.332C411.225 351.78 411.381 351.348 411.693 351.036C412.005 350.7 412.437 350.532 412.989 350.532H415.617V345.384H411.549C411.333 344.904 411.225 344.484 411.225 344.124C411.225 343.572 411.381 343.14 411.693 342.828C412.005 342.492 412.437 342.324 412.989 342.324H415.617V338.004C415.617 337.38 415.785 336.912 416.121 336.6C416.481 336.288 416.973 336.132 417.597 336.132C418.149 336.132 418.617 336.252 419.001 336.492V342.324H423.069V338.004C423.069 337.38 423.249 336.912 423.609 336.6C423.969 336.288 424.461 336.132 425.085 336.132ZM423.069 345.384H419.001V350.532H423.069V345.384ZM446.865 339.876H436.749L436.317 345.672C437.397 345.552 438.501 345.492 439.629 345.492C445.461 345.492 448.377 347.928 448.377 352.8C448.377 354.336 447.981 355.716 447.189 356.94C446.397 358.14 445.293 359.088 443.877 359.784C442.485 360.456 440.925 360.792 439.197 360.792C437.037 360.792 435.249 360.396 433.833 359.604C432.441 358.812 431.745 357.624 431.745 356.04C431.745 355.08 432.045 354.456 432.645 354.168C433.773 356.376 435.909 357.48 439.053 357.48C440.565 357.48 441.741 357.072 442.581 356.256C443.421 355.44 443.841 354.288 443.841 352.8C443.841 351.24 443.265 350.1 442.113 349.38C440.985 348.66 439.437 348.3 437.469 348.3C436.197 348.3 434.673 348.468 432.897 348.804L433.833 336.24H446.613L446.865 339.876ZM464.47 336.24V338.904H456.622V346.968H463.39V349.632H456.622V360H452.41V336.24H464.47ZM474.946 335.52C477.97 335.52 480.13 336.66 481.426 338.94C482.722 341.196 483.37 344.148 483.37 347.796C483.37 351.516 482.71 354.612 481.39 357.084C480.094 359.556 477.946 360.792 474.946 360.792C471.946 360.792 469.798 359.628 468.502 357.3C467.23 354.948 466.594 351.924 466.594 348.228C466.594 344.532 467.23 341.496 468.502 339.12C469.798 336.72 471.946 335.52 474.946 335.52ZM474.946 358.272C476.53 358.272 477.574 357.36 478.078 355.536C478.582 353.712 478.834 351.216 478.834 348.048C478.834 345.096 478.57 342.696 478.042 340.848C477.538 338.976 476.506 338.04 474.946 338.04C473.41 338.04 472.39 338.964 471.886 340.812C471.382 342.66 471.13 345.072 471.13 348.048C471.13 351.216 471.37 353.712 471.85 355.536C472.354 357.36 473.386 358.272 474.946 358.272ZM498.958 336.24V338.904H491.11V346.968H497.878V349.632H491.11V360H486.898V336.24H498.958ZM515.446 352.152H518.65L518.398 354.816H515.446V360H511.234V354.816H501.442C501.034 354.816 500.71 354.684 500.47 354.42C500.23 354.132 500.11 353.76 500.11 353.304C500.11 352.776 500.374 352.104 500.902 351.288L511.234 336.24H515.446V352.152ZM511.234 341.28L503.746 352.152H511.234V341.28ZM528.911 335.52C531.935 335.52 534.095 336.66 535.391 338.94C536.687 341.196 537.335 344.148 537.335 347.796C537.335 351.516 536.675 354.612 535.355 357.084C534.059 359.556 531.911 360.792 528.911 360.792C525.911 360.792 523.763 359.628 522.467 357.3C521.195 354.948 520.559 351.924 520.559 348.228C520.559 344.532 521.195 341.496 522.467 339.12C523.763 336.72 525.911 335.52 528.911 335.52ZM528.911 358.272C530.495 358.272 531.539 357.36 532.043 355.536C532.547 353.712 532.799 351.216 532.799 348.048C532.799 345.096 532.535 342.696 532.007 340.848C531.503 338.976 530.471 338.04 528.911 338.04C527.375 338.04 526.355 338.964 525.851 340.812C525.347 342.66 525.095 345.072 525.095 348.048C525.095 351.216 525.335 353.712 525.815 355.536C526.319 357.36 527.351 358.272 528.911 358.272Z" fill="white"/>
<path d="M173.907 336.132C174.435 336.132 174.891 336.252 175.275 336.492V342.324H179.307C179.523 342.804 179.631 343.224 179.631 343.584C179.631 344.136 179.475 344.58 179.163 344.916C178.875 345.228 178.455 345.384 177.903 345.384H175.275V350.532H179.307C179.523 351.012 179.631 351.432 179.631 351.792C179.631 352.344 179.475 352.788 179.163 353.124C178.875 353.436 178.455 353.592 177.903 353.592H175.275V358.128C175.275 358.752 175.095 359.22 174.735 359.532C174.399 359.844 173.919 360 173.295 360C172.743 360 172.275 359.88 171.891 359.64V353.592H167.823V358.128C167.823 358.752 167.643 359.22 167.283 359.532C166.923 359.844 166.431 360 165.807 360C165.279 360 164.823 359.88 164.439 359.64V353.592H160.371C160.155 353.112 160.047 352.692 160.047 352.332C160.047 351.78 160.203 351.348 160.515 351.036C160.827 350.7 161.259 350.532 161.811 350.532H164.439V345.384H160.371C160.155 344.904 160.047 344.484 160.047 344.124C160.047 343.572 160.203 343.14 160.515 342.828C160.827 342.492 161.259 342.324 161.811 342.324H164.439V338.004C164.439 337.38 164.607 336.912 164.943 336.6C165.303 336.288 165.795 336.132 166.419 336.132C166.971 336.132 167.439 336.252 167.823 336.492V342.324H171.891V338.004C171.891 337.38 172.071 336.912 172.431 336.6C172.791 336.288 173.283 336.132 173.907 336.132ZM171.891 345.384H167.823V350.532H171.891V345.384ZM189.28 335.52C192.304 335.52 194.464 336.66 195.76 338.94C197.056 341.196 197.704 344.148 197.704 347.796C197.704 351.516 197.044 354.612 195.724 357.084C194.428 359.556 192.28 360.792 189.28 360.792C186.28 360.792 184.132 359.628 182.836 357.3C181.564 354.948 180.928 351.924 180.928 348.228C180.928 344.532 181.564 341.496 182.836 339.12C184.132 336.72 186.28 335.52 189.28 335.52ZM189.28 358.272C190.864 358.272 191.908 357.36 192.412 355.536C192.916 353.712 193.168 351.216 193.168 348.048C193.168 345.096 192.904 342.696 192.376 340.848C191.872 338.976 190.84 338.04 189.28 338.04C187.744 338.04 186.724 338.964 186.22 340.812C185.716 342.66 185.464 345.072 185.464 348.048C185.464 351.216 185.704 353.712 186.184 355.536C186.688 357.36 187.72 358.272 189.28 358.272ZM213.292 336.24V338.904H205.444V346.968H212.212V349.632H205.444V360H201.232V336.24H213.292ZM229.78 352.152H232.984L232.732 354.816H229.78V360H225.568V354.816H215.776C215.368 354.816 215.044 354.684 214.804 354.42C214.564 354.132 214.444 353.76 214.444 353.304C214.444 352.776 214.708 352.104 215.236 351.288L225.568 336.24H229.78V352.152ZM225.568 341.28L218.08 352.152H225.568V341.28ZM243.821 338.04C241.997 338.04 240.785 339 240.185 340.92C239.609 342.816 239.321 345.192 239.321 348.048C239.321 350.904 239.633 353.196 240.257 354.924C240.881 356.628 242.189 357.48 244.181 357.48C245.429 357.48 246.497 357.132 247.385 356.436C248.273 355.74 248.909 354.78 249.293 353.556C249.797 353.724 250.157 353.988 250.373 354.348C250.589 354.684 250.697 355.128 250.697 355.68C250.697 356.76 250.361 357.684 249.689 358.452C249.041 359.22 248.189 359.796 247.133 360.18C246.101 360.588 244.997 360.792 243.821 360.792C240.557 360.792 238.229 359.664 236.837 357.408C235.469 355.152 234.785 352.092 234.785 348.228C234.785 344.388 235.517 341.316 236.981 339.012C238.469 336.684 240.857 335.52 244.145 335.52C246.257 335.52 247.937 335.94 249.185 336.78C250.457 337.62 251.093 338.952 251.093 340.776C251.093 341.64 250.841 342.348 250.337 342.9C249.833 343.428 249.149 343.692 248.285 343.692C247.445 343.692 246.821 343.5 246.413 343.116C246.605 342.588 246.701 341.988 246.701 341.316C246.701 339.132 245.741 338.04 243.821 338.04ZM268.074 339.876H257.958L257.526 345.672C258.606 345.552 259.71 345.492 260.838 345.492C266.67 345.492 269.586 347.928 269.586 352.8C269.586 354.336 269.19 355.716 268.398 356.94C267.606 358.14 266.502 359.088 265.086 359.784C263.694 360.456 262.134 360.792 260.406 360.792C258.246 360.792 256.458 360.396 255.042 359.604C253.65 358.812 252.954 357.624 252.954 356.04C252.954 355.08 253.254 354.456 253.854 354.168C254.982 356.376 257.118 357.48 260.262 357.48C261.774 357.48 262.95 357.072 263.79 356.256C264.63 355.44 265.05 354.288 265.05 352.8C265.05 351.24 264.474 350.1 263.322 349.38C262.194 348.66 260.646 348.3 258.678 348.3C257.406 348.3 255.882 348.468 254.106 348.804L255.042 336.24H267.822L268.074 339.876ZM281.719 338.04C279.895 338.04 278.683 339 278.083 340.92C277.507 342.816 277.219 345.192 277.219 348.048C277.219 350.904 277.531 353.196 278.155 354.924C278.779 356.628 280.087 357.48 282.079 357.48C283.327 357.48 284.395 357.132 285.283 356.436C286.171 355.74 286.807 354.78 287.191 353.556C287.695 353.724 288.055 353.988 288.271 354.348C288.487 354.684 288.595 355.128 288.595 355.68C288.595 356.76 288.259 357.684 287.587 358.452C286.939 359.22 286.087 359.796 285.031 360.18C283.999 360.588 282.895 360.792 281.719 360.792C278.455 360.792 276.127 359.664 274.735 357.408C273.367 355.152 272.683 352.092 272.683 348.228C272.683 344.388 273.415 341.316 274.879 339.012C276.367 336.684 278.755 335.52 282.043 335.52C284.155 335.52 285.835 335.94 287.083 336.78C288.355 337.62 288.991 338.952 288.991 340.776C288.991 341.64 288.739 342.348 288.235 342.9C287.731 343.428 287.047 343.692 286.183 343.692C285.343 343.692 284.719 343.5 284.311 343.116C284.503 342.588 284.599 341.988 284.599 341.316C284.599 339.132 283.639 338.04 281.719 338.04Z" fill="white"/>
<path d="M545.884 85.132C546.412 85.132 546.868 85.252 547.252 85.492V91.324H551.284C551.5 91.804 551.608 92.224 551.608 92.584C551.608 93.136 551.452 93.58 551.14 93.916C550.852 94.228 550.432 94.384 549.88 94.384H547.252V99.532H551.284C551.5 100.012 551.608 100.432 551.608 100.792C551.608 101.344 551.452 101.788 551.14 102.124C550.852 102.436 550.432 102.592 549.88 102.592H547.252V107.128C547.252 107.752 547.072 108.22 546.712 108.532C546.376 108.844 545.896 109 545.272 109C544.72 109 544.252 108.88 543.868 108.64V102.592H539.8V107.128C539.8 107.752 539.62 108.22 539.26 108.532C538.9 108.844 538.408 109 537.784 109C537.256 109 536.8 108.88 536.416 108.64V102.592H532.348C532.132 102.112 532.024 101.692 532.024 101.332C532.024 100.78 532.18 100.348 532.492 100.036C532.804 99.7 533.236 99.532 533.788 99.532H536.416V94.384H532.348C532.132 93.904 532.024 93.484 532.024 93.124C532.024 92.572 532.18 92.14 532.492 91.828C532.804 91.492 533.236 91.324 533.788 91.324H536.416V87.004C536.416 86.38 536.584 85.912 536.92 85.6C537.28 85.288 537.772 85.132 538.396 85.132C538.948 85.132 539.416 85.252 539.8 85.492V91.324H543.868V87.004C543.868 86.38 544.048 85.912 544.408 85.6C544.768 85.288 545.26 85.132 545.884 85.132ZM543.868 94.384H539.8V99.532H543.868V94.384ZM561.256 84.52C564.28 84.52 566.44 85.66 567.736 87.94C569.032 90.196 569.68 93.148 569.68 96.796C569.68 100.516 569.02 103.612 567.7 106.084C566.404 108.556 564.256 109.792 561.256 109.792C558.256 109.792 556.108 108.628 554.812 106.3C553.54 103.948 552.904 100.924 552.904 97.228C552.904 93.532 553.54 90.496 554.812 88.12C556.108 85.72 558.256 84.52 561.256 84.52ZM561.256 107.272C562.84 107.272 563.884 106.36 564.388 104.536C564.892 102.712 565.144 100.216 565.144 97.048C565.144 94.096 564.88 91.696 564.352 89.848C563.848 87.976 562.816 87.04 561.256 87.04C559.72 87.04 558.7 87.964 558.196 89.812C557.692 91.66 557.44 94.072 557.44 97.048C557.44 100.216 557.68 102.712 558.16 104.536C558.664 106.36 559.696 107.272 561.256 107.272ZM573.209 85.384C576.041 85.192 578.537 85.096 580.697 85.096C586.985 85.096 590.129 88.912 590.129 96.544C590.129 105.088 586.697 109.36 579.833 109.36C577.817 109.36 575.609 109.18 573.209 108.82V85.384ZM579.833 106.84C581.513 106.84 582.785 106.42 583.649 105.58C584.513 104.74 585.077 103.636 585.341 102.268C585.605 100.876 585.737 99.136 585.737 97.048C585.737 94.264 585.365 91.996 584.621 90.244C583.877 88.492 582.485 87.616 580.445 87.616C579.557 87.616 578.549 87.676 577.421 87.796V106.624C578.285 106.768 579.089 106.84 579.833 106.84ZM609.909 85.24L610.161 87.868L600.225 109.792L595.473 109L606.021 88.624L592.665 88.66L592.917 85.24H609.909ZM620.278 84.52C625.87 84.52 628.666 88.468 628.666 96.364C628.666 98.716 628.282 100.924 627.514 102.988C626.746 105.028 625.594 106.672 624.058 107.92C622.522 109.168 620.662 109.792 618.478 109.792C617.182 109.792 616.018 109.516 614.986 108.964C613.978 108.412 613.474 107.62 613.474 106.588C613.474 106.252 613.546 105.964 613.69 105.724C613.858 105.484 614.098 105.256 614.41 105.04C615.37 106.024 616.63 106.516 618.19 106.516C620.206 106.516 621.682 105.796 622.618 104.356C623.578 102.916 624.106 100.996 624.202 98.596C623.746 99.532 623.038 100.252 622.078 100.756C621.118 101.236 620.038 101.476 618.838 101.476C616.702 101.476 615.058 100.72 613.906 99.208C612.754 97.672 612.178 95.74 612.178 93.412C612.178 91.732 612.502 90.22 613.15 88.876C613.822 87.508 614.77 86.44 615.994 85.672C617.218 84.904 618.646 84.52 620.278 84.52ZM620.278 87.04C619.03 87.04 618.118 87.652 617.542 88.876C616.99 90.1 616.714 91.528 616.714 93.16C616.714 94.648 616.99 95.968 617.542 97.12C618.118 98.248 619.03 98.812 620.278 98.812C621.574 98.812 622.498 98.284 623.05 97.228C623.602 96.148 623.878 94.792 623.878 93.16C623.878 91.528 623.59 90.1 623.014 88.876C622.438 87.652 621.526 87.04 620.278 87.04ZM642.274 85.24L648.43 109H644.182L642.742 102.952H635.686L634.282 109H630.322L636.91 85.24H642.274ZM636.334 100.288H642.13L639.214 87.94L636.334 100.288ZM666.968 85.24L667.22 87.868L657.284 109.792L652.532 109L663.08 88.624L649.724 88.66L649.976 85.24H666.968Z" fill="white"/>
<path d="M297.852 85.132C298.38 85.132 298.836 85.252 299.22 85.492V91.324H303.252C303.468 91.804 303.576 92.224 303.576 92.584C303.576 93.136 303.42 93.58 303.108 93.916C302.82 94.228 302.4 94.384 301.848 94.384H299.22V99.532H303.252C303.468 100.012 303.576 100.432 303.576 100.792C303.576 101.344 303.42 101.788 303.108 102.124C302.82 102.436 302.4 102.592 301.848 102.592H299.22V107.128C299.22 107.752 299.04 108.22 298.68 108.532C298.344 108.844 297.864 109 297.24 109C296.688 109 296.22 108.88 295.836 108.64V102.592H291.768V107.128C291.768 107.752 291.588 108.22 291.228 108.532C290.868 108.844 290.376 109 289.752 109C289.224 109 288.768 108.88 288.384 108.64V102.592H284.316C284.1 102.112 283.992 101.692 283.992 101.332C283.992 100.78 284.148 100.348 284.46 100.036C284.772 99.7 285.204 99.532 285.756 99.532H288.384V94.384H284.316C284.1 93.904 283.992 93.484 283.992 93.124C283.992 92.572 284.148 92.14 284.46 91.828C284.772 91.492 285.204 91.324 285.756 91.324H288.384V87.004C288.384 86.38 288.552 85.912 288.888 85.6C289.248 85.288 289.74 85.132 290.364 85.132C290.916 85.132 291.384 85.252 291.768 85.492V91.324H295.836V87.004C295.836 86.38 296.016 85.912 296.376 85.6C296.736 85.288 297.228 85.132 297.852 85.132ZM295.836 94.384H291.768V99.532H295.836V94.384ZM311.965 84.556C314.437 84.556 316.405 85.036 317.869 85.996C319.357 86.956 320.101 88.408 320.101 90.352C320.101 91.672 319.729 92.86 318.985 93.916C318.265 94.972 317.281 95.788 316.033 96.364C317.641 96.676 318.925 97.336 319.885 98.344C320.869 99.352 321.361 100.624 321.361 102.16C321.361 103.696 320.953 105.04 320.137 106.192C319.321 107.344 318.181 108.232 316.717 108.856C315.253 109.48 313.561 109.792 311.641 109.792C309.673 109.792 308.005 109.408 306.637 108.64C305.269 107.848 304.585 106.648 304.585 105.04C304.585 104.08 304.885 103.456 305.485 103.168C306.565 105.376 308.593 106.48 311.569 106.48C313.273 106.48 314.569 106.12 315.457 105.4C316.369 104.68 316.825 103.6 316.825 102.16C316.825 100.744 316.357 99.7 315.421 99.028C314.485 98.356 313.201 98.02 311.569 98.02C310.945 98.02 310.345 98.056 309.769 98.128V95.86C311.545 95.812 312.997 95.404 314.125 94.636C315.253 93.868 315.817 92.728 315.817 91.216C315.817 90.112 315.409 89.284 314.593 88.732C313.801 88.156 312.673 87.868 311.209 87.868C309.985 87.868 308.953 88.168 308.113 88.768C307.273 89.368 306.673 90.256 306.313 91.432C305.809 91.264 305.449 91.012 305.233 90.676C305.017 90.316 304.909 89.86 304.909 89.308C304.909 88.276 305.257 87.4 305.953 86.68C306.649 85.96 307.537 85.432 308.617 85.096C309.697 84.736 310.813 84.556 311.965 84.556ZM334.538 84.52C335.834 84.52 336.986 84.796 337.994 85.348C339.026 85.9 339.542 86.692 339.542 87.724C339.542 88.06 339.458 88.348 339.29 88.588C339.146 88.828 338.918 89.056 338.606 89.272C337.646 88.288 336.386 87.796 334.826 87.796C332.858 87.796 331.382 88.528 330.398 89.992C329.438 91.432 328.91 93.34 328.814 95.716C329.198 94.804 329.882 94.096 330.866 93.592C331.874 93.088 332.978 92.836 334.178 92.836C336.314 92.836 337.958 93.604 339.11 95.14C340.262 96.652 340.838 98.572 340.838 100.9C340.838 102.58 340.502 104.104 339.83 105.472C339.182 106.816 338.246 107.872 337.022 108.64C335.798 109.408 334.37 109.792 332.738 109.792C327.146 109.792 324.35 105.844 324.35 97.948C324.35 95.596 324.734 93.4 325.502 91.36C326.27 89.296 327.422 87.64 328.958 86.392C330.494 85.144 332.354 84.52 334.538 84.52ZM332.738 95.5C331.562 95.5 330.686 96.04 330.11 97.12C329.558 98.176 329.234 99.52 329.138 101.152C329.21 102.832 329.522 104.272 330.074 105.472C330.626 106.672 331.514 107.272 332.738 107.272C333.986 107.272 334.886 106.66 335.438 105.436C336.014 104.212 336.302 102.784 336.302 101.152C336.302 99.712 336.002 98.416 335.402 97.264C334.802 96.088 333.914 95.5 332.738 95.5ZM359.666 90.172C359.666 91.444 359.246 92.584 358.406 93.592C357.566 94.576 356.474 95.428 355.13 96.148C356.786 97.108 358.118 98.14 359.126 99.244C360.134 100.348 360.638 101.644 360.638 103.132C360.638 105.388 359.87 107.068 358.334 108.172C356.798 109.252 354.758 109.792 352.214 109.792C349.742 109.792 347.726 109.24 346.166 108.136C344.606 107.008 343.826 105.352 343.826 103.168C343.826 101.8 344.294 100.54 345.23 99.388C346.19 98.236 347.39 97.324 348.83 96.652C347.51 95.692 346.478 94.744 345.734 93.808C344.99 92.848 344.618 91.756 344.618 90.532C344.618 88.588 345.338 87.1 346.778 86.068C348.218 85.036 350.042 84.52 352.25 84.52C354.434 84.52 356.21 84.988 357.578 85.924C358.97 86.86 359.666 88.276 359.666 90.172ZM349.334 90.172C349.334 91.06 349.658 91.864 350.306 92.584C350.954 93.28 351.878 94.024 353.078 94.816C353.798 94.264 354.35 93.592 354.734 92.8C355.142 91.984 355.346 91.108 355.346 90.172C355.346 89.236 355.058 88.48 354.482 87.904C353.906 87.328 353.162 87.04 352.25 87.04C351.338 87.04 350.618 87.328 350.09 87.904C349.586 88.456 349.334 89.212 349.334 90.172ZM355.922 103.528C355.922 102.808 355.694 102.136 355.238 101.512C354.782 100.888 354.23 100.336 353.582 99.856C352.934 99.376 352.01 98.764 350.81 98.02C350.066 98.668 349.478 99.448 349.046 100.36C348.614 101.272 348.398 102.208 348.398 103.168C348.398 104.44 348.722 105.448 349.37 106.192C350.042 106.912 350.99 107.272 352.214 107.272C353.414 107.272 354.326 106.948 354.95 106.3C355.598 105.652 355.922 104.728 355.922 103.528ZM370.683 84.52C373.299 84.52 375.351 85.108 376.839 86.284C378.351 87.46 379.107 89.176 379.107 91.432C379.107 92.752 378.819 94.012 378.243 95.212C377.691 96.412 376.743 97.732 375.399 99.172C374.079 100.612 372.183 102.364 369.711 104.428C369.279 104.788 368.847 105.184 368.415 105.616L379.611 105.58L379.359 109H363.231L362.979 106.372C365.451 104.452 367.983 102.124 370.575 99.388C371.871 97.9 372.855 96.556 373.527 95.356C374.223 94.156 374.571 92.86 374.571 91.468C374.571 90.316 374.175 89.428 373.383 88.804C372.591 88.156 371.571 87.832 370.323 87.832C367.611 87.832 365.703 89.38 364.599 92.476C364.119 92.26 363.783 91.936 363.591 91.504C363.399 91.072 363.267 90.448 363.195 89.632C363.315 88.552 363.747 87.628 364.491 86.86C365.235 86.092 366.159 85.516 367.263 85.132C368.367 84.724 369.507 84.52 370.683 84.52ZM399.987 85.24L400.239 87.868L390.303 109.792L385.551 109L396.099 88.624L382.743 88.66L382.995 85.24H399.987ZM415.144 85.24V87.904H407.296V95.968H414.064V98.632H407.296V109H403.084V85.24H415.144Z" fill="white"/>
</svg>
