<svg width="438" height="490" viewBox="0 0 438 490" fill="none" xmlns="http://www.w3.org/2000/svg">
<rect x="438" width="74" height="437.999" transform="rotate(90 438 0)" fill="#F6BD60"/>
<rect x="438" y="312" width="74" height="437.999" transform="rotate(90 438 312)" fill="#0F4C5C"/>
<rect x="438" y="104" width="74" height="437.999" transform="rotate(90 438 104)" fill="#36827F"/>
<rect x="438" y="208" width="74" height="437.999" transform="rotate(90 438 208)" fill="#0D79A7"/>
<rect x="438" y="416" width="74" height="437.999" transform="rotate(90 438 416)" fill="#5F0F40"/>
<path d="M165.948 25.132C166.476 25.132 166.932 25.252 167.316 25.492V31.324H171.348C171.564 31.804 171.672 32.224 171.672 32.584C171.672 33.136 171.516 33.58 171.204 33.916C170.916 34.228 170.496 34.384 169.944 34.384H167.316V39.532H171.348C171.564 40.012 171.672 40.432 171.672 40.792C171.672 41.344 171.516 41.788 171.204 42.124C170.916 42.436 170.496 42.592 169.944 42.592H167.316V47.128C167.316 47.752 167.136 48.22 166.776 48.532C166.44 48.844 165.96 49 165.336 49C164.784 49 164.316 48.88 163.932 48.64V42.592H159.864V47.128C159.864 47.752 159.684 48.22 159.324 48.532C158.964 48.844 158.472 49 157.848 49C157.32 49 156.864 48.88 156.48 48.64V42.592H152.412C152.196 42.112 152.088 41.692 152.088 41.332C152.088 40.78 152.244 40.348 152.556 40.036C152.868 39.7 153.3 39.532 153.852 39.532H156.48V34.384H152.412C152.196 33.904 152.088 33.484 152.088 33.124C152.088 32.572 152.244 32.14 152.556 31.828C152.868 31.492 153.3 31.324 153.852 31.324H156.48V27.004C156.48 26.38 156.648 25.912 156.984 25.6C157.344 25.288 157.836 25.132 158.46 25.132C159.012 25.132 159.48 25.252 159.864 25.492V31.324H163.932V27.004C163.932 26.38 164.112 25.912 164.472 25.6C164.832 25.288 165.324 25.132 165.948 25.132ZM163.932 34.384H159.864V39.532H163.932V34.384ZM185.857 25.24V27.904H178.009V35.968H184.777V38.632H178.009V49H173.797V25.24H185.857ZM198.168 24.52C199.464 24.52 200.616 24.796 201.624 25.348C202.656 25.9 203.172 26.692 203.172 27.724C203.172 28.06 203.088 28.348 202.92 28.588C202.776 28.828 202.548 29.056 202.236 29.272C201.276 28.288 200.016 27.796 198.456 27.796C196.488 27.796 195.012 28.528 194.028 29.992C193.068 31.432 192.54 33.34 192.444 35.716C192.828 34.804 193.512 34.096 194.496 33.592C195.504 33.088 196.608 32.836 197.808 32.836C199.944 32.836 201.588 33.604 202.74 35.14C203.892 36.652 204.468 38.572 204.468 40.9C204.468 42.58 204.132 44.104 203.46 45.472C202.812 46.816 201.876 47.872 200.652 48.64C199.428 49.408 198 49.792 196.368 49.792C190.776 49.792 187.98 45.844 187.98 37.948C187.98 35.596 188.364 33.4 189.132 31.36C189.9 29.296 191.052 27.64 192.588 26.392C194.124 25.144 195.984 24.52 198.168 24.52ZM196.368 35.5C195.192 35.5 194.316 36.04 193.74 37.12C193.188 38.176 192.864 39.52 192.768 41.152C192.84 42.832 193.152 44.272 193.704 45.472C194.256 46.672 195.144 47.272 196.368 47.272C197.616 47.272 198.516 46.66 199.068 45.436C199.644 44.212 199.932 42.784 199.932 41.152C199.932 39.712 199.632 38.416 199.032 37.264C198.432 36.088 197.544 35.5 196.368 35.5ZM222.865 30.712C222.865 31.72 222.565 32.68 221.965 33.592C221.365 34.48 220.597 35.188 219.661 35.716C221.245 36.028 222.457 36.748 223.297 37.876C224.161 39.004 224.593 40.396 224.593 42.052C224.593 43.66 224.149 45.016 223.261 46.12C222.373 47.2 221.185 48.016 219.697 48.568C218.233 49.096 216.637 49.36 214.909 49.36C212.893 49.36 210.685 49.18 208.285 48.82V25.384C211.117 25.192 213.373 25.096 215.053 25.096C217.501 25.096 219.409 25.516 220.777 26.356C222.169 27.196 222.865 28.648 222.865 30.712ZM212.497 34.996C213.049 35.068 213.661 35.104 214.333 35.104C215.749 35.104 216.805 34.78 217.501 34.132C218.197 33.484 218.545 32.464 218.545 31.072C218.545 28.768 217.297 27.616 214.801 27.616C214.057 27.616 213.289 27.676 212.497 27.796V34.996ZM212.497 46.624C213.361 46.768 214.165 46.84 214.909 46.84C216.589 46.84 217.873 46.456 218.761 45.688C219.673 44.92 220.129 43.744 220.129 42.16C220.129 40.36 219.637 39.148 218.653 38.524C217.693 37.876 216.181 37.552 214.117 37.552C213.469 37.552 212.929 37.588 212.497 37.66V46.624ZM227.726 25.384C230.558 25.192 233.054 25.096 235.214 25.096C241.502 25.096 244.646 28.912 244.646 36.544C244.646 45.088 241.214 49.36 234.35 49.36C232.334 49.36 230.126 49.18 227.726 48.82V25.384ZM234.35 46.84C236.03 46.84 237.302 46.42 238.166 45.58C239.03 44.74 239.594 43.636 239.858 42.268C240.122 40.876 240.254 39.136 240.254 37.048C240.254 34.264 239.882 31.996 239.138 30.244C238.394 28.492 237.002 27.616 234.962 27.616C234.074 27.616 233.066 27.676 231.938 27.796V46.624C232.802 46.768 233.606 46.84 234.35 46.84ZM257.407 24.52C258.703 24.52 259.855 24.796 260.863 25.348C261.895 25.9 262.411 26.692 262.411 27.724C262.411 28.06 262.327 28.348 262.159 28.588C262.015 28.828 261.787 29.056 261.475 29.272C260.515 28.288 259.255 27.796 257.695 27.796C255.727 27.796 254.251 28.528 253.267 29.992C252.307 31.432 251.779 33.34 251.683 35.716C252.067 34.804 252.751 34.096 253.735 33.592C254.743 33.088 255.847 32.836 257.047 32.836C259.183 32.836 260.827 33.604 261.979 35.14C263.131 36.652 263.707 38.572 263.707 40.9C263.707 42.58 263.371 44.104 262.699 45.472C262.051 46.816 261.115 47.872 259.891 48.64C258.667 49.408 257.239 49.792 255.607 49.792C250.015 49.792 247.219 45.844 247.219 37.948C247.219 35.596 247.603 33.4 248.371 31.36C249.139 29.296 250.291 27.64 251.827 26.392C253.363 25.144 255.223 24.52 257.407 24.52ZM255.607 35.5C254.431 35.5 253.555 36.04 252.979 37.12C252.427 38.176 252.103 39.52 252.007 41.152C252.079 42.832 252.391 44.272 252.943 45.472C253.495 46.672 254.383 47.272 255.607 47.272C256.855 47.272 257.755 46.66 258.307 45.436C258.883 44.212 259.171 42.784 259.171 41.152C259.171 39.712 258.871 38.416 258.271 37.264C257.671 36.088 256.783 35.5 255.607 35.5ZM275.047 24.52C278.071 24.52 280.231 25.66 281.527 27.94C282.823 30.196 283.471 33.148 283.471 36.796C283.471 40.516 282.811 43.612 281.491 46.084C280.195 48.556 278.047 49.792 275.047 49.792C272.047 49.792 269.899 48.628 268.603 46.3C267.331 43.948 266.695 40.924 266.695 37.228C266.695 33.532 267.331 30.496 268.603 28.12C269.899 25.72 272.047 24.52 275.047 24.52ZM275.047 47.272C276.631 47.272 277.675 46.36 278.179 44.536C278.683 42.712 278.935 40.216 278.935 37.048C278.935 34.096 278.671 31.696 278.143 29.848C277.639 27.976 276.607 27.04 275.047 27.04C273.511 27.04 272.491 27.964 271.987 29.812C271.483 31.66 271.231 34.072 271.231 37.048C271.231 40.216 271.471 42.712 271.951 44.536C272.455 46.36 273.487 47.272 275.047 47.272Z" fill="black"/>
<path d="M166.852 129.132C167.38 129.132 167.836 129.252 168.22 129.492V135.324H172.252C172.468 135.804 172.576 136.224 172.576 136.584C172.576 137.136 172.42 137.58 172.108 137.916C171.82 138.228 171.4 138.384 170.848 138.384H168.22V143.532H172.252C172.468 144.012 172.576 144.432 172.576 144.792C172.576 145.344 172.42 145.788 172.108 146.124C171.82 146.436 171.4 146.592 170.848 146.592H168.22V151.128C168.22 151.752 168.04 152.22 167.68 152.532C167.344 152.844 166.864 153 166.24 153C165.688 153 165.22 152.88 164.836 152.64V146.592H160.768V151.128C160.768 151.752 160.588 152.22 160.228 152.532C159.868 152.844 159.376 153 158.752 153C158.224 153 157.768 152.88 157.384 152.64V146.592H153.316C153.1 146.112 152.992 145.692 152.992 145.332C152.992 144.78 153.148 144.348 153.46 144.036C153.772 143.7 154.204 143.532 154.756 143.532H157.384V138.384H153.316C153.1 137.904 152.992 137.484 152.992 137.124C152.992 136.572 153.148 136.14 153.46 135.828C153.772 135.492 154.204 135.324 154.756 135.324H157.384V131.004C157.384 130.38 157.552 129.912 157.888 129.6C158.248 129.288 158.74 129.132 159.364 129.132C159.916 129.132 160.384 129.252 160.768 129.492V135.324H164.836V131.004C164.836 130.38 165.016 129.912 165.376 129.6C165.736 129.288 166.228 129.132 166.852 129.132ZM164.836 138.384H160.768V143.532H164.836V138.384ZM180.965 128.556C183.437 128.556 185.405 129.036 186.869 129.996C188.357 130.956 189.101 132.408 189.101 134.352C189.101 135.672 188.729 136.86 187.985 137.916C187.265 138.972 186.281 139.788 185.033 140.364C186.641 140.676 187.925 141.336 188.885 142.344C189.869 143.352 190.361 144.624 190.361 146.16C190.361 147.696 189.953 149.04 189.137 150.192C188.321 151.344 187.181 152.232 185.717 152.856C184.253 153.48 182.561 153.792 180.641 153.792C178.673 153.792 177.005 153.408 175.637 152.64C174.269 151.848 173.585 150.648 173.585 149.04C173.585 148.08 173.885 147.456 174.485 147.168C175.565 149.376 177.593 150.48 180.569 150.48C182.273 150.48 183.569 150.12 184.457 149.4C185.369 148.68 185.825 147.6 185.825 146.16C185.825 144.744 185.357 143.7 184.421 143.028C183.485 142.356 182.201 142.02 180.569 142.02C179.945 142.02 179.345 142.056 178.769 142.128V139.86C180.545 139.812 181.997 139.404 183.125 138.636C184.253 137.868 184.817 136.728 184.817 135.216C184.817 134.112 184.409 133.284 183.593 132.732C182.801 132.156 181.673 131.868 180.209 131.868C178.985 131.868 177.953 132.168 177.113 132.768C176.273 133.368 175.673 134.256 175.313 135.432C174.809 135.264 174.449 135.012 174.233 134.676C174.017 134.316 173.909 133.86 173.909 133.308C173.909 132.276 174.257 131.4 174.953 130.68C175.649 129.96 176.537 129.432 177.617 129.096C178.697 128.736 179.813 128.556 180.965 128.556ZM203.538 128.52C204.834 128.52 205.986 128.796 206.994 129.348C208.026 129.9 208.542 130.692 208.542 131.724C208.542 132.06 208.458 132.348 208.29 132.588C208.146 132.828 207.918 133.056 207.606 133.272C206.646 132.288 205.386 131.796 203.826 131.796C201.858 131.796 200.382 132.528 199.398 133.992C198.438 135.432 197.91 137.34 197.814 139.716C198.198 138.804 198.882 138.096 199.866 137.592C200.874 137.088 201.978 136.836 203.178 136.836C205.314 136.836 206.958 137.604 208.11 139.14C209.262 140.652 209.838 142.572 209.838 144.9C209.838 146.58 209.502 148.104 208.83 149.472C208.182 150.816 207.246 151.872 206.022 152.64C204.798 153.408 203.37 153.792 201.738 153.792C196.146 153.792 193.35 149.844 193.35 141.948C193.35 139.596 193.734 137.4 194.502 135.36C195.27 133.296 196.422 131.64 197.958 130.392C199.494 129.144 201.354 128.52 203.538 128.52ZM201.738 139.5C200.562 139.5 199.686 140.04 199.11 141.12C198.558 142.176 198.234 143.52 198.138 145.152C198.21 146.832 198.522 148.272 199.074 149.472C199.626 150.672 200.514 151.272 201.738 151.272C202.986 151.272 203.886 150.66 204.438 149.436C205.014 148.212 205.302 146.784 205.302 145.152C205.302 143.712 205.002 142.416 204.402 141.264C203.802 140.088 202.914 139.5 201.738 139.5ZM228.666 134.172C228.666 135.444 228.246 136.584 227.406 137.592C226.566 138.576 225.474 139.428 224.13 140.148C225.786 141.108 227.118 142.14 228.126 143.244C229.134 144.348 229.638 145.644 229.638 147.132C229.638 149.388 228.87 151.068 227.334 152.172C225.798 153.252 223.758 153.792 221.214 153.792C218.742 153.792 216.726 153.24 215.166 152.136C213.606 151.008 212.826 149.352 212.826 147.168C212.826 145.8 213.294 144.54 214.23 143.388C215.19 142.236 216.39 141.324 217.83 140.652C216.51 139.692 215.478 138.744 214.734 137.808C213.99 136.848 213.618 135.756 213.618 134.532C213.618 132.588 214.338 131.1 215.778 130.068C217.218 129.036 219.042 128.52 221.25 128.52C223.434 128.52 225.21 128.988 226.578 129.924C227.97 130.86 228.666 132.276 228.666 134.172ZM218.334 134.172C218.334 135.06 218.658 135.864 219.306 136.584C219.954 137.28 220.878 138.024 222.078 138.816C222.798 138.264 223.35 137.592 223.734 136.8C224.142 135.984 224.346 135.108 224.346 134.172C224.346 133.236 224.058 132.48 223.482 131.904C222.906 131.328 222.162 131.04 221.25 131.04C220.338 131.04 219.618 131.328 219.09 131.904C218.586 132.456 218.334 133.212 218.334 134.172ZM224.922 147.528C224.922 146.808 224.694 146.136 224.238 145.512C223.782 144.888 223.23 144.336 222.582 143.856C221.934 143.376 221.01 142.764 219.81 142.02C219.066 142.668 218.478 143.448 218.046 144.36C217.614 145.272 217.398 146.208 217.398 147.168C217.398 148.44 217.722 149.448 218.37 150.192C219.042 150.912 219.99 151.272 221.214 151.272C222.414 151.272 223.326 150.948 223.95 150.3C224.598 149.652 224.922 148.728 224.922 147.528ZM239.683 128.52C242.299 128.52 244.351 129.108 245.839 130.284C247.351 131.46 248.107 133.176 248.107 135.432C248.107 136.752 247.819 138.012 247.243 139.212C246.691 140.412 245.743 141.732 244.399 143.172C243.079 144.612 241.183 146.364 238.711 148.428C238.279 148.788 237.847 149.184 237.415 149.616L248.611 149.58L248.359 153H232.231L231.979 150.372C234.451 148.452 236.983 146.124 239.575 143.388C240.871 141.9 241.855 140.556 242.527 139.356C243.223 138.156 243.571 136.86 243.571 135.468C243.571 134.316 243.175 133.428 242.383 132.804C241.591 132.156 240.571 131.832 239.323 131.832C236.611 131.832 234.703 133.38 233.599 136.476C233.119 136.26 232.783 135.936 232.591 135.504C232.399 135.072 232.267 134.448 232.195 133.632C232.315 132.552 232.747 131.628 233.491 130.86C234.235 130.092 235.159 129.516 236.263 129.132C237.367 128.724 238.507 128.52 239.683 128.52ZM268.987 129.24L269.239 131.868L259.303 153.792L254.551 153L265.099 132.624L251.743 132.66L251.995 129.24H268.987ZM284.144 129.24V131.904H276.296V139.968H283.064V142.632H276.296V153H272.084V129.24H284.144Z" fill="white"/>
<path d="M164.884 237.132C165.412 237.132 165.868 237.252 166.252 237.492V243.324H170.284C170.5 243.804 170.608 244.224 170.608 244.584C170.608 245.136 170.452 245.58 170.14 245.916C169.852 246.228 169.432 246.384 168.88 246.384H166.252V251.532H170.284C170.5 252.012 170.608 252.432 170.608 252.792C170.608 253.344 170.452 253.788 170.14 254.124C169.852 254.436 169.432 254.592 168.88 254.592H166.252V259.128C166.252 259.752 166.072 260.22 165.712 260.532C165.376 260.844 164.896 261 164.272 261C163.72 261 163.252 260.88 162.868 260.64V254.592H158.8V259.128C158.8 259.752 158.62 260.22 158.26 260.532C157.9 260.844 157.408 261 156.784 261C156.256 261 155.8 260.88 155.416 260.64V254.592H151.348C151.132 254.112 151.024 253.692 151.024 253.332C151.024 252.78 151.18 252.348 151.492 252.036C151.804 251.7 152.236 251.532 152.788 251.532H155.416V246.384H151.348C151.132 245.904 151.024 245.484 151.024 245.124C151.024 244.572 151.18 244.14 151.492 243.828C151.804 243.492 152.236 243.324 152.788 243.324H155.416V239.004C155.416 238.38 155.584 237.912 155.92 237.6C156.28 237.288 156.772 237.132 157.396 237.132C157.948 237.132 158.416 237.252 158.8 237.492V243.324H162.868V239.004C162.868 238.38 163.048 237.912 163.408 237.6C163.768 237.288 164.26 237.132 164.884 237.132ZM162.868 246.384H158.8V251.532H162.868V246.384ZM180.256 236.52C183.28 236.52 185.44 237.66 186.736 239.94C188.032 242.196 188.68 245.148 188.68 248.796C188.68 252.516 188.02 255.612 186.7 258.084C185.404 260.556 183.256 261.792 180.256 261.792C177.256 261.792 175.108 260.628 173.812 258.3C172.54 255.948 171.904 252.924 171.904 249.228C171.904 245.532 172.54 242.496 173.812 240.12C175.108 237.72 177.256 236.52 180.256 236.52ZM180.256 259.272C181.84 259.272 182.884 258.36 183.388 256.536C183.892 254.712 184.144 252.216 184.144 249.048C184.144 246.096 183.88 243.696 183.352 241.848C182.848 239.976 181.816 239.04 180.256 239.04C178.72 239.04 177.7 239.964 177.196 241.812C176.692 243.66 176.44 246.072 176.44 249.048C176.44 252.216 176.68 254.712 177.16 256.536C177.664 258.36 178.696 259.272 180.256 259.272ZM192.209 237.384C195.041 237.192 197.537 237.096 199.697 237.096C205.985 237.096 209.129 240.912 209.129 248.544C209.129 257.088 205.697 261.36 198.833 261.36C196.817 261.36 194.609 261.18 192.209 260.82V237.384ZM198.833 258.84C200.513 258.84 201.785 258.42 202.649 257.58C203.513 256.74 204.077 255.636 204.341 254.268C204.605 252.876 204.737 251.136 204.737 249.048C204.737 246.264 204.365 243.996 203.621 242.244C202.877 240.492 201.485 239.616 199.445 239.616C198.557 239.616 197.549 239.676 196.421 239.796V258.624C197.285 258.768 198.089 258.84 198.833 258.84ZM228.909 237.24L229.161 239.868L219.225 261.792L214.473 261L225.021 240.624L211.665 240.66L211.917 237.24H228.909ZM239.278 236.52C244.87 236.52 247.666 240.468 247.666 248.364C247.666 250.716 247.282 252.924 246.514 254.988C245.746 257.028 244.594 258.672 243.058 259.92C241.522 261.168 239.662 261.792 237.478 261.792C236.182 261.792 235.018 261.516 233.986 260.964C232.978 260.412 232.474 259.62 232.474 258.588C232.474 258.252 232.546 257.964 232.69 257.724C232.858 257.484 233.098 257.256 233.41 257.04C234.37 258.024 235.63 258.516 237.19 258.516C239.206 258.516 240.682 257.796 241.618 256.356C242.578 254.916 243.106 252.996 243.202 250.596C242.746 251.532 242.038 252.252 241.078 252.756C240.118 253.236 239.038 253.476 237.838 253.476C235.702 253.476 234.058 252.72 232.906 251.208C231.754 249.672 231.178 247.74 231.178 245.412C231.178 243.732 231.502 242.22 232.15 240.876C232.822 239.508 233.77 238.44 234.994 237.672C236.218 236.904 237.646 236.52 239.278 236.52ZM239.278 239.04C238.03 239.04 237.118 239.652 236.542 240.876C235.99 242.1 235.714 243.528 235.714 245.16C235.714 246.648 235.99 247.968 236.542 249.12C237.118 250.248 238.03 250.812 239.278 250.812C240.574 250.812 241.498 250.284 242.05 249.228C242.602 248.148 242.878 246.792 242.878 245.16C242.878 243.528 242.59 242.1 242.014 240.876C241.438 239.652 240.526 239.04 239.278 239.04ZM261.274 237.24L267.43 261H263.182L261.742 254.952H254.686L253.282 261H249.322L255.91 237.24H261.274ZM255.334 252.288H261.13L258.214 239.94L255.334 252.288ZM285.968 237.24L286.22 239.868L276.284 261.792L271.532 261L282.08 240.624L268.724 240.66L268.976 237.24H285.968Z" fill="white"/>
<path d="M167.907 336.132C168.435 336.132 168.891 336.252 169.275 336.492V342.324H173.307C173.523 342.804 173.631 343.224 173.631 343.584C173.631 344.136 173.475 344.58 173.163 344.916C172.875 345.228 172.455 345.384 171.903 345.384H169.275V350.532H173.307C173.523 351.012 173.631 351.432 173.631 351.792C173.631 352.344 173.475 352.788 173.163 353.124C172.875 353.436 172.455 353.592 171.903 353.592H169.275V358.128C169.275 358.752 169.095 359.22 168.735 359.532C168.399 359.844 167.919 360 167.295 360C166.743 360 166.275 359.88 165.891 359.64V353.592H161.823V358.128C161.823 358.752 161.643 359.22 161.283 359.532C160.923 359.844 160.431 360 159.807 360C159.279 360 158.823 359.88 158.439 359.64V353.592H154.371C154.155 353.112 154.047 352.692 154.047 352.332C154.047 351.78 154.203 351.348 154.515 351.036C154.827 350.7 155.259 350.532 155.811 350.532H158.439V345.384H154.371C154.155 344.904 154.047 344.484 154.047 344.124C154.047 343.572 154.203 343.14 154.515 342.828C154.827 342.492 155.259 342.324 155.811 342.324H158.439V338.004C158.439 337.38 158.607 336.912 158.943 336.6C159.303 336.288 159.795 336.132 160.419 336.132C160.971 336.132 161.439 336.252 161.823 336.492V342.324H165.891V338.004C165.891 337.38 166.071 336.912 166.431 336.6C166.791 336.288 167.283 336.132 167.907 336.132ZM165.891 345.384H161.823V350.532H165.891V345.384ZM183.28 335.52C186.304 335.52 188.464 336.66 189.76 338.94C191.056 341.196 191.704 344.148 191.704 347.796C191.704 351.516 191.044 354.612 189.724 357.084C188.428 359.556 186.28 360.792 183.28 360.792C180.28 360.792 178.132 359.628 176.836 357.3C175.564 354.948 174.928 351.924 174.928 348.228C174.928 344.532 175.564 341.496 176.836 339.12C178.132 336.72 180.28 335.52 183.28 335.52ZM183.28 358.272C184.864 358.272 185.908 357.36 186.412 355.536C186.916 353.712 187.168 351.216 187.168 348.048C187.168 345.096 186.904 342.696 186.376 340.848C185.872 338.976 184.84 338.04 183.28 338.04C181.744 338.04 180.724 338.964 180.22 340.812C179.716 342.66 179.464 345.072 179.464 348.048C179.464 351.216 179.704 353.712 180.184 355.536C180.688 357.36 181.72 358.272 183.28 358.272ZM207.292 336.24V338.904H199.444V346.968H206.212V349.632H199.444V360H195.232V336.24H207.292ZM223.78 352.152H226.984L226.732 354.816H223.78V360H219.568V354.816H209.776C209.368 354.816 209.044 354.684 208.804 354.42C208.564 354.132 208.444 353.76 208.444 353.304C208.444 352.776 208.708 352.104 209.236 351.288L219.568 336.24H223.78V352.152ZM219.568 341.28L212.08 352.152H219.568V341.28ZM237.821 338.04C235.997 338.04 234.785 339 234.185 340.92C233.609 342.816 233.321 345.192 233.321 348.048C233.321 350.904 233.633 353.196 234.257 354.924C234.881 356.628 236.189 357.48 238.181 357.48C239.429 357.48 240.497 357.132 241.385 356.436C242.273 355.74 242.909 354.78 243.293 353.556C243.797 353.724 244.157 353.988 244.373 354.348C244.589 354.684 244.697 355.128 244.697 355.68C244.697 356.76 244.361 357.684 243.689 358.452C243.041 359.22 242.189 359.796 241.133 360.18C240.101 360.588 238.997 360.792 237.821 360.792C234.557 360.792 232.229 359.664 230.837 357.408C229.469 355.152 228.785 352.092 228.785 348.228C228.785 344.388 229.517 341.316 230.981 339.012C232.469 336.684 234.857 335.52 238.145 335.52C240.257 335.52 241.937 335.94 243.185 336.78C244.457 337.62 245.093 338.952 245.093 340.776C245.093 341.64 244.841 342.348 244.337 342.9C243.833 343.428 243.149 343.692 242.285 343.692C241.445 343.692 240.821 343.5 240.413 343.116C240.605 342.588 240.701 341.988 240.701 341.316C240.701 339.132 239.741 338.04 237.821 338.04ZM262.074 339.876H251.958L251.526 345.672C252.606 345.552 253.71 345.492 254.838 345.492C260.67 345.492 263.586 347.928 263.586 352.8C263.586 354.336 263.19 355.716 262.398 356.94C261.606 358.14 260.502 359.088 259.086 359.784C257.694 360.456 256.134 360.792 254.406 360.792C252.246 360.792 250.458 360.396 249.042 359.604C247.65 358.812 246.954 357.624 246.954 356.04C246.954 355.08 247.254 354.456 247.854 354.168C248.982 356.376 251.118 357.48 254.262 357.48C255.774 357.48 256.95 357.072 257.79 356.256C258.63 355.44 259.05 354.288 259.05 352.8C259.05 351.24 258.474 350.1 257.322 349.38C256.194 348.66 254.646 348.3 252.678 348.3C251.406 348.3 249.882 348.468 248.106 348.804L249.042 336.24H261.822L262.074 339.876ZM275.719 338.04C273.895 338.04 272.683 339 272.083 340.92C271.507 342.816 271.219 345.192 271.219 348.048C271.219 350.904 271.531 353.196 272.155 354.924C272.779 356.628 274.087 357.48 276.079 357.48C277.327 357.48 278.395 357.132 279.283 356.436C280.171 355.74 280.807 354.78 281.191 353.556C281.695 353.724 282.055 353.988 282.271 354.348C282.487 354.684 282.595 355.128 282.595 355.68C282.595 356.76 282.259 357.684 281.587 358.452C280.939 359.22 280.087 359.796 279.031 360.18C277.999 360.588 276.895 360.792 275.719 360.792C272.455 360.792 270.127 359.664 268.735 357.408C267.367 355.152 266.683 352.092 266.683 348.228C266.683 344.388 267.415 341.316 268.879 339.012C270.367 336.684 272.755 335.52 276.043 335.52C278.155 335.52 279.835 335.94 281.083 336.78C282.355 337.62 282.991 338.952 282.991 340.776C282.991 341.64 282.739 342.348 282.235 342.9C281.731 343.428 281.047 343.692 280.183 343.692C279.343 343.692 278.719 343.5 278.311 343.116C278.503 342.588 278.599 341.988 278.599 341.316C278.599 339.132 277.639 338.04 275.719 338.04Z" fill="white"/>
<path d="M169.085 443.132C169.613 443.132 170.069 443.252 170.453 443.492V449.324H174.485C174.701 449.804 174.809 450.224 174.809 450.584C174.809 451.136 174.653 451.58 174.341 451.916C174.053 452.228 173.633 452.384 173.081 452.384H170.453V457.532H174.485C174.701 458.012 174.809 458.432 174.809 458.792C174.809 459.344 174.653 459.788 174.341 460.124C174.053 460.436 173.633 460.592 173.081 460.592H170.453V465.128C170.453 465.752 170.273 466.22 169.913 466.532C169.577 466.844 169.097 467 168.473 467C167.921 467 167.453 466.88 167.069 466.64V460.592H163.001V465.128C163.001 465.752 162.821 466.22 162.461 466.532C162.101 466.844 161.609 467 160.985 467C160.457 467 160.001 466.88 159.617 466.64V460.592H155.549C155.333 460.112 155.225 459.692 155.225 459.332C155.225 458.78 155.381 458.348 155.693 458.036C156.005 457.7 156.437 457.532 156.989 457.532H159.617V452.384H155.549C155.333 451.904 155.225 451.484 155.225 451.124C155.225 450.572 155.381 450.14 155.693 449.828C156.005 449.492 156.437 449.324 156.989 449.324H159.617V445.004C159.617 444.38 159.785 443.912 160.121 443.6C160.481 443.288 160.973 443.132 161.597 443.132C162.149 443.132 162.617 443.252 163.001 443.492V449.324H167.069V445.004C167.069 444.38 167.249 443.912 167.609 443.6C167.969 443.288 168.461 443.132 169.085 443.132ZM167.069 452.384H163.001V457.532H167.069V452.384ZM190.865 446.876H180.749L180.317 452.672C181.397 452.552 182.501 452.492 183.629 452.492C189.461 452.492 192.377 454.928 192.377 459.8C192.377 461.336 191.981 462.716 191.189 463.94C190.397 465.14 189.293 466.088 187.877 466.784C186.485 467.456 184.925 467.792 183.197 467.792C181.037 467.792 179.249 467.396 177.833 466.604C176.441 465.812 175.745 464.624 175.745 463.04C175.745 462.08 176.045 461.456 176.645 461.168C177.773 463.376 179.909 464.48 183.053 464.48C184.565 464.48 185.741 464.072 186.581 463.256C187.421 462.44 187.841 461.288 187.841 459.8C187.841 458.24 187.265 457.1 186.113 456.38C184.985 455.66 183.437 455.3 181.469 455.3C180.197 455.3 178.673 455.468 176.897 455.804L177.833 443.24H190.613L190.865 446.876ZM208.47 443.24V445.904H200.622V453.968H207.39V456.632H200.622V467H196.41V443.24H208.47ZM218.946 442.52C221.97 442.52 224.13 443.66 225.426 445.94C226.722 448.196 227.37 451.148 227.37 454.796C227.37 458.516 226.71 461.612 225.39 464.084C224.094 466.556 221.946 467.792 218.946 467.792C215.946 467.792 213.798 466.628 212.502 464.3C211.23 461.948 210.594 458.924 210.594 455.228C210.594 451.532 211.23 448.496 212.502 446.12C213.798 443.72 215.946 442.52 218.946 442.52ZM218.946 465.272C220.53 465.272 221.574 464.36 222.078 462.536C222.582 460.712 222.834 458.216 222.834 455.048C222.834 452.096 222.57 449.696 222.042 447.848C221.538 445.976 220.506 445.04 218.946 445.04C217.41 445.04 216.39 445.964 215.886 447.812C215.382 449.66 215.13 452.072 215.13 455.048C215.13 458.216 215.37 460.712 215.85 462.536C216.354 464.36 217.386 465.272 218.946 465.272ZM242.958 443.24V445.904H235.11V453.968H241.878V456.632H235.11V467H230.898V443.24H242.958ZM259.446 459.152H262.65L262.398 461.816H259.446V467H255.234V461.816H245.442C245.034 461.816 244.71 461.684 244.47 461.42C244.23 461.132 244.11 460.76 244.11 460.304C244.11 459.776 244.374 459.104 244.902 458.288L255.234 443.24H259.446V459.152ZM255.234 448.28L247.746 459.152H255.234V448.28ZM272.911 442.52C275.935 442.52 278.095 443.66 279.391 445.94C280.687 448.196 281.335 451.148 281.335 454.796C281.335 458.516 280.675 461.612 279.355 464.084C278.059 466.556 275.911 467.792 272.911 467.792C269.911 467.792 267.763 466.628 266.467 464.3C265.195 461.948 264.559 458.924 264.559 455.228C264.559 451.532 265.195 448.496 266.467 446.12C267.763 443.72 269.911 442.52 272.911 442.52ZM272.911 465.272C274.495 465.272 275.539 464.36 276.043 462.536C276.547 460.712 276.799 458.216 276.799 455.048C276.799 452.096 276.535 449.696 276.007 447.848C275.503 445.976 274.471 445.04 272.911 445.04C271.375 445.04 270.355 445.964 269.851 447.812C269.347 449.66 269.095 452.072 269.095 455.048C269.095 458.216 269.335 460.712 269.815 462.536C270.319 464.36 271.351 465.272 272.911 465.272Z" fill="white"/>
</svg>
