<svg width="438" height="490" viewBox="0 0 438 490" fill="none" xmlns="http://www.w3.org/2000/svg">
<rect x="437.999" width="74" height="437.999" rx="37" transform="rotate(90 437.999 0)" fill="#F6BD60"/>
<rect x="438" y="312" width="74" height="437.999" rx="37" transform="rotate(90 438 312)" fill="#0F4C5C"/>
<rect x="437.999" y="104" width="74" height="437.999" rx="37" transform="rotate(90 437.999 104)" fill="#36827F"/>
<rect x="438" y="208" width="74" height="437.999" rx="37" transform="rotate(90 438 208)" fill="#0D79A7"/>
<rect x="438" y="416" width="74" height="437.999" rx="37" transform="rotate(90 438 416)" fill="#5F0F40"/>
<path d="M165.948 25.132C166.476 25.132 166.932 25.252 167.316 25.492V31.324H171.348C171.564 31.804 171.672 32.224 171.672 32.584C171.672 33.136 171.516 33.58 171.204 33.916C170.916 34.228 170.496 34.384 169.944 34.384H167.316V39.532H171.348C171.564 40.012 171.672 40.432 171.672 40.792C171.672 41.344 171.516 41.788 171.204 42.124C170.916 42.436 170.496 42.592 169.944 42.592H167.316V47.128C167.316 47.752 167.136 48.22 166.776 48.532C166.44 48.844 165.96 49 165.336 49C164.784 49 164.316 48.88 163.932 48.64V42.592H159.864V47.128C159.864 47.752 159.684 48.22 159.324 48.532C158.964 48.844 158.472 49 157.848 49C157.32 49 156.864 48.88 156.48 48.64V42.592H152.412C152.196 42.112 152.088 41.692 152.088 41.332C152.088 40.78 152.244 40.348 152.556 40.036C152.868 39.7 153.3 39.532 153.852 39.532H156.48V34.384H152.412C152.196 33.904 152.088 33.484 152.088 33.124C152.088 32.572 152.244 32.14 152.556 31.828C152.868 31.492 153.3 31.324 153.852 31.324H156.48V27.004C156.48 26.38 156.648 25.912 156.984 25.6C157.344 25.288 157.836 25.132 158.46 25.132C159.012 25.132 159.48 25.252 159.864 25.492V31.324H163.932V27.004C163.932 26.38 164.112 25.912 164.472 25.6C164.832 25.288 165.324 25.132 165.948 25.132ZM163.932 34.384H159.864V39.532H163.932V34.384ZM185.856 25.24V27.904H178.008V35.968H184.776V38.632H178.008V49H173.796V25.24H185.856ZM198.168 24.52C199.464 24.52 200.616 24.796 201.624 25.348C202.656 25.9 203.172 26.692 203.172 27.724C203.172 28.06 203.088 28.348 202.92 28.588C202.776 28.828 202.548 29.056 202.236 29.272C201.276 28.288 200.016 27.796 198.456 27.796C196.488 27.796 195.012 28.528 194.028 29.992C193.068 31.432 192.54 33.34 192.444 35.716C192.828 34.804 193.512 34.096 194.496 33.592C195.504 33.088 196.608 32.836 197.808 32.836C199.944 32.836 201.588 33.604 202.74 35.14C203.892 36.652 204.468 38.572 204.468 40.9C204.468 42.58 204.132 44.104 203.46 45.472C202.812 46.816 201.876 47.872 200.652 48.64C199.428 49.408 198 49.792 196.368 49.792C190.776 49.792 187.98 45.844 187.98 37.948C187.98 35.596 188.364 33.4 189.132 31.36C189.9 29.296 191.052 27.64 192.588 26.392C194.124 25.144 195.984 24.52 198.168 24.52ZM196.368 35.5C195.192 35.5 194.316 36.04 193.74 37.12C193.188 38.176 192.864 39.52 192.768 41.152C192.84 42.832 193.152 44.272 193.704 45.472C194.256 46.672 195.144 47.272 196.368 47.272C197.616 47.272 198.516 46.66 199.068 45.436C199.644 44.212 199.932 42.784 199.932 41.152C199.932 39.712 199.632 38.416 199.032 37.264C198.432 36.088 197.544 35.5 196.368 35.5ZM222.865 30.712C222.865 31.72 222.565 32.68 221.965 33.592C221.365 34.48 220.597 35.188 219.661 35.716C221.245 36.028 222.457 36.748 223.297 37.876C224.161 39.004 224.593 40.396 224.593 42.052C224.593 43.66 224.149 45.016 223.261 46.12C222.373 47.2 221.185 48.016 219.697 48.568C218.233 49.096 216.637 49.36 214.909 49.36C212.893 49.36 210.685 49.18 208.285 48.82V25.384C211.117 25.192 213.373 25.096 215.053 25.096C217.501 25.096 219.409 25.516 220.777 26.356C222.169 27.196 222.865 28.648 222.865 30.712ZM212.497 34.996C213.049 35.068 213.661 35.104 214.333 35.104C215.749 35.104 216.805 34.78 217.501 34.132C218.197 33.484 218.545 32.464 218.545 31.072C218.545 28.768 217.297 27.616 214.801 27.616C214.057 27.616 213.289 27.676 212.497 27.796V34.996ZM212.497 46.624C213.361 46.768 214.165 46.84 214.909 46.84C216.589 46.84 217.873 46.456 218.761 45.688C219.673 44.92 220.129 43.744 220.129 42.16C220.129 40.36 219.637 39.148 218.653 38.524C217.693 37.876 216.181 37.552 214.117 37.552C213.469 37.552 212.929 37.588 212.497 37.66V46.624ZM227.726 25.384C230.558 25.192 233.054 25.096 235.214 25.096C241.502 25.096 244.646 28.912 244.646 36.544C244.646 45.088 241.214 49.36 234.35 49.36C232.334 49.36 230.126 49.18 227.726 48.82V25.384ZM234.35 46.84C236.03 46.84 237.302 46.42 238.166 45.58C239.03 44.74 239.594 43.636 239.858 42.268C240.122 40.876 240.254 39.136 240.254 37.048C240.254 34.264 239.882 31.996 239.138 30.244C238.394 28.492 237.002 27.616 234.962 27.616C234.074 27.616 233.066 27.676 231.938 27.796V46.624C232.802 46.768 233.606 46.84 234.35 46.84ZM257.406 24.52C258.702 24.52 259.854 24.796 260.862 25.348C261.894 25.9 262.41 26.692 262.41 27.724C262.41 28.06 262.326 28.348 262.158 28.588C262.014 28.828 261.786 29.056 261.474 29.272C260.514 28.288 259.254 27.796 257.694 27.796C255.726 27.796 254.25 28.528 253.266 29.992C252.306 31.432 251.778 33.34 251.682 35.716C252.066 34.804 252.75 34.096 253.734 33.592C254.742 33.088 255.846 32.836 257.046 32.836C259.182 32.836 260.826 33.604 261.978 35.14C263.13 36.652 263.706 38.572 263.706 40.9C263.706 42.58 263.37 44.104 262.698 45.472C262.05 46.816 261.114 47.872 259.89 48.64C258.666 49.408 257.238 49.792 255.606 49.792C250.014 49.792 247.218 45.844 247.218 37.948C247.218 35.596 247.602 33.4 248.37 31.36C249.138 29.296 250.29 27.64 251.826 26.392C253.362 25.144 255.222 24.52 257.406 24.52ZM255.606 35.5C254.43 35.5 253.554 36.04 252.978 37.12C252.426 38.176 252.102 39.52 252.006 41.152C252.078 42.832 252.39 44.272 252.942 45.472C253.494 46.672 254.382 47.272 255.606 47.272C256.854 47.272 257.754 46.66 258.306 45.436C258.882 44.212 259.17 42.784 259.17 41.152C259.17 39.712 258.87 38.416 258.27 37.264C257.67 36.088 256.782 35.5 255.606 35.5ZM275.047 24.52C278.071 24.52 280.231 25.66 281.527 27.94C282.823 30.196 283.471 33.148 283.471 36.796C283.471 40.516 282.811 43.612 281.491 46.084C280.195 48.556 278.047 49.792 275.047 49.792C272.047 49.792 269.899 48.628 268.603 46.3C267.331 43.948 266.695 40.924 266.695 37.228C266.695 33.532 267.331 30.496 268.603 28.12C269.899 25.72 272.047 24.52 275.047 24.52ZM275.047 47.272C276.631 47.272 277.675 46.36 278.179 44.536C278.683 42.712 278.935 40.216 278.935 37.048C278.935 34.096 278.671 31.696 278.143 29.848C277.639 27.976 276.607 27.04 275.047 27.04C273.511 27.04 272.491 27.964 271.987 29.812C271.483 31.66 271.231 34.072 271.231 37.048C271.231 40.216 271.471 42.712 271.951 44.536C272.455 46.36 273.487 47.272 275.047 47.272Z" fill="black"/>
<path d="M166.852 129.132C167.38 129.132 167.836 129.252 168.22 129.492V135.324H172.252C172.468 135.804 172.576 136.224 172.576 136.584C172.576 137.136 172.42 137.58 172.108 137.916C171.82 138.228 171.4 138.384 170.848 138.384H168.22V143.532H172.252C172.468 144.012 172.576 144.432 172.576 144.792C172.576 145.344 172.42 145.788 172.108 146.124C171.82 146.436 171.4 146.592 170.848 146.592H168.22V151.128C168.22 151.752 168.04 152.22 167.68 152.532C167.344 152.844 166.864 153 166.24 153C165.688 153 165.22 152.88 164.836 152.64V146.592H160.768V151.128C160.768 151.752 160.588 152.22 160.228 152.532C159.868 152.844 159.376 153 158.752 153C158.224 153 157.768 152.88 157.384 152.64V146.592H153.316C153.1 146.112 152.992 145.692 152.992 145.332C152.992 144.78 153.148 144.348 153.46 144.036C153.772 143.7 154.204 143.532 154.756 143.532H157.384V138.384H153.316C153.1 137.904 152.992 137.484 152.992 137.124C152.992 136.572 153.148 136.14 153.46 135.828C153.772 135.492 154.204 135.324 154.756 135.324H157.384V131.004C157.384 130.38 157.552 129.912 157.888 129.6C158.248 129.288 158.74 129.132 159.364 129.132C159.916 129.132 160.384 129.252 160.768 129.492V135.324H164.836V131.004C164.836 130.38 165.016 129.912 165.376 129.6C165.736 129.288 166.228 129.132 166.852 129.132ZM164.836 138.384H160.768V143.532H164.836V138.384ZM180.965 128.556C183.437 128.556 185.405 129.036 186.869 129.996C188.357 130.956 189.101 132.408 189.101 134.352C189.101 135.672 188.729 136.86 187.985 137.916C187.265 138.972 186.281 139.788 185.033 140.364C186.641 140.676 187.925 141.336 188.885 142.344C189.869 143.352 190.361 144.624 190.361 146.16C190.361 147.696 189.953 149.04 189.137 150.192C188.321 151.344 187.181 152.232 185.717 152.856C184.253 153.48 182.561 153.792 180.641 153.792C178.673 153.792 177.005 153.408 175.637 152.64C174.269 151.848 173.585 150.648 173.585 149.04C173.585 148.08 173.885 147.456 174.485 147.168C175.565 149.376 177.593 150.48 180.569 150.48C182.273 150.48 183.569 150.12 184.457 149.4C185.369 148.68 185.825 147.6 185.825 146.16C185.825 144.744 185.357 143.7 184.421 143.028C183.485 142.356 182.201 142.02 180.569 142.02C179.945 142.02 179.345 142.056 178.769 142.128V139.86C180.545 139.812 181.997 139.404 183.125 138.636C184.253 137.868 184.817 136.728 184.817 135.216C184.817 134.112 184.409 133.284 183.593 132.732C182.801 132.156 181.673 131.868 180.209 131.868C178.985 131.868 177.953 132.168 177.113 132.768C176.273 133.368 175.673 134.256 175.313 135.432C174.809 135.264 174.449 135.012 174.233 134.676C174.017 134.316 173.909 133.86 173.909 133.308C173.909 132.276 174.257 131.4 174.953 130.68C175.649 129.96 176.537 129.432 177.617 129.096C178.697 128.736 179.813 128.556 180.965 128.556ZM203.537 128.52C204.833 128.52 205.985 128.796 206.993 129.348C208.025 129.9 208.541 130.692 208.541 131.724C208.541 132.06 208.457 132.348 208.289 132.588C208.145 132.828 207.917 133.056 207.605 133.272C206.645 132.288 205.385 131.796 203.825 131.796C201.857 131.796 200.381 132.528 199.397 133.992C198.437 135.432 197.909 137.34 197.813 139.716C198.197 138.804 198.881 138.096 199.865 137.592C200.873 137.088 201.977 136.836 203.177 136.836C205.313 136.836 206.957 137.604 208.109 139.14C209.261 140.652 209.837 142.572 209.837 144.9C209.837 146.58 209.501 148.104 208.829 149.472C208.181 150.816 207.245 151.872 206.021 152.64C204.797 153.408 203.369 153.792 201.737 153.792C196.145 153.792 193.349 149.844 193.349 141.948C193.349 139.596 193.733 137.4 194.501 135.36C195.269 133.296 196.421 131.64 197.957 130.392C199.493 129.144 201.353 128.52 203.537 128.52ZM201.737 139.5C200.561 139.5 199.685 140.04 199.109 141.12C198.557 142.176 198.233 143.52 198.137 145.152C198.209 146.832 198.521 148.272 199.073 149.472C199.625 150.672 200.513 151.272 201.737 151.272C202.985 151.272 203.885 150.66 204.437 149.436C205.013 148.212 205.301 146.784 205.301 145.152C205.301 143.712 205.001 142.416 204.401 141.264C203.801 140.088 202.913 139.5 201.737 139.5ZM228.666 134.172C228.666 135.444 228.246 136.584 227.406 137.592C226.566 138.576 225.474 139.428 224.13 140.148C225.786 141.108 227.118 142.14 228.126 143.244C229.134 144.348 229.638 145.644 229.638 147.132C229.638 149.388 228.87 151.068 227.334 152.172C225.798 153.252 223.758 153.792 221.214 153.792C218.742 153.792 216.726 153.24 215.166 152.136C213.606 151.008 212.826 149.352 212.826 147.168C212.826 145.8 213.294 144.54 214.23 143.388C215.19 142.236 216.39 141.324 217.83 140.652C216.51 139.692 215.478 138.744 214.734 137.808C213.99 136.848 213.618 135.756 213.618 134.532C213.618 132.588 214.338 131.1 215.778 130.068C217.218 129.036 219.042 128.52 221.25 128.52C223.434 128.52 225.21 128.988 226.578 129.924C227.97 130.86 228.666 132.276 228.666 134.172ZM218.334 134.172C218.334 135.06 218.658 135.864 219.306 136.584C219.954 137.28 220.878 138.024 222.078 138.816C222.798 138.264 223.35 137.592 223.734 136.8C224.142 135.984 224.346 135.108 224.346 134.172C224.346 133.236 224.058 132.48 223.482 131.904C222.906 131.328 222.162 131.04 221.25 131.04C220.338 131.04 219.618 131.328 219.09 131.904C218.586 132.456 218.334 133.212 218.334 134.172ZM224.922 147.528C224.922 146.808 224.694 146.136 224.238 145.512C223.782 144.888 223.23 144.336 222.582 143.856C221.934 143.376 221.01 142.764 219.81 142.02C219.066 142.668 218.478 143.448 218.046 144.36C217.614 145.272 217.398 146.208 217.398 147.168C217.398 148.44 217.722 149.448 218.37 150.192C219.042 150.912 219.99 151.272 221.214 151.272C222.414 151.272 223.326 150.948 223.95 150.3C224.598 149.652 224.922 148.728 224.922 147.528ZM239.682 128.52C242.298 128.52 244.35 129.108 245.838 130.284C247.35 131.46 248.106 133.176 248.106 135.432C248.106 136.752 247.818 138.012 247.242 139.212C246.69 140.412 245.742 141.732 244.398 143.172C243.078 144.612 241.182 146.364 238.71 148.428C238.278 148.788 237.846 149.184 237.414 149.616L248.61 149.58L248.358 153H232.23L231.978 150.372C234.45 148.452 236.982 146.124 239.574 143.388C240.87 141.9 241.854 140.556 242.526 139.356C243.222 138.156 243.57 136.86 243.57 135.468C243.57 134.316 243.174 133.428 242.382 132.804C241.59 132.156 240.57 131.832 239.322 131.832C236.61 131.832 234.702 133.38 233.598 136.476C233.118 136.26 232.782 135.936 232.59 135.504C232.398 135.072 232.266 134.448 232.194 133.632C232.314 132.552 232.746 131.628 233.49 130.86C234.234 130.092 235.158 129.516 236.262 129.132C237.366 128.724 238.506 128.52 239.682 128.52ZM268.987 129.24L269.239 131.868L259.303 153.792L254.551 153L265.099 132.624L251.743 132.66L251.995 129.24H268.987ZM284.143 129.24V131.904H276.295V139.968H283.063V142.632H276.295V153H272.083V129.24H284.143Z" fill="white"/>
<path d="M164.883 234.132C165.411 234.132 165.867 234.252 166.251 234.492V240.324H170.283C170.499 240.804 170.607 241.224 170.607 241.584C170.607 242.136 170.451 242.58 170.139 242.916C169.851 243.228 169.431 243.384 168.879 243.384H166.251V248.532H170.283C170.499 249.012 170.607 249.432 170.607 249.792C170.607 250.344 170.451 250.788 170.139 251.124C169.851 251.436 169.431 251.592 168.879 251.592H166.251V256.128C166.251 256.752 166.071 257.22 165.711 257.532C165.375 257.844 164.895 258 164.271 258C163.719 258 163.251 257.88 162.867 257.64V251.592H158.799V256.128C158.799 256.752 158.619 257.22 158.259 257.532C157.899 257.844 157.407 258 156.783 258C156.255 258 155.799 257.88 155.415 257.64V251.592H151.347C151.131 251.112 151.023 250.692 151.023 250.332C151.023 249.78 151.179 249.348 151.491 249.036C151.803 248.7 152.235 248.532 152.787 248.532H155.415V243.384H151.347C151.131 242.904 151.023 242.484 151.023 242.124C151.023 241.572 151.179 241.14 151.491 240.828C151.803 240.492 152.235 240.324 152.787 240.324H155.415V236.004C155.415 235.38 155.583 234.912 155.919 234.6C156.279 234.288 156.771 234.132 157.395 234.132C157.947 234.132 158.415 234.252 158.799 234.492V240.324H162.867V236.004C162.867 235.38 163.047 234.912 163.407 234.6C163.767 234.288 164.259 234.132 164.883 234.132ZM162.867 243.384H158.799V248.532H162.867V243.384ZM180.256 233.52C183.28 233.52 185.44 234.66 186.736 236.94C188.032 239.196 188.68 242.148 188.68 245.796C188.68 249.516 188.02 252.612 186.7 255.084C185.404 257.556 183.256 258.792 180.256 258.792C177.256 258.792 175.108 257.628 173.812 255.3C172.54 252.948 171.904 249.924 171.904 246.228C171.904 242.532 172.54 239.496 173.812 237.12C175.108 234.72 177.256 233.52 180.256 233.52ZM180.256 256.272C181.84 256.272 182.884 255.36 183.388 253.536C183.892 251.712 184.144 249.216 184.144 246.048C184.144 243.096 183.88 240.696 183.352 238.848C182.848 236.976 181.816 236.04 180.256 236.04C178.72 236.04 177.7 236.964 177.196 238.812C176.692 240.66 176.44 243.072 176.44 246.048C176.44 249.216 176.68 251.712 177.16 253.536C177.664 255.36 178.696 256.272 180.256 256.272ZM192.208 234.384C195.04 234.192 197.536 234.096 199.696 234.096C205.984 234.096 209.128 237.912 209.128 245.544C209.128 254.088 205.696 258.36 198.832 258.36C196.816 258.36 194.608 258.18 192.208 257.82V234.384ZM198.832 255.84C200.512 255.84 201.784 255.42 202.648 254.58C203.512 253.74 204.076 252.636 204.34 251.268C204.604 249.876 204.736 248.136 204.736 246.048C204.736 243.264 204.364 240.996 203.62 239.244C202.876 237.492 201.484 236.616 199.444 236.616C198.556 236.616 197.548 236.676 196.42 236.796V255.624C197.284 255.768 198.088 255.84 198.832 255.84ZM228.909 234.24L229.161 236.868L219.225 258.792L214.473 258L225.021 237.624L211.665 237.66L211.917 234.24H228.909ZM239.277 233.52C244.869 233.52 247.665 237.468 247.665 245.364C247.665 247.716 247.281 249.924 246.513 251.988C245.745 254.028 244.593 255.672 243.057 256.92C241.521 258.168 239.661 258.792 237.477 258.792C236.181 258.792 235.017 258.516 233.985 257.964C232.977 257.412 232.473 256.62 232.473 255.588C232.473 255.252 232.545 254.964 232.689 254.724C232.857 254.484 233.097 254.256 233.409 254.04C234.369 255.024 235.629 255.516 237.189 255.516C239.205 255.516 240.681 254.796 241.617 253.356C242.577 251.916 243.105 249.996 243.201 247.596C242.745 248.532 242.037 249.252 241.077 249.756C240.117 250.236 239.037 250.476 237.837 250.476C235.701 250.476 234.057 249.72 232.905 248.208C231.753 246.672 231.177 244.74 231.177 242.412C231.177 240.732 231.501 239.22 232.149 237.876C232.821 236.508 233.769 235.44 234.993 234.672C236.217 233.904 237.645 233.52 239.277 233.52ZM239.277 236.04C238.029 236.04 237.117 236.652 236.541 237.876C235.989 239.1 235.713 240.528 235.713 242.16C235.713 243.648 235.989 244.968 236.541 246.12C237.117 247.248 238.029 247.812 239.277 247.812C240.573 247.812 241.497 247.284 242.049 246.228C242.601 245.148 242.877 243.792 242.877 242.16C242.877 240.528 242.589 239.1 242.013 237.876C241.437 236.652 240.525 236.04 239.277 236.04ZM261.274 234.24L267.43 258H263.182L261.742 251.952H254.686L253.282 258H249.322L255.91 234.24H261.274ZM255.334 249.288H261.13L258.214 236.94L255.334 249.288ZM285.967 234.24L286.219 236.868L276.283 258.792L271.531 258L282.079 237.624L268.723 237.66L268.975 234.24H285.967Z" fill="white"/>
<path d="M167.907 337.132C168.435 337.132 168.891 337.252 169.275 337.492V343.324H173.307C173.523 343.804 173.631 344.224 173.631 344.584C173.631 345.136 173.475 345.58 173.163 345.916C172.875 346.228 172.455 346.384 171.903 346.384H169.275V351.532H173.307C173.523 352.012 173.631 352.432 173.631 352.792C173.631 353.344 173.475 353.788 173.163 354.124C172.875 354.436 172.455 354.592 171.903 354.592H169.275V359.128C169.275 359.752 169.095 360.22 168.735 360.532C168.399 360.844 167.919 361 167.295 361C166.743 361 166.275 360.88 165.891 360.64V354.592H161.823V359.128C161.823 359.752 161.643 360.22 161.283 360.532C160.923 360.844 160.431 361 159.807 361C159.279 361 158.823 360.88 158.439 360.64V354.592H154.371C154.155 354.112 154.047 353.692 154.047 353.332C154.047 352.78 154.203 352.348 154.515 352.036C154.827 351.7 155.259 351.532 155.811 351.532H158.439V346.384H154.371C154.155 345.904 154.047 345.484 154.047 345.124C154.047 344.572 154.203 344.14 154.515 343.828C154.827 343.492 155.259 343.324 155.811 343.324H158.439V339.004C158.439 338.38 158.607 337.912 158.943 337.6C159.303 337.288 159.795 337.132 160.419 337.132C160.971 337.132 161.439 337.252 161.823 337.492V343.324H165.891V339.004C165.891 338.38 166.071 337.912 166.431 337.6C166.791 337.288 167.283 337.132 167.907 337.132ZM165.891 346.384H161.823V351.532H165.891V346.384ZM183.279 336.52C186.303 336.52 188.463 337.66 189.759 339.94C191.055 342.196 191.703 345.148 191.703 348.796C191.703 352.516 191.043 355.612 189.723 358.084C188.427 360.556 186.279 361.792 183.279 361.792C180.279 361.792 178.131 360.628 176.835 358.3C175.563 355.948 174.927 352.924 174.927 349.228C174.927 345.532 175.563 342.496 176.835 340.12C178.131 337.72 180.279 336.52 183.279 336.52ZM183.279 359.272C184.863 359.272 185.907 358.36 186.411 356.536C186.915 354.712 187.167 352.216 187.167 349.048C187.167 346.096 186.903 343.696 186.375 341.848C185.871 339.976 184.839 339.04 183.279 339.04C181.743 339.04 180.723 339.964 180.219 341.812C179.715 343.66 179.463 346.072 179.463 349.048C179.463 352.216 179.703 354.712 180.183 356.536C180.687 358.36 181.719 359.272 183.279 359.272ZM207.292 337.24V339.904H199.444V347.968H206.212V350.632H199.444V361H195.232V337.24H207.292ZM223.78 353.152H226.984L226.732 355.816H223.78V361H219.568V355.816H209.776C209.368 355.816 209.044 355.684 208.804 355.42C208.564 355.132 208.444 354.76 208.444 354.304C208.444 353.776 208.708 353.104 209.236 352.288L219.568 337.24H223.78V353.152ZM219.568 342.28L212.08 353.152H219.568V342.28ZM237.82 339.04C235.996 339.04 234.784 340 234.184 341.92C233.608 343.816 233.32 346.192 233.32 349.048C233.32 351.904 233.632 354.196 234.256 355.924C234.88 357.628 236.188 358.48 238.18 358.48C239.428 358.48 240.496 358.132 241.384 357.436C242.272 356.74 242.908 355.78 243.292 354.556C243.796 354.724 244.156 354.988 244.372 355.348C244.588 355.684 244.696 356.128 244.696 356.68C244.696 357.76 244.36 358.684 243.688 359.452C243.04 360.22 242.188 360.796 241.132 361.18C240.1 361.588 238.996 361.792 237.82 361.792C234.556 361.792 232.228 360.664 230.836 358.408C229.468 356.152 228.784 353.092 228.784 349.228C228.784 345.388 229.516 342.316 230.98 340.012C232.468 337.684 234.856 336.52 238.144 336.52C240.256 336.52 241.936 336.94 243.184 337.78C244.456 338.62 245.092 339.952 245.092 341.776C245.092 342.64 244.84 343.348 244.336 343.9C243.832 344.428 243.148 344.692 242.284 344.692C241.444 344.692 240.82 344.5 240.412 344.116C240.604 343.588 240.7 342.988 240.7 342.316C240.7 340.132 239.74 339.04 237.82 339.04ZM262.074 340.876H251.958L251.526 346.672C252.606 346.552 253.71 346.492 254.838 346.492C260.67 346.492 263.586 348.928 263.586 353.8C263.586 355.336 263.19 356.716 262.398 357.94C261.606 359.14 260.502 360.088 259.086 360.784C257.694 361.456 256.134 361.792 254.406 361.792C252.246 361.792 250.458 361.396 249.042 360.604C247.65 359.812 246.954 358.624 246.954 357.04C246.954 356.08 247.254 355.456 247.854 355.168C248.982 357.376 251.118 358.48 254.262 358.48C255.774 358.48 256.95 358.072 257.79 357.256C258.63 356.44 259.05 355.288 259.05 353.8C259.05 352.24 258.474 351.1 257.322 350.38C256.194 349.66 254.646 349.3 252.678 349.3C251.406 349.3 249.882 349.468 248.106 349.804L249.042 337.24H261.822L262.074 340.876ZM275.719 339.04C273.895 339.04 272.683 340 272.083 341.92C271.507 343.816 271.219 346.192 271.219 349.048C271.219 351.904 271.531 354.196 272.155 355.924C272.779 357.628 274.087 358.48 276.079 358.48C277.327 358.48 278.395 358.132 279.283 357.436C280.171 356.74 280.807 355.78 281.191 354.556C281.695 354.724 282.055 354.988 282.271 355.348C282.487 355.684 282.595 356.128 282.595 356.68C282.595 357.76 282.259 358.684 281.587 359.452C280.939 360.22 280.087 360.796 279.031 361.18C277.999 361.588 276.895 361.792 275.719 361.792C272.455 361.792 270.127 360.664 268.735 358.408C267.367 356.152 266.683 353.092 266.683 349.228C266.683 345.388 267.415 342.316 268.879 340.012C270.367 337.684 272.755 336.52 276.043 336.52C278.155 336.52 279.835 336.94 281.083 337.78C282.355 338.62 282.991 339.952 282.991 341.776C282.991 342.64 282.739 343.348 282.235 343.9C281.731 344.428 281.047 344.692 280.183 344.692C279.343 344.692 278.719 344.5 278.311 344.116C278.503 343.588 278.599 342.988 278.599 342.316C278.599 340.132 277.639 339.04 275.719 339.04Z" fill="white"/>
<path d="M169.085 441.132C169.613 441.132 170.069 441.252 170.453 441.492V447.324H174.485C174.701 447.804 174.809 448.224 174.809 448.584C174.809 449.136 174.653 449.58 174.341 449.916C174.053 450.228 173.633 450.384 173.081 450.384H170.453V455.532H174.485C174.701 456.012 174.809 456.432 174.809 456.792C174.809 457.344 174.653 457.788 174.341 458.124C174.053 458.436 173.633 458.592 173.081 458.592H170.453V463.128C170.453 463.752 170.273 464.22 169.913 464.532C169.577 464.844 169.097 465 168.473 465C167.921 465 167.453 464.88 167.069 464.64V458.592H163.001V463.128C163.001 463.752 162.821 464.22 162.461 464.532C162.101 464.844 161.609 465 160.985 465C160.457 465 160.001 464.88 159.617 464.64V458.592H155.549C155.333 458.112 155.225 457.692 155.225 457.332C155.225 456.78 155.381 456.348 155.693 456.036C156.005 455.7 156.437 455.532 156.989 455.532H159.617V450.384H155.549C155.333 449.904 155.225 449.484 155.225 449.124C155.225 448.572 155.381 448.14 155.693 447.828C156.005 447.492 156.437 447.324 156.989 447.324H159.617V443.004C159.617 442.38 159.785 441.912 160.121 441.6C160.481 441.288 160.973 441.132 161.597 441.132C162.149 441.132 162.617 441.252 163.001 441.492V447.324H167.069V443.004C167.069 442.38 167.249 441.912 167.609 441.6C167.969 441.288 168.461 441.132 169.085 441.132ZM167.069 450.384H163.001V455.532H167.069V450.384ZM190.865 444.876H180.749L180.317 450.672C181.397 450.552 182.501 450.492 183.629 450.492C189.461 450.492 192.377 452.928 192.377 457.8C192.377 459.336 191.981 460.716 191.189 461.94C190.397 463.14 189.293 464.088 187.877 464.784C186.485 465.456 184.925 465.792 183.197 465.792C181.037 465.792 179.249 465.396 177.833 464.604C176.441 463.812 175.745 462.624 175.745 461.04C175.745 460.08 176.045 459.456 176.645 459.168C177.773 461.376 179.909 462.48 183.053 462.48C184.565 462.48 185.741 462.072 186.581 461.256C187.421 460.44 187.841 459.288 187.841 457.8C187.841 456.24 187.265 455.1 186.113 454.38C184.985 453.66 183.437 453.3 181.469 453.3C180.197 453.3 178.673 453.468 176.897 453.804L177.833 441.24H190.613L190.865 444.876ZM208.47 441.24V443.904H200.622V451.968H207.39V454.632H200.622V465H196.41V441.24H208.47ZM218.945 440.52C221.969 440.52 224.129 441.66 225.425 443.94C226.721 446.196 227.369 449.148 227.369 452.796C227.369 456.516 226.709 459.612 225.389 462.084C224.093 464.556 221.945 465.792 218.945 465.792C215.945 465.792 213.797 464.628 212.501 462.3C211.229 459.948 210.593 456.924 210.593 453.228C210.593 449.532 211.229 446.496 212.501 444.12C213.797 441.72 215.945 440.52 218.945 440.52ZM218.945 463.272C220.529 463.272 221.573 462.36 222.077 460.536C222.581 458.712 222.833 456.216 222.833 453.048C222.833 450.096 222.569 447.696 222.041 445.848C221.537 443.976 220.505 443.04 218.945 443.04C217.409 443.04 216.389 443.964 215.885 445.812C215.381 447.66 215.129 450.072 215.129 453.048C215.129 456.216 215.369 458.712 215.849 460.536C216.353 462.36 217.385 463.272 218.945 463.272ZM242.958 441.24V443.904H235.11V451.968H241.878V454.632H235.11V465H230.898V441.24H242.958ZM259.446 457.152H262.65L262.398 459.816H259.446V465H255.234V459.816H245.442C245.034 459.816 244.71 459.684 244.47 459.42C244.23 459.132 244.11 458.76 244.11 458.304C244.11 457.776 244.374 457.104 244.902 456.288L255.234 441.24H259.446V457.152ZM255.234 446.28L247.746 457.152H255.234V446.28ZM272.91 440.52C275.934 440.52 278.094 441.66 279.39 443.94C280.686 446.196 281.334 449.148 281.334 452.796C281.334 456.516 280.674 459.612 279.354 462.084C278.058 464.556 275.91 465.792 272.91 465.792C269.91 465.792 267.762 464.628 266.466 462.3C265.194 459.948 264.558 456.924 264.558 453.228C264.558 449.532 265.194 446.496 266.466 444.12C267.762 441.72 269.91 440.52 272.91 440.52ZM272.91 463.272C274.494 463.272 275.538 462.36 276.042 460.536C276.546 458.712 276.798 456.216 276.798 453.048C276.798 450.096 276.534 447.696 276.006 445.848C275.502 443.976 274.47 443.04 272.91 443.04C271.374 443.04 270.354 443.964 269.85 445.812C269.346 447.66 269.094 450.072 269.094 453.048C269.094 456.216 269.334 458.712 269.814 460.536C270.318 462.36 271.35 463.272 272.91 463.272Z" fill="white"/>
</svg>
