<svg width="658" height="469" viewBox="0 0 658 469" fill="none" xmlns="http://www.w3.org/2000/svg">
<rect x="13" y="133" width="291" height="104" fill="#F3AD78"/>
<path d="M425.64 357.14C425.215 358.88 424.519 360.427 423.552 361.78C422.624 363.095 421.483 364.216 420.13 365.144C418.815 366.072 417.327 366.768 415.664 367.232C414.04 367.696 412.319 367.928 410.502 367.928C405.514 367.928 401.628 366.169 398.844 362.65C396.099 359.131 394.726 353.815 394.726 346.7C394.726 344.071 394.958 341.383 395.422 338.638C395.886 335.893 396.698 333.399 397.858 331.156C399.018 328.913 400.565 327.077 402.498 325.646C404.47 324.215 406.945 323.5 409.922 323.5C411.353 323.5 412.745 323.693 414.098 324.08C415.451 324.428 416.631 324.989 417.636 325.762C418.68 326.497 419.511 327.444 420.13 328.604C420.749 329.764 421.058 331.117 421.058 332.664C421.058 333.824 420.826 334.771 420.362 335.506C419.937 336.241 419.125 336.608 417.926 336.608C417.462 336.608 416.901 336.531 416.244 336.376C415.625 336.183 414.968 335.757 414.272 335.1C414.775 334.791 415.181 334.23 415.49 333.418C415.799 332.567 415.954 331.736 415.954 330.924C415.954 329.687 415.587 328.604 414.852 327.676C414.117 326.709 413.131 326.226 411.894 326.226C410.579 326.226 409.439 326.787 408.472 327.908C407.505 329.029 406.693 330.518 406.036 332.374C405.417 334.191 404.953 336.279 404.644 338.638C404.335 340.958 404.18 343.336 404.18 345.772C404.18 348.981 404.431 351.669 404.934 353.834C405.475 355.999 406.191 357.739 407.08 359.054C407.969 360.369 409.013 361.297 410.212 361.838C411.449 362.379 412.764 362.65 414.156 362.65C416.36 362.65 418.332 362.109 420.072 361.026C421.851 359.905 423.223 358.416 424.19 356.56L425.64 357.14ZM435.435 337.71C437.833 337.71 439.785 338.309 441.293 339.508C442.801 340.668 443.884 342.524 444.541 345.076C444.889 344.883 445.199 344.631 445.469 344.322C445.779 343.974 446.03 343.626 446.223 343.278C446.455 342.891 446.649 342.524 446.803 342.176C446.958 341.828 447.074 341.538 447.151 341.306H449.007C448.853 341.886 448.659 342.524 448.427 343.22C448.234 343.916 447.983 344.612 447.673 345.308C447.403 345.965 447.055 346.603 446.629 347.222C446.204 347.841 445.682 348.382 445.063 348.846C445.102 349.233 445.121 349.639 445.121 350.064C445.16 350.451 445.179 350.857 445.179 351.282C445.179 353.525 444.986 355.632 444.599 357.604C444.213 359.537 443.555 361.239 442.627 362.708C441.738 364.139 440.578 365.279 439.147 366.13C437.717 366.942 435.957 367.348 433.869 367.348C432.439 367.348 431.066 367.135 429.751 366.71C428.475 366.246 427.335 365.511 426.329 364.506C425.324 363.462 424.512 362.109 423.893 360.446C423.313 358.745 423.023 356.676 423.023 354.24C423.023 352.577 423.197 350.799 423.545 348.904C423.893 346.971 424.531 345.173 425.459 343.51C426.387 341.847 427.644 340.475 429.229 339.392C430.853 338.271 432.922 337.71 435.435 337.71ZM435.493 361.896C436.305 361.896 437.001 361.625 437.581 361.084C438.2 360.504 438.703 359.731 439.089 358.764C439.476 357.759 439.747 356.579 439.901 355.226C440.095 353.873 440.191 352.403 440.191 350.818V350.006C438.645 349.658 437.871 348.517 437.871 346.584C437.871 345.347 438.374 344.535 439.379 344.148C438.954 342.911 438.432 342.118 437.813 341.77C437.233 341.383 436.731 341.19 436.305 341.19C435.455 341.19 434.72 341.596 434.101 342.408C433.521 343.181 433.038 344.187 432.651 345.424C432.265 346.623 431.975 347.957 431.781 349.426C431.627 350.895 431.549 352.307 431.549 353.66C431.549 355.4 431.665 356.811 431.897 357.894C432.168 358.977 432.497 359.808 432.883 360.388C433.27 360.968 433.695 361.374 434.159 361.606C434.623 361.799 435.068 361.896 435.493 361.896ZM475.655 330.808C475.655 332.277 475.326 333.476 474.669 334.404C474.05 335.293 473.142 335.738 471.943 335.738C470.86 335.738 469.894 335.332 469.043 334.52C469.584 334.133 469.99 333.573 470.261 332.838C470.57 332.103 470.725 331.349 470.725 330.576C470.725 329.377 470.338 328.391 469.565 327.618C468.792 326.845 467.612 326.458 466.027 326.458C464.287 326.458 463.03 326.941 462.257 327.908C461.484 328.875 461.097 330.17 461.097 331.794C461.097 333.689 461.542 335.235 462.431 336.434C463.359 337.633 464.5 338.715 465.853 339.682C467.206 340.61 468.656 341.499 470.203 342.35C471.788 343.201 473.258 344.206 474.611 345.366C475.964 346.526 477.086 347.937 477.975 349.6C478.903 351.224 479.367 353.312 479.367 355.864C479.367 358.029 479 359.885 478.265 361.432C477.569 362.979 476.602 364.255 475.365 365.26C474.128 366.227 472.658 366.923 470.957 367.348C469.256 367.812 467.4 368.044 465.389 368.044C463.61 368.044 461.851 367.851 460.111 367.464C458.41 367.116 456.882 366.536 455.529 365.724C454.214 364.873 453.151 363.771 452.339 362.418C451.527 361.026 451.121 359.344 451.121 357.372C451.121 356.057 451.295 354.859 451.643 353.776C452.03 352.693 452.532 351.785 453.151 351.05C453.808 350.315 454.562 349.755 455.413 349.368C456.264 348.943 457.153 348.73 458.081 348.73C458.545 348.73 459.048 348.788 459.589 348.904C460.13 349.02 460.672 349.233 461.213 349.542C461.754 349.813 462.257 350.199 462.721 350.702C463.185 351.205 463.552 351.823 463.823 352.558C463.127 352.558 462.431 352.635 461.735 352.79C461.039 352.945 460.401 353.215 459.821 353.602C459.28 353.989 458.835 354.53 458.487 355.226C458.139 355.883 457.965 356.734 457.965 357.778C457.965 359.789 458.584 361.239 459.821 362.128C461.058 362.979 462.605 363.404 464.461 363.404C466.317 363.404 467.748 362.959 468.753 362.07C469.758 361.181 470.261 359.653 470.261 357.488C470.261 355.477 469.836 353.776 468.985 352.384C468.173 350.992 467.129 349.774 465.853 348.73C464.577 347.686 463.204 346.719 461.735 345.83C460.304 344.902 458.951 343.916 457.675 342.872C456.399 341.789 455.336 340.533 454.485 339.102C453.673 337.671 453.267 335.912 453.267 333.824C453.267 330.46 454.388 327.908 456.631 326.168C458.874 324.389 461.928 323.5 465.795 323.5C466.336 323.5 467.148 323.558 468.231 323.674C469.352 323.751 470.454 324.041 471.537 324.544C472.658 325.008 473.625 325.743 474.437 326.748C475.249 327.715 475.655 329.068 475.655 330.808ZM490.984 338V357.72C490.984 359.344 491.197 360.427 491.622 360.968C492.086 361.471 492.879 361.722 494 361.722C495.122 361.722 496.05 361.239 496.784 360.272C497.558 359.305 498.002 358.087 498.118 356.618H500.554C500.245 358.977 499.704 360.871 498.93 362.302C498.157 363.694 497.287 364.777 496.32 365.55C495.354 366.285 494.368 366.768 493.362 367C492.357 367.232 491.468 367.348 490.694 367.348C487.717 367.348 485.629 366.536 484.43 364.912C483.232 363.249 482.632 361.065 482.632 358.358V338H490.984ZM481.994 330.286C481.994 329.01 482.439 327.927 483.328 327.038C484.218 326.11 485.3 325.646 486.576 325.646C487.852 325.646 488.935 326.11 489.824 327.038C490.752 327.927 491.216 329.01 491.216 330.286C491.216 331.562 490.752 332.645 489.824 333.534C488.935 334.423 487.852 334.868 486.576 334.868C485.3 334.868 484.218 334.423 483.328 333.534C482.439 332.645 481.994 331.562 481.994 330.286ZM521.933 338V364.912C522.745 364.603 523.461 364.235 524.079 363.81C524.698 363.385 525.239 362.863 525.703 362.244C526.167 361.587 526.535 360.813 526.805 359.924C527.115 358.996 527.347 357.894 527.501 356.618H529.937C529.744 358.551 529.377 360.156 528.835 361.432C528.333 362.669 527.695 363.694 526.921 364.506C526.187 365.318 525.375 365.956 524.485 366.42C523.635 366.884 522.784 367.251 521.933 367.522V371.64C521.933 373.728 521.682 375.41 521.179 376.686C520.677 377.962 520.019 378.948 519.207 379.644C518.434 380.379 517.564 380.862 516.597 381.094C515.669 381.365 514.761 381.5 513.871 381.5C512.75 381.5 511.687 381.345 510.681 381.036C509.715 380.727 508.864 380.282 508.129 379.702C507.433 379.161 506.873 378.484 506.447 377.672C506.022 376.86 505.809 375.951 505.809 374.946C505.809 373.902 506.022 372.955 506.447 372.104C506.911 371.292 507.511 370.577 508.245 369.958C508.98 369.339 509.811 368.798 510.739 368.334C511.667 367.909 512.615 367.541 513.581 367.232V362.36C512.924 363.443 512.073 364.351 511.029 365.086C510.024 365.821 508.69 366.188 507.027 366.188C505.829 366.188 504.63 365.956 503.431 365.492C502.233 365.028 501.15 364.293 500.183 363.288C499.217 362.283 498.424 360.968 497.805 359.344C497.225 357.681 496.935 355.69 496.935 353.37C496.935 351.63 497.129 349.851 497.515 348.034C497.902 346.178 498.54 344.496 499.429 342.988C500.357 341.441 501.556 340.185 503.025 339.218C504.533 338.213 506.37 337.71 508.535 337.71C508.922 337.71 509.347 337.749 509.811 337.826C510.314 337.865 510.797 337.981 511.261 338.174C511.725 338.367 512.17 338.657 512.595 339.044C513.021 339.431 513.349 339.953 513.581 340.61V338H521.933ZM510.797 341.306C509.831 341.306 508.999 341.673 508.303 342.408C507.646 343.143 507.085 344.09 506.621 345.25C506.196 346.371 505.887 347.628 505.693 349.02C505.5 350.412 505.403 351.765 505.403 353.08C505.403 354.897 505.558 356.309 505.867 357.314C506.177 358.319 506.544 359.073 506.969 359.576C507.395 360.04 507.82 360.33 508.245 360.446C508.671 360.523 508.999 360.562 509.231 360.562C510.469 360.562 511.455 360.156 512.189 359.344C512.963 358.532 513.427 357.507 513.581 356.27V343.336C513.465 342.949 513.175 342.524 512.711 342.06C512.286 341.557 511.648 341.306 510.797 341.306ZM508.883 374.482C508.883 375.217 509.135 375.816 509.637 376.28C510.14 376.744 510.662 376.976 511.203 376.976C511.899 376.976 512.46 376.551 512.885 375.7C513.349 374.849 513.581 373.554 513.581 371.814V370.132C512.228 370.673 511.107 371.292 510.217 371.988C509.328 372.723 508.883 373.554 508.883 374.482ZM542.282 349.368C542.282 347.087 542.011 345.463 541.47 344.496C540.967 343.529 540.213 343.046 539.208 343.046C538.164 343.046 537.371 343.568 536.83 344.612C536.288 345.656 535.96 346.913 535.844 348.382V367H527.492V338H535.844V341.016C536.772 339.624 537.796 338.735 538.918 338.348C540.039 337.961 541.044 337.768 541.934 337.768C543.055 337.768 544.118 337.942 545.124 338.29C546.129 338.638 546.999 339.218 547.734 340.03C548.507 340.842 549.106 341.925 549.532 343.278C549.957 344.593 550.17 346.236 550.17 348.208C550.17 348.865 550.15 349.581 550.112 350.354C550.112 351.089 550.092 351.843 550.054 352.616C550.015 353.389 549.976 354.143 549.938 354.878C549.938 355.613 549.938 356.251 549.938 356.792C549.938 358.416 550.131 359.653 550.518 360.504C550.943 361.316 551.774 361.722 553.012 361.722C553.94 361.722 554.558 361.606 554.868 361.374C554.868 363.462 554.423 364.989 553.534 365.956C552.683 366.884 551.426 367.348 549.764 367.348C548.333 367.348 547.134 367.077 546.168 366.536C545.201 365.956 544.408 365.183 543.79 364.216C543.21 363.249 542.784 362.128 542.514 360.852C542.282 359.576 542.166 358.223 542.166 356.792C542.166 356.289 542.166 355.709 542.166 355.052C542.204 354.356 542.224 353.679 542.224 353.022C542.224 352.326 542.224 351.669 542.224 351.05C542.262 350.393 542.282 349.832 542.282 349.368Z" fill="#0E5364"/>
<path d="M151.64 200.14C151.215 201.88 150.519 203.427 149.552 204.78C148.624 206.095 147.483 207.216 146.13 208.144C144.815 209.072 143.327 209.768 141.664 210.232C140.04 210.696 138.319 210.928 136.502 210.928C131.514 210.928 127.628 209.169 124.844 205.65C122.099 202.131 120.726 196.815 120.726 189.7C120.726 187.071 120.958 184.383 121.422 181.638C121.886 178.893 122.698 176.399 123.858 174.156C125.018 171.913 126.565 170.077 128.498 168.646C130.47 167.215 132.945 166.5 135.922 166.5C137.353 166.5 138.745 166.693 140.098 167.08C141.451 167.428 142.631 167.989 143.636 168.762C144.68 169.497 145.511 170.444 146.13 171.604C146.749 172.764 147.058 174.117 147.058 175.664C147.058 176.824 146.826 177.771 146.362 178.506C145.937 179.241 145.125 179.608 143.926 179.608C143.462 179.608 142.901 179.531 142.244 179.376C141.625 179.183 140.968 178.757 140.272 178.1C140.775 177.791 141.181 177.23 141.49 176.418C141.799 175.567 141.954 174.736 141.954 173.924C141.954 172.687 141.587 171.604 140.852 170.676C140.117 169.709 139.131 169.226 137.894 169.226C136.579 169.226 135.439 169.787 134.472 170.908C133.505 172.029 132.693 173.518 132.036 175.374C131.417 177.191 130.953 179.279 130.644 181.638C130.335 183.958 130.18 186.336 130.18 188.772C130.18 191.981 130.431 194.669 130.934 196.834C131.475 198.999 132.191 200.739 133.08 202.054C133.969 203.369 135.013 204.297 136.212 204.838C137.449 205.379 138.764 205.65 140.156 205.65C142.36 205.65 144.332 205.109 146.072 204.026C147.851 202.905 149.223 201.416 150.19 199.56L151.64 200.14ZM161.435 180.71C163.833 180.71 165.785 181.309 167.293 182.508C168.801 183.668 169.884 185.524 170.541 188.076C170.889 187.883 171.199 187.631 171.469 187.322C171.779 186.974 172.03 186.626 172.223 186.278C172.455 185.891 172.649 185.524 172.803 185.176C172.958 184.828 173.074 184.538 173.151 184.306H175.007C174.853 184.886 174.659 185.524 174.427 186.22C174.234 186.916 173.983 187.612 173.673 188.308C173.403 188.965 173.055 189.603 172.629 190.222C172.204 190.841 171.682 191.382 171.063 191.846C171.102 192.233 171.121 192.639 171.121 193.064C171.16 193.451 171.179 193.857 171.179 194.282C171.179 196.525 170.986 198.632 170.599 200.604C170.213 202.537 169.555 204.239 168.627 205.708C167.738 207.139 166.578 208.279 165.147 209.13C163.717 209.942 161.957 210.348 159.869 210.348C158.439 210.348 157.066 210.135 155.751 209.71C154.475 209.246 153.335 208.511 152.329 207.506C151.324 206.462 150.512 205.109 149.893 203.446C149.313 201.745 149.023 199.676 149.023 197.24C149.023 195.577 149.197 193.799 149.545 191.904C149.893 189.971 150.531 188.173 151.459 186.51C152.387 184.847 153.644 183.475 155.229 182.392C156.853 181.271 158.922 180.71 161.435 180.71ZM161.493 204.896C162.305 204.896 163.001 204.625 163.581 204.084C164.2 203.504 164.703 202.731 165.089 201.764C165.476 200.759 165.747 199.579 165.901 198.226C166.095 196.873 166.191 195.403 166.191 193.818V193.006C164.645 192.658 163.871 191.517 163.871 189.584C163.871 188.347 164.374 187.535 165.379 187.148C164.954 185.911 164.432 185.118 163.813 184.77C163.233 184.383 162.731 184.19 162.305 184.19C161.455 184.19 160.72 184.596 160.101 185.408C159.521 186.181 159.038 187.187 158.651 188.424C158.265 189.623 157.975 190.957 157.781 192.426C157.627 193.895 157.549 195.307 157.549 196.66C157.549 198.4 157.665 199.811 157.897 200.894C158.168 201.977 158.497 202.808 158.883 203.388C159.27 203.968 159.695 204.374 160.159 204.606C160.623 204.799 161.068 204.896 161.493 204.896ZM201.655 173.808C201.655 175.277 201.326 176.476 200.669 177.404C200.05 178.293 199.142 178.738 197.943 178.738C196.86 178.738 195.894 178.332 195.043 177.52C195.584 177.133 195.99 176.573 196.261 175.838C196.57 175.103 196.725 174.349 196.725 173.576C196.725 172.377 196.338 171.391 195.565 170.618C194.792 169.845 193.612 169.458 192.027 169.458C190.287 169.458 189.03 169.941 188.257 170.908C187.484 171.875 187.097 173.17 187.097 174.794C187.097 176.689 187.542 178.235 188.431 179.434C189.359 180.633 190.5 181.715 191.853 182.682C193.206 183.61 194.656 184.499 196.203 185.35C197.788 186.201 199.258 187.206 200.611 188.366C201.964 189.526 203.086 190.937 203.975 192.6C204.903 194.224 205.367 196.312 205.367 198.864C205.367 201.029 205 202.885 204.265 204.432C203.569 205.979 202.602 207.255 201.365 208.26C200.128 209.227 198.658 209.923 196.957 210.348C195.256 210.812 193.4 211.044 191.389 211.044C189.61 211.044 187.851 210.851 186.111 210.464C184.41 210.116 182.882 209.536 181.529 208.724C180.214 207.873 179.151 206.771 178.339 205.418C177.527 204.026 177.121 202.344 177.121 200.372C177.121 199.057 177.295 197.859 177.643 196.776C178.03 195.693 178.532 194.785 179.151 194.05C179.808 193.315 180.562 192.755 181.413 192.368C182.264 191.943 183.153 191.73 184.081 191.73C184.545 191.73 185.048 191.788 185.589 191.904C186.13 192.02 186.672 192.233 187.213 192.542C187.754 192.813 188.257 193.199 188.721 193.702C189.185 194.205 189.552 194.823 189.823 195.558C189.127 195.558 188.431 195.635 187.735 195.79C187.039 195.945 186.401 196.215 185.821 196.602C185.28 196.989 184.835 197.53 184.487 198.226C184.139 198.883 183.965 199.734 183.965 200.778C183.965 202.789 184.584 204.239 185.821 205.128C187.058 205.979 188.605 206.404 190.461 206.404C192.317 206.404 193.748 205.959 194.753 205.07C195.758 204.181 196.261 202.653 196.261 200.488C196.261 198.477 195.836 196.776 194.985 195.384C194.173 193.992 193.129 192.774 191.853 191.73C190.577 190.686 189.204 189.719 187.735 188.83C186.304 187.902 184.951 186.916 183.675 185.872C182.399 184.789 181.336 183.533 180.485 182.102C179.673 180.671 179.267 178.912 179.267 176.824C179.267 173.46 180.388 170.908 182.631 169.168C184.874 167.389 187.928 166.5 191.795 166.5C192.336 166.5 193.148 166.558 194.231 166.674C195.352 166.751 196.454 167.041 197.537 167.544C198.658 168.008 199.625 168.743 200.437 169.748C201.249 170.715 201.655 172.068 201.655 173.808ZM216.984 181V200.72C216.984 202.344 217.197 203.427 217.622 203.968C218.086 204.471 218.879 204.722 220 204.722C221.122 204.722 222.05 204.239 222.784 203.272C223.558 202.305 224.002 201.087 224.118 199.618H226.554C226.245 201.977 225.704 203.871 224.93 205.302C224.157 206.694 223.287 207.777 222.32 208.55C221.354 209.285 220.368 209.768 219.362 210C218.357 210.232 217.468 210.348 216.694 210.348C213.717 210.348 211.629 209.536 210.43 207.912C209.232 206.249 208.632 204.065 208.632 201.358V181H216.984ZM207.994 173.286C207.994 172.01 208.439 170.927 209.328 170.038C210.218 169.11 211.3 168.646 212.576 168.646C213.852 168.646 214.935 169.11 215.824 170.038C216.752 170.927 217.216 172.01 217.216 173.286C217.216 174.562 216.752 175.645 215.824 176.534C214.935 177.423 213.852 177.868 212.576 177.868C211.3 177.868 210.218 177.423 209.328 176.534C208.439 175.645 207.994 174.562 207.994 173.286ZM247.933 181V207.912C248.745 207.603 249.46 207.235 250.079 206.81C250.698 206.385 251.239 205.863 251.703 205.244C252.167 204.587 252.534 203.813 252.805 202.924C253.114 201.996 253.346 200.894 253.501 199.618H255.937C255.744 201.551 255.376 203.156 254.835 204.432C254.332 205.669 253.694 206.694 252.921 207.506C252.186 208.318 251.374 208.956 250.485 209.42C249.634 209.884 248.784 210.251 247.933 210.522V214.64C247.933 216.728 247.682 218.41 247.179 219.686C246.676 220.962 246.019 221.948 245.207 222.644C244.434 223.379 243.564 223.862 242.597 224.094C241.669 224.365 240.76 224.5 239.871 224.5C238.75 224.5 237.686 224.345 236.681 224.036C235.714 223.727 234.864 223.282 234.129 222.702C233.433 222.161 232.872 221.484 232.447 220.672C232.022 219.86 231.809 218.951 231.809 217.946C231.809 216.902 232.022 215.955 232.447 215.104C232.911 214.292 233.51 213.577 234.245 212.958C234.98 212.339 235.811 211.798 236.739 211.334C237.667 210.909 238.614 210.541 239.581 210.232V205.36C238.924 206.443 238.073 207.351 237.029 208.086C236.024 208.821 234.69 209.188 233.027 209.188C231.828 209.188 230.63 208.956 229.431 208.492C228.232 208.028 227.15 207.293 226.183 206.288C225.216 205.283 224.424 203.968 223.805 202.344C223.225 200.681 222.935 198.69 222.935 196.37C222.935 194.63 223.128 192.851 223.515 191.034C223.902 189.178 224.54 187.496 225.429 185.988C226.357 184.441 227.556 183.185 229.025 182.218C230.533 181.213 232.37 180.71 234.535 180.71C234.922 180.71 235.347 180.749 235.811 180.826C236.314 180.865 236.797 180.981 237.261 181.174C237.725 181.367 238.17 181.657 238.595 182.044C239.02 182.431 239.349 182.953 239.581 183.61V181H247.933ZM236.797 184.306C235.83 184.306 234.999 184.673 234.303 185.408C233.646 186.143 233.085 187.09 232.621 188.25C232.196 189.371 231.886 190.628 231.693 192.02C231.5 193.412 231.403 194.765 231.403 196.08C231.403 197.897 231.558 199.309 231.867 200.314C232.176 201.319 232.544 202.073 232.969 202.576C233.394 203.04 233.82 203.33 234.245 203.446C234.67 203.523 234.999 203.562 235.231 203.562C236.468 203.562 237.454 203.156 238.189 202.344C238.962 201.532 239.426 200.507 239.581 199.27V186.336C239.465 185.949 239.175 185.524 238.711 185.06C238.286 184.557 237.648 184.306 236.797 184.306ZM234.883 217.482C234.883 218.217 235.134 218.816 235.637 219.28C236.14 219.744 236.662 219.976 237.203 219.976C237.899 219.976 238.46 219.551 238.885 218.7C239.349 217.849 239.581 216.554 239.581 214.814V213.132C238.228 213.673 237.106 214.292 236.217 214.988C235.328 215.723 234.883 216.554 234.883 217.482ZM268.282 192.368C268.282 190.087 268.011 188.463 267.47 187.496C266.967 186.529 266.213 186.046 265.208 186.046C264.164 186.046 263.371 186.568 262.83 187.612C262.288 188.656 261.96 189.913 261.844 191.382V210H253.492V181H261.844V184.016C262.772 182.624 263.796 181.735 264.918 181.348C266.039 180.961 267.044 180.768 267.934 180.768C269.055 180.768 270.118 180.942 271.124 181.29C272.129 181.638 272.999 182.218 273.734 183.03C274.507 183.842 275.106 184.925 275.532 186.278C275.957 187.593 276.17 189.236 276.17 191.208C276.17 191.865 276.15 192.581 276.112 193.354C276.112 194.089 276.092 194.843 276.054 195.616C276.015 196.389 275.976 197.143 275.938 197.878C275.938 198.613 275.938 199.251 275.938 199.792C275.938 201.416 276.131 202.653 276.518 203.504C276.943 204.316 277.774 204.722 279.012 204.722C279.94 204.722 280.558 204.606 280.868 204.374C280.868 206.462 280.423 207.989 279.534 208.956C278.683 209.884 277.426 210.348 275.764 210.348C274.333 210.348 273.134 210.077 272.168 209.536C271.201 208.956 270.408 208.183 269.79 207.216C269.21 206.249 268.784 205.128 268.514 203.852C268.282 202.576 268.166 201.223 268.166 199.792C268.166 199.289 268.166 198.709 268.166 198.052C268.204 197.356 268.224 196.679 268.224 196.022C268.224 195.326 268.224 194.669 268.224 194.05C268.262 193.393 268.282 192.832 268.282 192.368Z" fill="white"/>
<path d="M403.748 311.644C373.871 321.736 368.956 277.591 370.233 254.257C369.761 237.366 380.538 228.81 385.985 226.643C375.222 215.886 356.043 188.527 365.435 165.147C366.101 163.488 367.102 161.996 368.398 160.662C375.355 149.155 384.451 127.37 380.81 105.527C375.57 74.0868 421.511 116.37 403.748 151.437C441.909 151.475 494.723 167.71 498.942 186.503C501.152 196.347 488.166 202.931 470.654 206.65C482.976 211.381 492.683 216.902 495.621 222.105C498.363 226.962 493.35 232.862 484.414 238.467C486.361 238.512 488.33 238.56 490.321 238.61C551.268 240.134 441.093 299.028 403.748 311.644Z" fill="#1697B7"/>
<path d="M365.435 165.147C356.043 188.527 375.222 215.886 385.985 226.643C380.538 228.81 369.761 237.366 370.233 254.257C368.956 277.591 373.871 321.736 403.748 311.644C441.093 299.028 551.268 240.134 490.321 238.61C429.374 237.086 388.664 237.369 403.146 253.503C417.628 269.636 505.342 239.32 495.621 222.105C485.899 204.889 402.045 184.18 394.625 200.166C387.205 216.152 505.264 214.665 498.942 186.503C494.723 167.71 441.909 151.474 403.748 151.437M365.435 165.147C372.307 155.754 385.002 130.679 380.81 105.527C375.57 74.0868 421.511 116.37 403.748 151.437M365.435 165.147C369.341 155.425 384.724 151.418 403.748 151.437" stroke="white" stroke-width="4"/>
<path d="M46.3548 219.234C36.3643 222.609 34.7208 207.847 35.1478 200.044C34.9898 194.396 38.5934 191.535 40.415 190.81C36.8158 187.213 30.4026 178.064 33.5433 170.246C33.7661 169.692 34.1006 169.193 34.5339 168.747C36.8603 164.899 39.902 157.614 38.6846 150.31C36.9324 139.797 52.2945 153.936 46.3548 165.662C59.1157 165.674 76.7761 171.103 78.187 177.388C78.926 180.679 74.5836 182.881 68.7277 184.125C72.848 185.707 76.0941 187.553 77.0764 189.293C77.9936 190.917 76.3173 192.89 73.3292 194.764C73.9801 194.779 74.6386 194.795 75.3043 194.812C95.6847 195.322 58.8428 215.015 46.3548 219.234Z" fill="#1697B7"/>
<path d="M33.5433 170.246C30.4026 178.064 36.8158 187.213 40.415 190.81C38.5934 191.535 34.9898 194.396 35.1478 200.044C34.7208 207.847 36.3643 222.609 46.3548 219.234C58.8428 215.015 95.6847 195.322 75.3043 194.812C54.9239 194.302 41.3108 194.397 46.1536 199.792C50.9964 205.187 80.3273 195.05 77.0764 189.293C73.8256 183.536 45.7855 176.611 43.3042 181.957C40.8229 187.302 80.3012 186.805 78.187 177.388C76.7761 171.103 59.1157 165.674 46.3548 165.662M33.5433 170.246C35.8411 167.105 40.0864 158.721 38.6846 150.31C36.9324 139.797 52.2945 153.936 46.3548 165.662M33.5433 170.246C34.8493 166.995 39.9932 165.656 46.3548 165.662" stroke="white" stroke-width="2"/>
<path d="M544.497 311.744C574.373 321.837 579.288 277.691 578.011 254.357C578.484 237.466 567.707 228.91 562.26 226.743C573.023 215.986 592.202 188.627 582.81 165.247C582.143 163.589 581.143 162.096 579.847 160.762C572.89 149.255 563.794 127.47 567.434 105.627C572.674 74.1869 526.734 116.471 544.497 151.537C506.335 151.575 453.522 167.81 449.303 186.603C447.093 196.447 460.079 203.031 477.591 206.75C465.269 211.481 455.562 217.003 452.624 222.205C449.881 227.062 454.894 232.962 463.83 238.567C461.884 238.613 459.914 238.66 457.924 238.71C396.976 240.234 507.151 299.128 544.497 311.744Z" fill="#E8804C"/>
<path d="M582.81 165.247C592.202 188.627 573.023 215.986 562.26 226.743C567.707 228.91 578.484 237.466 578.011 254.357C579.288 277.691 574.373 321.837 544.497 311.744C507.151 299.128 396.976 240.234 457.924 238.71C518.871 237.186 559.581 237.469 545.098 253.603C530.616 269.736 442.902 239.421 452.624 222.205C462.346 204.989 546.199 184.28 553.62 200.266C561.04 216.253 442.98 214.765 449.303 186.603C453.522 167.81 506.335 151.575 544.497 151.537M582.81 165.247C575.938 155.854 563.242 130.779 567.434 105.627C572.674 74.1869 526.734 116.471 544.497 151.537M582.81 165.247C578.904 155.525 563.521 151.518 544.497 151.537" stroke="white" stroke-width="4"/>
<path d="M151.64 79.14C151.215 80.88 150.519 82.4267 149.552 83.78C148.624 85.0947 147.483 86.216 146.13 87.144C144.815 88.072 143.327 88.768 141.664 89.232C140.04 89.696 138.319 89.928 136.502 89.928C131.514 89.928 127.628 88.1687 124.844 84.65C122.099 81.1313 120.726 75.8147 120.726 68.7C120.726 66.0707 120.958 63.3833 121.422 60.638C121.886 57.8927 122.698 55.3987 123.858 53.156C125.018 50.9133 126.565 49.0767 128.498 47.646C130.47 46.2153 132.945 45.5 135.922 45.5C137.353 45.5 138.745 45.6933 140.098 46.08C141.451 46.428 142.631 46.9887 143.636 47.762C144.68 48.4967 145.511 49.444 146.13 50.604C146.749 51.764 147.058 53.1173 147.058 54.664C147.058 55.824 146.826 56.7713 146.362 57.506C145.937 58.2407 145.125 58.608 143.926 58.608C143.462 58.608 142.901 58.5307 142.244 58.376C141.625 58.1827 140.968 57.7573 140.272 57.1C140.775 56.7907 141.181 56.23 141.49 55.418C141.799 54.5673 141.954 53.736 141.954 52.924C141.954 51.6867 141.587 50.604 140.852 49.676C140.117 48.7093 139.131 48.226 137.894 48.226C136.579 48.226 135.439 48.7867 134.472 49.908C133.505 51.0293 132.693 52.518 132.036 54.374C131.417 56.1913 130.953 58.2793 130.644 60.638C130.335 62.958 130.18 65.336 130.18 67.772C130.18 70.9813 130.431 73.6687 130.934 75.834C131.475 77.9993 132.191 79.7393 133.08 81.054C133.969 82.3687 135.013 83.2967 136.212 83.838C137.449 84.3793 138.764 84.65 140.156 84.65C142.36 84.65 144.332 84.1087 146.072 83.026C147.851 81.9047 149.223 80.416 150.19 78.56L151.64 79.14ZM161.435 59.71C163.833 59.71 165.785 60.3093 167.293 61.508C168.801 62.668 169.884 64.524 170.541 67.076C170.889 66.8827 171.199 66.6313 171.469 66.322C171.779 65.974 172.03 65.626 172.223 65.278C172.455 64.8913 172.649 64.524 172.803 64.176C172.958 63.828 173.074 63.538 173.151 63.306H175.007C174.853 63.886 174.659 64.524 174.427 65.22C174.234 65.916 173.983 66.612 173.673 67.308C173.403 67.9653 173.055 68.6033 172.629 69.222C172.204 69.8407 171.682 70.382 171.063 70.846C171.102 71.2327 171.121 71.6387 171.121 72.064C171.16 72.4507 171.179 72.8567 171.179 73.282C171.179 75.5247 170.986 77.632 170.599 79.604C170.213 81.5373 169.555 83.2387 168.627 84.708C167.738 86.1387 166.578 87.2793 165.147 88.13C163.717 88.942 161.957 89.348 159.869 89.348C158.439 89.348 157.066 89.1353 155.751 88.71C154.475 88.246 153.335 87.5113 152.329 86.506C151.324 85.462 150.512 84.1087 149.893 82.446C149.313 80.7447 149.023 78.676 149.023 76.24C149.023 74.5773 149.197 72.7987 149.545 70.904C149.893 68.9707 150.531 67.1727 151.459 65.51C152.387 63.8473 153.644 62.4747 155.229 61.392C156.853 60.2707 158.922 59.71 161.435 59.71ZM161.493 83.896C162.305 83.896 163.001 83.6253 163.581 83.084C164.2 82.504 164.703 81.7307 165.089 80.764C165.476 79.7587 165.747 78.5793 165.901 77.226C166.095 75.8727 166.191 74.4033 166.191 72.818V72.006C164.645 71.658 163.871 70.5173 163.871 68.584C163.871 67.3467 164.374 66.5347 165.379 66.148C164.954 64.9107 164.432 64.118 163.813 63.77C163.233 63.3833 162.731 63.19 162.305 63.19C161.455 63.19 160.72 63.596 160.101 64.408C159.521 65.1813 159.038 66.1867 158.651 67.424C158.265 68.6227 157.975 69.9567 157.781 71.426C157.627 72.8953 157.549 74.3067 157.549 75.66C157.549 77.4 157.665 78.8113 157.897 79.894C158.168 80.9767 158.497 81.808 158.883 82.388C159.27 82.968 159.695 83.374 160.159 83.606C160.623 83.7993 161.068 83.896 161.493 83.896ZM201.655 52.808C201.655 54.2773 201.326 55.476 200.669 56.404C200.05 57.2933 199.142 57.738 197.943 57.738C196.86 57.738 195.894 57.332 195.043 56.52C195.584 56.1333 195.99 55.5727 196.261 54.838C196.57 54.1033 196.725 53.3493 196.725 52.576C196.725 51.3773 196.338 50.3913 195.565 49.618C194.792 48.8447 193.612 48.458 192.027 48.458C190.287 48.458 189.03 48.9413 188.257 49.908C187.484 50.8747 187.097 52.17 187.097 53.794C187.097 55.6887 187.542 57.2353 188.431 58.434C189.359 59.6327 190.5 60.7153 191.853 61.682C193.206 62.61 194.656 63.4993 196.203 64.35C197.788 65.2007 199.258 66.206 200.611 67.366C201.964 68.526 203.086 69.9373 203.975 71.6C204.903 73.224 205.367 75.312 205.367 77.864C205.367 80.0293 205 81.8853 204.265 83.432C203.569 84.9787 202.602 86.2547 201.365 87.26C200.128 88.2267 198.658 88.9227 196.957 89.348C195.256 89.812 193.4 90.044 191.389 90.044C189.61 90.044 187.851 89.8507 186.111 89.464C184.41 89.116 182.882 88.536 181.529 87.724C180.214 86.8733 179.151 85.7713 178.339 84.418C177.527 83.026 177.121 81.344 177.121 79.372C177.121 78.0573 177.295 76.8587 177.643 75.776C178.03 74.6933 178.532 73.7847 179.151 73.05C179.808 72.3153 180.562 71.7547 181.413 71.368C182.264 70.9427 183.153 70.73 184.081 70.73C184.545 70.73 185.048 70.788 185.589 70.904C186.13 71.02 186.672 71.2327 187.213 71.542C187.754 71.8127 188.257 72.1993 188.721 72.702C189.185 73.2047 189.552 73.8233 189.823 74.558C189.127 74.558 188.431 74.6353 187.735 74.79C187.039 74.9447 186.401 75.2153 185.821 75.602C185.28 75.9887 184.835 76.53 184.487 77.226C184.139 77.8833 183.965 78.734 183.965 79.778C183.965 81.7887 184.584 83.2387 185.821 84.128C187.058 84.9787 188.605 85.404 190.461 85.404C192.317 85.404 193.748 84.9593 194.753 84.07C195.758 83.1807 196.261 81.6533 196.261 79.488C196.261 77.4773 195.836 75.776 194.985 74.384C194.173 72.992 193.129 71.774 191.853 70.73C190.577 69.686 189.204 68.7193 187.735 67.83C186.304 66.902 184.951 65.916 183.675 64.872C182.399 63.7893 181.336 62.5327 180.485 61.102C179.673 59.6713 179.267 57.912 179.267 55.824C179.267 52.46 180.388 49.908 182.631 48.168C184.874 46.3893 187.928 45.5 191.795 45.5C192.336 45.5 193.148 45.558 194.231 45.674C195.352 45.7513 196.454 46.0413 197.537 46.544C198.658 47.008 199.625 47.7427 200.437 48.748C201.249 49.7147 201.655 51.068 201.655 52.808ZM216.984 60V79.72C216.984 81.344 217.197 82.4267 217.622 82.968C218.086 83.4707 218.879 83.722 220 83.722C221.122 83.722 222.05 83.2387 222.784 82.272C223.558 81.3053 224.002 80.0873 224.118 78.618H226.554C226.245 80.9767 225.704 82.8713 224.93 84.302C224.157 85.694 223.287 86.7767 222.32 87.55C221.354 88.2847 220.368 88.768 219.362 89C218.357 89.232 217.468 89.348 216.694 89.348C213.717 89.348 211.629 88.536 210.43 86.912C209.232 85.2493 208.632 83.0647 208.632 80.358V60H216.984ZM207.994 52.286C207.994 51.01 208.439 49.9273 209.328 49.038C210.218 48.11 211.3 47.646 212.576 47.646C213.852 47.646 214.935 48.11 215.824 49.038C216.752 49.9273 217.216 51.01 217.216 52.286C217.216 53.562 216.752 54.6447 215.824 55.534C214.935 56.4233 213.852 56.868 212.576 56.868C211.3 56.868 210.218 56.4233 209.328 55.534C208.439 54.6447 207.994 53.562 207.994 52.286ZM247.933 60V86.912C248.745 86.6027 249.46 86.2353 250.079 85.81C250.698 85.3847 251.239 84.8627 251.703 84.244C252.167 83.5867 252.534 82.8133 252.805 81.924C253.114 80.996 253.346 79.894 253.501 78.618H255.937C255.744 80.5513 255.376 82.156 254.835 83.432C254.332 84.6693 253.694 85.694 252.921 86.506C252.186 87.318 251.374 87.956 250.485 88.42C249.634 88.884 248.784 89.2513 247.933 89.522V93.64C247.933 95.728 247.682 97.41 247.179 98.686C246.676 99.962 246.019 100.948 245.207 101.644C244.434 102.379 243.564 102.862 242.597 103.094C241.669 103.365 240.76 103.5 239.871 103.5C238.75 103.5 237.686 103.345 236.681 103.036C235.714 102.727 234.864 102.282 234.129 101.702C233.433 101.161 232.872 100.484 232.447 99.672C232.022 98.86 231.809 97.9513 231.809 96.946C231.809 95.902 232.022 94.9547 232.447 94.104C232.911 93.292 233.51 92.5767 234.245 91.958C234.98 91.3393 235.811 90.798 236.739 90.334C237.667 89.9087 238.614 89.5413 239.581 89.232V84.36C238.924 85.4427 238.073 86.3513 237.029 87.086C236.024 87.8207 234.69 88.188 233.027 88.188C231.828 88.188 230.63 87.956 229.431 87.492C228.232 87.028 227.15 86.2933 226.183 85.288C225.216 84.2827 224.424 82.968 223.805 81.344C223.225 79.6813 222.935 77.69 222.935 75.37C222.935 73.63 223.128 71.8513 223.515 70.034C223.902 68.178 224.54 66.496 225.429 64.988C226.357 63.4413 227.556 62.1847 229.025 61.218C230.533 60.2127 232.37 59.71 234.535 59.71C234.922 59.71 235.347 59.7487 235.811 59.826C236.314 59.8647 236.797 59.9807 237.261 60.174C237.725 60.3673 238.17 60.6573 238.595 61.044C239.02 61.4307 239.349 61.9527 239.581 62.61V60H247.933ZM236.797 63.306C235.83 63.306 234.999 63.6733 234.303 64.408C233.646 65.1427 233.085 66.09 232.621 67.25C232.196 68.3713 231.886 69.628 231.693 71.02C231.5 72.412 231.403 73.7653 231.403 75.08C231.403 76.8973 231.558 78.3087 231.867 79.314C232.176 80.3193 232.544 81.0733 232.969 81.576C233.394 82.04 233.82 82.33 234.245 82.446C234.67 82.5233 234.999 82.562 235.231 82.562C236.468 82.562 237.454 82.156 238.189 81.344C238.962 80.532 239.426 79.5073 239.581 78.27V65.336C239.465 64.9493 239.175 64.524 238.711 64.06C238.286 63.5573 237.648 63.306 236.797 63.306ZM234.883 96.482C234.883 97.2167 235.134 97.816 235.637 98.28C236.14 98.744 236.662 98.976 237.203 98.976C237.899 98.976 238.46 98.5507 238.885 97.7C239.349 96.8493 239.581 95.554 239.581 93.814V92.132C238.228 92.6733 237.106 93.292 236.217 93.988C235.328 94.7227 234.883 95.554 234.883 96.482ZM268.282 71.368C268.282 69.0867 268.011 67.4627 267.47 66.496C266.967 65.5293 266.213 65.046 265.208 65.046C264.164 65.046 263.371 65.568 262.83 66.612C262.288 67.656 261.96 68.9127 261.844 70.382V89H253.492V60H261.844V63.016C262.772 61.624 263.796 60.7347 264.918 60.348C266.039 59.9613 267.044 59.768 267.934 59.768C269.055 59.768 270.118 59.942 271.124 60.29C272.129 60.638 272.999 61.218 273.734 62.03C274.507 62.842 275.106 63.9247 275.532 65.278C275.957 66.5927 276.17 68.236 276.17 70.208C276.17 70.8653 276.15 71.5807 276.112 72.354C276.112 73.0887 276.092 73.8427 276.054 74.616C276.015 75.3893 275.976 76.1433 275.938 76.878C275.938 77.6127 275.938 78.2507 275.938 78.792C275.938 80.416 276.131 81.6533 276.518 82.504C276.943 83.316 277.774 83.722 279.012 83.722C279.94 83.722 280.558 83.606 280.868 83.374C280.868 85.462 280.423 86.9893 279.534 87.956C278.683 88.884 277.426 89.348 275.764 89.348C274.333 89.348 273.134 89.0773 272.168 88.536C271.201 87.956 270.408 87.1827 269.79 86.216C269.21 85.2493 268.784 84.128 268.514 82.852C268.282 81.576 268.166 80.2227 268.166 78.792C268.166 78.2893 268.166 77.7093 268.166 77.052C268.204 76.356 268.224 75.6793 268.224 75.022C268.224 74.326 268.224 73.6687 268.224 73.05C268.262 72.3927 268.282 71.832 268.282 71.368Z" fill="#0E5364"/>
<path d="M46.355 99.2339C36.3646 102.609 34.721 87.8469 35.1481 80.0441C34.99 74.3961 38.5937 71.535 40.4153 70.8104C36.816 67.2133 30.4028 58.0645 33.5435 50.2465C33.7663 49.6918 34.1009 49.1928 34.5341 48.7465C36.8606 44.8989 39.9023 37.6141 38.6849 30.3099C36.9327 19.7965 52.2948 33.9359 46.355 45.6619C59.1159 45.6744 76.7764 51.1035 78.1873 57.3878C78.9262 60.6794 74.5839 62.8812 68.7279 64.1247C72.8483 65.7068 76.0943 67.5531 77.0767 69.2927C77.9939 70.9169 76.3176 72.8898 73.3294 74.7641C73.9803 74.7793 74.6388 74.7953 75.3045 74.812C95.6849 75.3216 58.843 95.0152 46.355 99.2339Z" fill="#1697B7"/>
<path d="M33.5435 50.2465C30.4028 58.0645 36.816 67.2133 40.4153 70.8104C38.5937 71.535 34.99 74.3961 35.1481 80.0441C34.721 87.8469 36.3646 102.609 46.355 99.2339C58.8431 95.0152 95.6849 75.3216 75.3045 74.812C54.9242 74.3023 41.3111 74.3971 46.1539 79.792C50.9967 85.1869 80.3276 75.0495 77.0767 69.2927C73.8258 63.5359 45.7857 56.611 43.3044 61.9567C40.8231 67.3023 80.3015 66.805 78.1873 57.3878C76.7764 51.1035 59.1159 45.6744 46.355 45.6619M33.5435 50.2465C35.8414 47.1054 40.0867 38.7205 38.6849 30.3099C36.9327 19.7965 52.2948 33.9359 46.355 45.6619M33.5435 50.2465C34.8495 46.9954 39.9935 45.6556 46.355 45.6619" stroke="white" stroke-width="2"/>
<path d="M93.1635 98.8072C103.154 102.182 104.798 87.4202 104.37 79.6173C104.529 73.9693 100.925 71.1082 99.1033 70.3836C102.703 66.7865 109.116 57.6377 105.975 49.8197C105.752 49.2651 105.418 48.766 104.984 48.3198C102.658 44.4722 99.6163 37.1874 100.834 29.8831C102.586 19.3698 87.2238 33.5091 93.1635 45.2351C80.4026 45.2477 62.7422 50.6767 61.3313 56.9611C60.5923 60.2526 64.9347 62.4545 70.7906 63.6979C66.6703 65.2801 63.4242 67.1264 62.4419 68.866C61.5247 70.4902 63.201 72.463 66.1891 74.3374C65.5382 74.3526 64.8797 74.3686 64.214 74.3852C43.8337 74.8949 80.6755 94.5885 93.1635 98.8072Z" fill="#E8804C"/>
<path d="M105.975 49.8197C109.116 57.6377 102.703 66.7865 99.1033 70.3836C100.925 71.1082 104.529 73.9693 104.37 79.6173C104.798 87.4202 103.154 102.182 93.1635 98.8072C80.6755 94.5885 43.8337 74.8949 64.214 74.3852C84.5944 73.8756 98.2075 73.9703 93.3647 79.3652C88.5219 84.7601 59.191 74.6228 62.4419 68.866C65.6928 63.1092 93.7328 56.1843 96.2141 61.5299C98.6954 66.8755 59.2171 66.3783 61.3313 56.9611C62.7422 50.6767 80.4026 45.2477 93.1635 45.2351M105.975 49.8197C103.677 46.6786 99.4319 38.2938 100.834 29.8831C102.586 19.3698 87.2238 33.5091 93.1635 45.2351M105.975 49.8197C104.669 46.5687 99.5251 45.2288 93.1635 45.2351" stroke="white" stroke-width="2"/>
<path d="M93.1638 218.807C103.154 222.182 104.798 207.42 104.371 199.617C104.529 193.969 100.925 191.108 99.1035 190.384C102.703 186.787 109.116 177.638 105.975 169.82C105.752 169.265 105.418 168.766 104.985 168.32C102.658 164.472 99.6165 157.187 100.834 149.883C102.586 139.37 87.224 153.509 93.1638 165.235C80.4029 165.248 62.7424 170.677 61.3315 176.961C60.5926 180.253 64.9349 182.454 70.7909 183.698C66.6705 185.28 63.4245 187.126 62.4421 188.866C61.5249 190.49 63.2012 192.463 66.1894 194.337C65.5385 194.353 64.88 194.369 64.2143 194.385C43.8339 194.895 80.6757 214.588 93.1638 218.807Z" fill="#E8804C"/>
<path d="M105.975 169.82C109.116 177.638 102.703 186.787 99.1035 190.384C100.925 191.108 104.529 193.969 104.371 199.617C104.798 207.42 103.154 222.182 93.1638 218.807C80.6757 214.588 43.8339 194.895 64.2143 194.385C84.5946 193.876 98.2077 193.97 93.3649 199.365C88.5221 204.76 59.1912 194.623 62.4421 188.866C65.693 183.109 93.7331 176.184 96.2144 181.53C98.6957 186.876 59.2173 186.378 61.3315 176.961C62.7424 170.677 80.4029 165.248 93.1638 165.235M105.975 169.82C103.677 166.679 99.4321 158.294 100.834 149.883C102.586 139.37 87.224 153.509 93.1638 165.235M105.975 169.82C104.669 166.569 99.5253 165.229 93.1638 165.235" stroke="white" stroke-width="2"/>
<path d="M150.409 294.227L149.205 294.568C149.129 294.367 149.017 294.172 148.869 293.983C148.725 293.79 148.528 293.631 148.278 293.506C148.028 293.381 147.708 293.318 147.318 293.318C146.784 293.318 146.339 293.441 145.983 293.688C145.631 293.93 145.455 294.239 145.455 294.614C145.455 294.947 145.576 295.21 145.818 295.403C146.061 295.597 146.439 295.758 146.955 295.886L148.25 296.205C149.03 296.394 149.612 296.684 149.994 297.074C150.377 297.46 150.568 297.958 150.568 298.568C150.568 299.068 150.424 299.515 150.136 299.909C149.852 300.303 149.455 300.614 148.943 300.841C148.432 301.068 147.837 301.182 147.159 301.182C146.269 301.182 145.532 300.989 144.949 300.602C144.366 300.216 143.996 299.652 143.841 298.909L145.114 298.591C145.235 299.061 145.464 299.413 145.801 299.648C146.142 299.883 146.587 300 147.136 300C147.761 300 148.258 299.867 148.625 299.602C148.996 299.333 149.182 299.011 149.182 298.636C149.182 298.333 149.076 298.08 148.864 297.875C148.652 297.667 148.326 297.511 147.886 297.409L146.432 297.068C145.633 296.879 145.045 296.585 144.67 296.188C144.299 295.786 144.114 295.284 144.114 294.682C144.114 294.189 144.252 293.754 144.528 293.375C144.809 292.996 145.189 292.699 145.67 292.483C146.155 292.267 146.705 292.159 147.318 292.159C148.182 292.159 148.86 292.348 149.352 292.727C149.848 293.106 150.201 293.606 150.409 294.227ZM153.928 289.364V301H152.587V289.364H153.928ZM159.929 301.182C159.141 301.182 158.45 300.994 157.855 300.619C157.264 300.244 156.802 299.72 156.469 299.045C156.139 298.371 155.974 297.583 155.974 296.682C155.974 295.773 156.139 294.979 156.469 294.301C156.802 293.623 157.264 293.097 157.855 292.722C158.45 292.347 159.141 292.159 159.929 292.159C160.717 292.159 161.406 292.347 161.997 292.722C162.592 293.097 163.054 293.623 163.384 294.301C163.717 294.979 163.884 295.773 163.884 296.682C163.884 297.583 163.717 298.371 163.384 299.045C163.054 299.72 162.592 300.244 161.997 300.619C161.406 300.994 160.717 301.182 159.929 301.182ZM159.929 299.977C160.527 299.977 161.02 299.824 161.406 299.517C161.793 299.21 162.079 298.807 162.264 298.307C162.45 297.807 162.543 297.265 162.543 296.682C162.543 296.098 162.45 295.555 162.264 295.051C162.079 294.547 161.793 294.14 161.406 293.83C161.02 293.519 160.527 293.364 159.929 293.364C159.33 293.364 158.838 293.519 158.452 293.83C158.065 294.14 157.779 294.547 157.594 295.051C157.408 295.555 157.315 296.098 157.315 296.682C157.315 297.265 157.408 297.807 157.594 298.307C157.779 298.807 158.065 299.21 158.452 299.517C158.838 299.824 159.33 299.977 159.929 299.977ZM167.611 301L164.952 292.273H166.361L168.247 298.955H168.338L170.202 292.273H171.634L173.474 298.932H173.565L175.452 292.273H176.861L174.202 301H172.884L170.974 294.295H170.838L168.929 301H167.611ZM183.134 301V292.273H184.429V293.636H184.543C184.724 293.17 185.018 292.809 185.423 292.551C185.829 292.29 186.315 292.159 186.884 292.159C187.459 292.159 187.938 292.29 188.321 292.551C188.707 292.809 189.009 293.17 189.224 293.636H189.315C189.539 293.186 189.874 292.828 190.321 292.562C190.768 292.294 191.304 292.159 191.929 292.159C192.709 292.159 193.348 292.403 193.844 292.892C194.34 293.377 194.588 294.133 194.588 295.159V301H193.247V295.159C193.247 294.515 193.071 294.055 192.719 293.778C192.366 293.502 191.952 293.364 191.474 293.364C190.861 293.364 190.385 293.549 190.048 293.92C189.711 294.288 189.543 294.754 189.543 295.318V301H188.179V295.023C188.179 294.527 188.018 294.127 187.696 293.824C187.374 293.517 186.959 293.364 186.452 293.364C186.103 293.364 185.777 293.456 185.474 293.642C185.175 293.828 184.933 294.085 184.747 294.415C184.565 294.741 184.474 295.117 184.474 295.545V301H183.134ZM200.585 301.182C199.797 301.182 199.106 300.994 198.511 300.619C197.92 300.244 197.458 299.72 197.125 299.045C196.795 298.371 196.631 297.583 196.631 296.682C196.631 295.773 196.795 294.979 197.125 294.301C197.458 293.623 197.92 293.097 198.511 292.722C199.106 292.347 199.797 292.159 200.585 292.159C201.373 292.159 202.063 292.347 202.653 292.722C203.248 293.097 203.71 293.623 204.04 294.301C204.373 294.979 204.54 295.773 204.54 296.682C204.54 297.583 204.373 298.371 204.04 299.045C203.71 299.72 203.248 300.244 202.653 300.619C202.063 300.994 201.373 301.182 200.585 301.182ZM200.585 299.977C201.184 299.977 201.676 299.824 202.062 299.517C202.449 299.21 202.735 298.807 202.92 298.307C203.106 297.807 203.199 297.265 203.199 296.682C203.199 296.098 203.106 295.555 202.92 295.051C202.735 294.547 202.449 294.14 202.062 293.83C201.676 293.519 201.184 293.364 200.585 293.364C199.987 293.364 199.494 293.519 199.108 293.83C198.722 294.14 198.436 294.547 198.25 295.051C198.064 295.555 197.972 296.098 197.972 296.682C197.972 297.265 198.064 297.807 198.25 298.307C198.436 298.807 198.722 299.21 199.108 299.517C199.494 299.824 199.987 299.977 200.585 299.977ZM209.882 301.182C209.155 301.182 208.513 300.998 207.956 300.631C207.399 300.259 206.964 299.737 206.649 299.062C206.335 298.384 206.178 297.583 206.178 296.659C206.178 295.742 206.335 294.947 206.649 294.273C206.964 293.598 207.401 293.078 207.962 292.71C208.522 292.343 209.17 292.159 209.905 292.159C210.473 292.159 210.922 292.254 211.251 292.443C211.585 292.629 211.839 292.841 212.013 293.08C212.191 293.314 212.329 293.508 212.428 293.659H212.541V289.364H213.882V301H212.587V299.659H212.428C212.329 299.818 212.189 300.019 212.007 300.261C211.825 300.5 211.566 300.714 211.229 300.903C210.892 301.089 210.443 301.182 209.882 301.182ZM210.064 299.977C210.602 299.977 211.056 299.837 211.428 299.557C211.799 299.273 212.081 298.881 212.274 298.381C212.467 297.877 212.564 297.295 212.564 296.636C212.564 295.985 212.469 295.415 212.28 294.926C212.09 294.434 211.81 294.051 211.439 293.778C211.068 293.502 210.609 293.364 210.064 293.364C209.496 293.364 209.022 293.509 208.643 293.801C208.268 294.089 207.986 294.481 207.797 294.977C207.611 295.47 207.518 296.023 207.518 296.636C207.518 297.258 207.613 297.822 207.803 298.33C207.996 298.833 208.28 299.235 208.655 299.534C209.034 299.83 209.503 299.977 210.064 299.977ZM220.183 301.182C219.342 301.182 218.617 300.996 218.007 300.625C217.401 300.25 216.933 299.727 216.604 299.057C216.278 298.383 216.115 297.598 216.115 296.705C216.115 295.811 216.278 295.023 216.604 294.341C216.933 293.655 217.392 293.121 217.979 292.739C218.57 292.352 219.259 292.159 220.047 292.159C220.501 292.159 220.95 292.235 221.393 292.386C221.837 292.538 222.24 292.784 222.604 293.125C222.967 293.462 223.257 293.909 223.473 294.466C223.689 295.023 223.797 295.708 223.797 296.523V297.091H217.07V295.932H222.433C222.433 295.439 222.335 295 222.138 294.614C221.945 294.227 221.668 293.922 221.308 293.699C220.952 293.475 220.532 293.364 220.047 293.364C219.513 293.364 219.051 293.496 218.661 293.761C218.274 294.023 217.977 294.364 217.768 294.784C217.56 295.205 217.456 295.655 217.456 296.136V296.909C217.456 297.568 217.57 298.127 217.797 298.585C218.028 299.04 218.348 299.386 218.757 299.625C219.166 299.86 219.642 299.977 220.183 299.977C220.536 299.977 220.854 299.928 221.138 299.83C221.426 299.727 221.674 299.576 221.882 299.375C222.09 299.17 222.251 298.917 222.365 298.614L223.661 298.977C223.524 299.417 223.295 299.803 222.973 300.136C222.651 300.466 222.253 300.723 221.78 300.909C221.306 301.091 220.774 301.182 220.183 301.182Z" fill="black"/>
<path d="M144.227 362V353.273H145.523V354.636H145.636C145.818 354.17 146.112 353.809 146.517 353.551C146.922 353.29 147.409 353.159 147.977 353.159C148.553 353.159 149.032 353.29 149.415 353.551C149.801 353.809 150.102 354.17 150.318 354.636H150.409C150.633 354.186 150.968 353.828 151.415 353.562C151.862 353.294 152.398 353.159 153.023 353.159C153.803 353.159 154.441 353.403 154.938 353.892C155.434 354.377 155.682 355.133 155.682 356.159V362H154.341V356.159C154.341 355.515 154.165 355.055 153.812 354.778C153.46 354.502 153.045 354.364 152.568 354.364C151.955 354.364 151.479 354.549 151.142 354.92C150.805 355.288 150.636 355.754 150.636 356.318V362H149.273V356.023C149.273 355.527 149.112 355.127 148.79 354.824C148.468 354.517 148.053 354.364 147.545 354.364C147.197 354.364 146.871 354.456 146.568 354.642C146.269 354.828 146.027 355.085 145.841 355.415C145.659 355.741 145.568 356.117 145.568 356.545V362H144.227ZM158.134 362V353.273H159.474V362H158.134ZM158.815 351.818C158.554 351.818 158.329 351.729 158.139 351.551C157.954 351.373 157.861 351.159 157.861 350.909C157.861 350.659 157.954 350.445 158.139 350.267C158.329 350.089 158.554 350 158.815 350C159.077 350 159.3 350.089 159.486 350.267C159.675 350.445 159.77 350.659 159.77 350.909C159.77 351.159 159.675 351.373 159.486 351.551C159.3 351.729 159.077 351.818 158.815 351.818ZM161.93 362V353.273H163.226V354.591H163.317C163.476 354.159 163.764 353.809 164.18 353.54C164.597 353.271 165.067 353.136 165.589 353.136C165.688 353.136 165.811 353.138 165.959 353.142C166.107 353.146 166.218 353.152 166.294 353.159V354.523C166.249 354.511 166.144 354.494 165.982 354.472C165.822 354.445 165.654 354.432 165.476 354.432C165.052 354.432 164.673 354.521 164.339 354.699C164.01 354.873 163.749 355.116 163.555 355.426C163.366 355.733 163.271 356.083 163.271 356.477V362H161.93ZM167.884 362V353.273H169.179V354.591H169.27C169.429 354.159 169.717 353.809 170.134 353.54C170.55 353.271 171.02 353.136 171.543 353.136C171.641 353.136 171.764 353.138 171.912 353.142C172.06 353.146 172.171 353.152 172.247 353.159V354.523C172.202 354.511 172.098 354.494 171.935 354.472C171.776 354.445 171.607 354.432 171.429 354.432C171.005 354.432 170.626 354.521 170.293 354.699C169.963 354.873 169.702 355.116 169.509 355.426C169.319 355.733 169.224 356.083 169.224 356.477V362H167.884ZM177.116 362.182C176.329 362.182 175.637 361.994 175.043 361.619C174.452 361.244 173.99 360.72 173.656 360.045C173.327 359.371 173.162 358.583 173.162 357.682C173.162 356.773 173.327 355.979 173.656 355.301C173.99 354.623 174.452 354.097 175.043 353.722C175.637 353.347 176.329 353.159 177.116 353.159C177.904 353.159 178.594 353.347 179.185 353.722C179.779 354.097 180.241 354.623 180.571 355.301C180.904 355.979 181.071 356.773 181.071 357.682C181.071 358.583 180.904 359.371 180.571 360.045C180.241 360.72 179.779 361.244 179.185 361.619C178.594 361.994 177.904 362.182 177.116 362.182ZM177.116 360.977C177.715 360.977 178.207 360.824 178.594 360.517C178.98 360.21 179.266 359.807 179.452 359.307C179.637 358.807 179.73 358.265 179.73 357.682C179.73 357.098 179.637 356.555 179.452 356.051C179.266 355.547 178.98 355.14 178.594 354.83C178.207 354.519 177.715 354.364 177.116 354.364C176.518 354.364 176.026 354.519 175.639 354.83C175.253 355.14 174.967 355.547 174.781 356.051C174.596 356.555 174.503 357.098 174.503 357.682C174.503 358.265 174.596 358.807 174.781 359.307C174.967 359.807 175.253 360.21 175.639 360.517C176.026 360.824 176.518 360.977 177.116 360.977ZM183.118 362V353.273H184.413V354.591H184.504C184.663 354.159 184.951 353.809 185.368 353.54C185.785 353.271 186.254 353.136 186.777 353.136C186.875 353.136 186.999 353.138 187.146 353.142C187.294 353.146 187.406 353.152 187.482 353.159V354.523C187.436 354.511 187.332 354.494 187.169 354.472C187.01 354.445 186.841 354.432 186.663 354.432C186.239 354.432 185.86 354.521 185.527 354.699C185.197 354.873 184.936 355.116 184.743 355.426C184.554 355.733 184.459 356.083 184.459 356.477V362H183.118ZM193.571 362V353.273H194.866V354.636H194.98C195.162 354.17 195.455 353.809 195.861 353.551C196.266 353.29 196.753 353.159 197.321 353.159C197.897 353.159 198.376 353.29 198.759 353.551C199.145 353.809 199.446 354.17 199.662 354.636H199.753C199.976 354.186 200.312 353.828 200.759 353.562C201.205 353.294 201.741 353.159 202.366 353.159C203.147 353.159 203.785 353.403 204.281 353.892C204.777 354.377 205.026 355.133 205.026 356.159V362H203.685V356.159C203.685 355.515 203.509 355.055 203.156 354.778C202.804 354.502 202.389 354.364 201.912 354.364C201.298 354.364 200.823 354.549 200.486 354.92C200.149 355.288 199.98 355.754 199.98 356.318V362H198.616V356.023C198.616 355.527 198.455 355.127 198.134 354.824C197.812 354.517 197.397 354.364 196.889 354.364C196.541 354.364 196.215 354.456 195.912 354.642C195.613 354.828 195.37 355.085 195.185 355.415C195.003 355.741 194.912 356.117 194.912 356.545V362H193.571ZM211.023 362.182C210.235 362.182 209.544 361.994 208.949 361.619C208.358 361.244 207.896 360.72 207.562 360.045C207.233 359.371 207.068 358.583 207.068 357.682C207.068 356.773 207.233 355.979 207.562 355.301C207.896 354.623 208.358 354.097 208.949 353.722C209.544 353.347 210.235 353.159 211.023 353.159C211.811 353.159 212.5 353.347 213.091 353.722C213.686 354.097 214.148 354.623 214.477 355.301C214.811 355.979 214.977 356.773 214.977 357.682C214.977 358.583 214.811 359.371 214.477 360.045C214.148 360.72 213.686 361.244 213.091 361.619C212.5 361.994 211.811 362.182 211.023 362.182ZM211.023 360.977C211.621 360.977 212.114 360.824 212.5 360.517C212.886 360.21 213.172 359.807 213.358 359.307C213.544 358.807 213.636 358.265 213.636 357.682C213.636 357.098 213.544 356.555 213.358 356.051C213.172 355.547 212.886 355.14 212.5 354.83C212.114 354.519 211.621 354.364 211.023 354.364C210.424 354.364 209.932 354.519 209.545 354.83C209.159 355.14 208.873 355.547 208.688 356.051C208.502 356.555 208.409 357.098 208.409 357.682C208.409 358.265 208.502 358.807 208.688 359.307C208.873 359.807 209.159 360.21 209.545 360.517C209.932 360.824 210.424 360.977 211.023 360.977ZM220.32 362.182C219.592 362.182 218.95 361.998 218.393 361.631C217.837 361.259 217.401 360.737 217.087 360.062C216.772 359.384 216.615 358.583 216.615 357.659C216.615 356.742 216.772 355.947 217.087 355.273C217.401 354.598 217.839 354.078 218.399 353.71C218.96 353.343 219.607 353.159 220.342 353.159C220.911 353.159 221.359 353.254 221.689 353.443C222.022 353.629 222.276 353.841 222.45 354.08C222.628 354.314 222.767 354.508 222.865 354.659H222.979V350.364H224.32V362H223.024V360.659H222.865C222.767 360.818 222.626 361.019 222.445 361.261C222.263 361.5 222.003 361.714 221.666 361.903C221.329 362.089 220.88 362.182 220.32 362.182ZM220.501 360.977C221.039 360.977 221.494 360.837 221.865 360.557C222.236 360.273 222.518 359.881 222.712 359.381C222.905 358.877 223.001 358.295 223.001 357.636C223.001 356.985 222.907 356.415 222.717 355.926C222.528 355.434 222.248 355.051 221.876 354.778C221.505 354.502 221.047 354.364 220.501 354.364C219.933 354.364 219.46 354.509 219.081 354.801C218.706 355.089 218.424 355.481 218.234 355.977C218.049 356.47 217.956 357.023 217.956 357.636C217.956 358.258 218.051 358.822 218.24 359.33C218.433 359.833 218.717 360.235 219.092 360.534C219.471 360.83 219.941 360.977 220.501 360.977ZM230.621 362.182C229.78 362.182 229.054 361.996 228.445 361.625C227.839 361.25 227.371 360.727 227.041 360.057C226.715 359.383 226.553 358.598 226.553 357.705C226.553 356.811 226.715 356.023 227.041 355.341C227.371 354.655 227.829 354.121 228.416 353.739C229.007 353.352 229.696 353.159 230.484 353.159C230.939 353.159 231.388 353.235 231.831 353.386C232.274 353.538 232.678 353.784 233.041 354.125C233.405 354.462 233.695 354.909 233.911 355.466C234.126 356.023 234.234 356.708 234.234 357.523V358.091H227.507V356.932H232.871C232.871 356.439 232.772 356 232.575 355.614C232.382 355.227 232.106 354.922 231.746 354.699C231.39 354.475 230.969 354.364 230.484 354.364C229.95 354.364 229.488 354.496 229.098 354.761C228.712 355.023 228.414 355.364 228.206 355.784C227.998 356.205 227.893 356.655 227.893 357.136V357.909C227.893 358.568 228.007 359.127 228.234 359.585C228.465 360.04 228.786 360.386 229.195 360.625C229.604 360.86 230.079 360.977 230.621 360.977C230.973 360.977 231.291 360.928 231.575 360.83C231.863 360.727 232.111 360.576 232.32 360.375C232.528 360.17 232.689 359.917 232.803 359.614L234.098 359.977C233.962 360.417 233.732 360.803 233.411 361.136C233.089 361.466 232.691 361.723 232.217 361.909C231.744 362.091 231.212 362.182 230.621 362.182Z" fill="black"/>
<path d="M147.886 421.182C147.045 421.182 146.32 420.996 145.71 420.625C145.104 420.25 144.636 419.727 144.307 419.057C143.981 418.383 143.818 417.598 143.818 416.705C143.818 415.811 143.981 415.023 144.307 414.341C144.636 413.655 145.095 413.121 145.682 412.739C146.273 412.352 146.962 412.159 147.75 412.159C148.205 412.159 148.653 412.235 149.097 412.386C149.54 412.538 149.943 412.784 150.307 413.125C150.67 413.462 150.96 413.909 151.176 414.466C151.392 415.023 151.5 415.708 151.5 416.523V417.091H144.773V415.932H150.136C150.136 415.439 150.038 415 149.841 414.614C149.648 414.227 149.371 413.922 149.011 413.699C148.655 413.475 148.235 413.364 147.75 413.364C147.216 413.364 146.754 413.496 146.364 413.761C145.977 414.023 145.68 414.364 145.472 414.784C145.263 415.205 145.159 415.655 145.159 416.136V416.909C145.159 417.568 145.273 418.127 145.5 418.585C145.731 419.04 146.051 419.386 146.46 419.625C146.869 419.86 147.345 419.977 147.886 419.977C148.239 419.977 148.557 419.928 148.841 419.83C149.129 419.727 149.377 419.576 149.585 419.375C149.794 419.17 149.955 418.917 150.068 418.614L151.364 418.977C151.227 419.417 150.998 419.803 150.676 420.136C150.354 420.466 149.956 420.723 149.483 420.909C149.009 421.091 148.477 421.182 147.886 421.182ZM154.305 412.273L156.396 415.841L158.487 412.273H160.033L157.214 416.636L160.033 421H158.487L156.396 417.614L154.305 421H152.76L155.533 416.636L152.76 412.273H154.305ZM161.946 421V412.273H163.287V421H161.946ZM162.628 410.818C162.366 410.818 162.141 410.729 161.952 410.551C161.766 410.373 161.673 410.159 161.673 409.909C161.673 409.659 161.766 409.445 161.952 409.267C162.141 409.089 162.366 409 162.628 409C162.889 409 163.113 409.089 163.298 409.267C163.488 409.445 163.582 409.659 163.582 409.909C163.582 410.159 163.488 410.373 163.298 410.551C163.113 410.729 162.889 410.818 162.628 410.818ZM169.538 412.273V413.409H165.016V412.273H169.538ZM166.334 410.182H167.675V418.5C167.675 418.879 167.73 419.163 167.839 419.352C167.953 419.538 168.097 419.663 168.271 419.727C168.449 419.788 168.637 419.818 168.834 419.818C168.982 419.818 169.103 419.811 169.197 419.795C169.292 419.777 169.368 419.761 169.425 419.75L169.697 420.955C169.607 420.989 169.48 421.023 169.317 421.057C169.154 421.095 168.947 421.114 168.697 421.114C168.319 421.114 167.947 421.032 167.584 420.869C167.224 420.706 166.925 420.458 166.686 420.125C166.451 419.792 166.334 419.371 166.334 418.864V410.182Z" fill="black"/>
<path d="M80 295C82.265 287.071 90 292 90 292C96 297 91 307 82 305C73 303 73 293 76 288C79 283 90 279 97 287C98.818 289.078 99 293 98 301L97 306L88 307" fill="#1697B7"/>
<path d="M80 295C82.265 287.071 90 292 90 292C96 297 91 307 82 305C73 303 73 293 76 288C79 283 90 279 97 287C98.818 289.078 99 293 98 301L97 306L88 307" stroke="#1697B7" stroke-width="2" stroke-miterlimit="10"/>
<path d="M68 310C86.403 311.6 98.404 311 102.466 310.296C103.445 310.13 104.366 309.717 105.141 309.096C121.912 295.573 120 287 115 286C111.9 285.38 105.848 296.376 103 300C101.41 302.024 98 304 94 304" fill="#F3AD78"/>
<path d="M80 295C82.266 287.071 90 292 90 292C96 297 91 307 82 305C73 303 73 293 76 288C79 283 90 279 97 287C98.82 289.078 100 292 98 299M112 283L114 286L112 283ZM115.833 285.333L118 281L115.833 285.333Z" stroke="#0E5364" stroke-width="2" stroke-miterlimit="10" stroke-linecap="round" stroke-linejoin="round"/>
<path d="M68 311C86.403 312.6 98.404 311 102.466 310.296C103.445 310.13 104.366 309.717 105.141 309.096C121.912 295.573 120 287 115 286C111.9 285.38 105.848 296.376 103 300C101.41 302.024 98 305 94 305" stroke="#0E5364" stroke-width="2" stroke-miterlimit="10" stroke-linecap="round" stroke-linejoin="round"/>
<path d="M91.824 345.212L99.804 356.406M96.843 344.552L100.477 349.651L96.843 344.552Z" stroke="#0E5364" stroke-width="2" stroke-linecap="round" stroke-linejoin="round"/>
<path d="M92.8451 381.958C89.0731 381.958 85.7721 379.791 84.8171 376.688C84.5617 376.142 84.1967 375.655 83.7447 375.257C83.2927 374.858 82.7635 374.557 82.1901 374.372V377.27C82.1901 377.535 82.0847 377.79 81.8972 377.977C81.7096 378.165 81.4553 378.27 81.1901 378.27H77.7621C77.4969 378.27 77.2425 378.165 77.055 377.977C76.8674 377.79 76.7621 377.535 76.7621 377.27V371.916C74.3241 371.151 72.5831 368.16 72.5831 364.497C72.5655 362.836 72.969 361.198 73.7561 359.735C74.6094 357.291 74.608 354.631 73.7521 352.188C72.9679 350.727 72.5658 349.092 72.5831 347.434C72.5831 344.499 73.7311 341.882 75.5801 340.604C75.9426 340.351 76.341 340.153 76.7621 340.017V334.312C76.7621 334.047 76.8674 333.792 77.055 333.605C77.2425 333.417 77.4969 333.312 77.7621 333.312H81.1901C81.4553 333.312 81.7096 333.417 81.8972 333.605C82.0847 333.792 82.1901 334.047 82.1901 334.312V337.537C82.7713 337.345 83.3066 337.035 83.7625 336.626C84.2185 336.218 84.5853 335.72 84.8401 335.163C85.7721 332.125 89.0731 329.958 92.8441 329.958C96.7181 329.958 100.113 332.274 100.951 335.478C101.212 335.985 101.571 336.434 102.009 336.798C102.447 337.163 102.954 337.436 103.499 337.6V334.311C103.499 334.046 103.604 333.791 103.792 333.604C103.98 333.416 104.234 333.311 104.499 333.311H107.928C108.193 333.311 108.448 333.416 108.635 333.604C108.823 333.791 108.928 334.046 108.928 334.311V340.039C109.289 340.163 109.632 340.333 109.95 340.544C110.024 340.585 110.093 340.634 110.157 340.69C111.117 341.522 111.875 342.561 112.374 343.73C112.872 344.899 113.098 346.165 113.034 347.434C113.048 349.03 112.678 350.605 111.954 352.027C111.946 352.063 111.935 352.098 111.922 352.132C111.045 354.605 111.042 357.303 111.914 359.778C111.932 359.822 111.947 359.866 111.959 359.912C112.68 361.332 113.048 362.905 113.034 364.497C113.098 365.765 112.873 367.03 112.375 368.198C111.878 369.366 111.121 370.405 110.163 371.237C110.107 371.286 110.046 371.328 109.981 371.364C109.655 371.586 109.301 371.763 108.928 371.891V377.27C108.928 377.535 108.823 377.79 108.635 377.977C108.448 378.165 108.193 378.27 107.928 378.27H104.499C104.234 378.27 103.98 378.165 103.792 377.977C103.604 377.79 103.499 377.535 103.499 377.27V374.311C102.953 374.476 102.446 374.75 102.008 375.115C101.571 375.481 101.211 375.931 100.951 376.439C100.113 379.642 96.7191 381.958 92.8451 381.958Z" fill="#F3AD78"/>
<path d="M93.0001 375.93C84.9561 375.93 78.4121 367.06 78.4121 356.157C78.4121 345.254 84.9561 336.384 93.0001 336.384C101.044 336.384 107.588 345.254 107.588 356.156C107.588 367.058 101.044 375.93 93.0001 375.93Z" fill="#30C3CD"/>
<path d="M91.824 345.212L99.804 356.406M96.843 344.552L100.477 349.651L96.843 344.552Z" stroke="white" stroke-width="2" stroke-linecap="round" stroke-linejoin="round"/>
<path d="M92.9999 374.929C100.504 374.929 106.588 366.524 106.588 356.156C106.588 345.788 100.504 337.383 92.9999 337.383C85.4954 337.383 79.4119 345.788 79.4119 356.156C79.4119 366.524 85.4954 374.929 92.9999 374.929Z" stroke="#0E5364" stroke-width="2" stroke-linecap="round" stroke-linejoin="round"/>
<path d="M101.904 337.948C101.055 337.454 100.388 336.7 100.001 335.798C99.3169 333.035 96.3729 330.958 92.8449 330.958C89.4349 330.958 86.5799 332.9 85.7729 335.522C85.3674 336.522 84.641 337.358 83.7079 337.9M110.238 369.821C111.458 368.321 112.096 366.43 112.034 364.497C112.054 363.003 111.693 361.529 110.984 360.214L110.992 360.164C110.014 357.449 110.014 354.479 110.992 351.764L110.985 351.716C111.694 350.401 112.055 348.927 112.035 347.434C112.097 345.501 111.46 343.61 110.239 342.109M83.7059 374.014C84.6396 374.556 85.3667 375.394 85.7729 376.394C86.5799 379.017 89.4359 380.958 92.8449 380.958C96.3729 380.958 99.3169 378.881 100.001 376.119C100.375 375.243 101.015 374.507 101.83 374.014M75.4819 341.997C74.1901 343.507 73.5121 345.447 73.5819 347.433C73.5608 348.946 73.933 350.438 74.6619 351.764C75.6403 354.479 75.6403 357.449 74.6619 360.164C73.9328 361.49 73.5607 362.984 73.5819 364.497C73.5114 366.483 74.1895 368.424 75.4819 369.934M81.1899 338.863V334.312H77.7619V340.834L81.1899 338.863ZM107.928 340.84V334.312H104.498V338.89L107.928 340.84ZM104.499 373.022V377.269H107.928V371.091L104.499 373.022ZM77.7619 371.096V377.269H81.1909V373.049L77.7619 371.096Z" stroke="#0E5364" stroke-width="2" stroke-linecap="round" stroke-linejoin="round"/>
<circle cx="93" cy="417" r="15" fill="#DADADA"/>
<line x1="84.3945" y1="424.086" x2="99.8951" y2="408.585" stroke="#F3F3F3" stroke-width="3" stroke-linecap="round"/>
<path d="M85.406 408.613L101.476 424.683" stroke="#F3F3F3" stroke-width="3" stroke-linecap="round"/>
<rect x="13.5" y="260.5" width="290" height="190" rx="28.5" stroke="black"/>
</svg>
