<svg width="390" height="230" viewBox="0 0 390 230" fill="none" xmlns="http://www.w3.org/2000/svg">
<rect x="208" y="90" width="75" height="75" transform="rotate(-90 208 90)" fill="#1697B7"/>
<rect x="108" y="199" width="75" height="75" transform="rotate(-90 108 199)" fill="#30C3CD"/>
<rect x="108" y="90" width="75" height="75" transform="rotate(-90 108 90)" fill="#F3F3F3"/>
<rect x="8" y="199" width="75" height="75" transform="rotate(-90 8 199)" fill="#F3AD78"/>
<rect x="8" y="90" width="75" height="75" transform="rotate(-90 8 90)" fill="#E8804C"/>
<path d="M224.176 107L225.608 98.2727H226.46L225.028 107H224.176ZM220.205 104.58L220.341 103.727H226.852L226.716 104.58H220.205ZM221.108 107L222.54 98.2727H223.392L221.96 107H221.108ZM220.716 101.545L220.852 100.693H227.364L227.227 101.545H220.716ZM231.542 98.2727V107H230.485V99.3807H230.434L228.303 100.795V99.7216L230.485 98.2727H231.542ZM236.95 107.119C236.592 107.114 236.234 107.045 235.876 106.915C235.518 106.784 235.191 106.564 234.896 106.254C234.6 105.942 234.363 105.52 234.184 104.989C234.005 104.455 233.915 103.784 233.915 102.977C233.915 102.205 233.988 101.52 234.133 100.923C234.278 100.324 234.488 99.8196 234.763 99.4105C235.039 98.9986 235.371 98.6861 235.761 98.473C236.153 98.2599 236.594 98.1534 237.086 98.1534C237.575 98.1534 238.009 98.2514 238.39 98.4474C238.773 98.6406 239.086 98.9105 239.327 99.2571C239.569 99.6037 239.725 100.003 239.796 100.455H238.756C238.66 100.062 238.472 99.7372 238.194 99.4787C237.915 99.2202 237.546 99.0909 237.086 99.0909C236.41 99.0909 235.877 99.3849 235.488 99.973C235.102 100.561 234.907 101.386 234.904 102.449H234.972C235.131 102.207 235.32 102.001 235.539 101.831C235.761 101.658 236.005 101.524 236.272 101.43C236.539 101.337 236.822 101.29 237.12 101.29C237.62 101.29 238.077 101.415 238.492 101.665C238.907 101.912 239.239 102.254 239.489 102.692C239.739 103.126 239.864 103.625 239.864 104.188C239.864 104.727 239.744 105.222 239.502 105.67C239.261 106.116 238.921 106.472 238.484 106.736C238.049 106.997 237.538 107.125 236.95 107.119ZM236.95 106.182C237.308 106.182 237.629 106.092 237.913 105.913C238.2 105.734 238.425 105.494 238.59 105.193C238.758 104.892 238.842 104.557 238.842 104.188C238.842 103.827 238.761 103.499 238.599 103.203C238.44 102.905 238.219 102.668 237.938 102.491C237.66 102.315 237.342 102.227 236.984 102.227C236.714 102.227 236.462 102.281 236.229 102.389C235.996 102.494 235.792 102.639 235.616 102.824C235.442 103.009 235.306 103.22 235.207 103.459C235.107 103.695 235.058 103.943 235.058 104.205C235.058 104.551 235.138 104.875 235.3 105.176C235.465 105.477 235.69 105.72 235.974 105.905C236.261 106.089 236.586 106.182 236.95 106.182ZM244.319 98.1534C244.676 98.1562 245.034 98.2244 245.392 98.358C245.75 98.4915 246.077 98.7131 246.373 99.0227C246.668 99.3295 246.905 99.7486 247.084 100.28C247.263 100.811 247.353 101.477 247.353 102.278C247.353 103.054 247.279 103.743 247.131 104.345C246.986 104.945 246.776 105.45 246.5 105.862C246.228 106.274 245.895 106.587 245.503 106.8C245.114 107.013 244.674 107.119 244.182 107.119C243.694 107.119 243.257 107.023 242.874 106.83C242.493 106.634 242.181 106.362 241.936 106.016C241.695 105.666 241.54 105.261 241.472 104.801H242.512C242.605 105.202 242.792 105.533 243.07 105.794C243.351 106.053 243.722 106.182 244.182 106.182C244.855 106.182 245.387 105.888 245.776 105.3C246.168 104.712 246.364 103.881 246.364 102.807H246.296C246.137 103.045 245.948 103.251 245.729 103.425C245.51 103.598 245.267 103.732 245 103.825C244.733 103.919 244.449 103.966 244.148 103.966C243.648 103.966 243.189 103.842 242.772 103.595C242.357 103.345 242.025 103.003 241.775 102.568C241.527 102.131 241.404 101.631 241.404 101.068C241.404 100.534 241.523 100.045 241.762 99.6023C242.003 99.1562 242.341 98.8011 242.776 98.5369C243.213 98.2727 243.728 98.1449 244.319 98.1534ZM244.319 99.0909C243.961 99.0909 243.638 99.1804 243.351 99.3594C243.067 99.5355 242.841 99.7741 242.674 100.075C242.509 100.374 242.426 100.705 242.426 101.068C242.426 101.432 242.506 101.763 242.665 102.061C242.827 102.357 243.047 102.592 243.326 102.768C243.607 102.942 243.926 103.028 244.284 103.028C244.554 103.028 244.806 102.976 245.039 102.871C245.272 102.763 245.475 102.616 245.648 102.432C245.824 102.244 245.962 102.033 246.061 101.797C246.161 101.558 246.211 101.31 246.211 101.051C246.211 100.71 246.128 100.391 245.963 100.092C245.801 99.794 245.577 99.5526 245.29 99.3679C245.006 99.1832 244.682 99.0909 244.319 99.0909ZM249.067 107L252.97 99.2784V99.2102H248.47V98.2727H254.061V99.2614L250.175 107H249.067ZM255.803 107V98.2727H258.854C259.462 98.2727 259.963 98.3778 260.358 98.5881C260.753 98.7955 261.047 99.0753 261.24 99.4276C261.434 99.777 261.53 100.165 261.53 100.591C261.53 100.966 261.463 101.276 261.33 101.52C261.199 101.764 261.026 101.957 260.81 102.099C260.597 102.241 260.365 102.347 260.115 102.415V102.5C260.382 102.517 260.651 102.611 260.921 102.781C261.191 102.952 261.417 103.196 261.598 103.514C261.78 103.832 261.871 104.222 261.871 104.682C261.871 105.119 261.772 105.513 261.573 105.862C261.374 106.212 261.06 106.489 260.631 106.693C260.202 106.898 259.644 107 258.956 107H255.803ZM256.86 106.062H258.956C259.647 106.062 260.137 105.929 260.426 105.662C260.719 105.392 260.865 105.065 260.865 104.682C260.865 104.386 260.79 104.114 260.64 103.864C260.489 103.611 260.275 103.409 259.996 103.259C259.718 103.105 259.388 103.028 259.007 103.028H256.86V106.062ZM256.86 102.108H258.82C259.138 102.108 259.425 102.045 259.681 101.92C259.939 101.795 260.144 101.619 260.294 101.392C260.448 101.165 260.525 100.898 260.525 100.591C260.525 100.207 260.391 99.8821 260.124 99.6151C259.857 99.3452 259.434 99.2102 258.854 99.2102H256.86V102.108ZM263.727 107L267.63 99.2784V99.2102H263.13V98.2727L268.721 98.2727V99.2614L264.835 107H263.727Z" fill="black"/>
<path d="M121.176 214L122.608 205.273H123.46L122.028 214H121.176ZM117.205 211.58L117.341 210.727H123.852L123.716 211.58H117.205ZM118.108 214L119.54 205.273H120.392L118.96 214H118.108ZM117.716 208.545L117.852 207.693H124.364L124.227 208.545H117.716ZM128.423 214.119C127.86 214.119 127.359 214.023 126.918 213.83C126.481 213.636 126.133 213.368 125.874 213.024C125.619 212.678 125.479 212.276 125.457 211.818H126.531C126.553 212.099 126.65 212.342 126.82 212.547C126.991 212.749 127.214 212.905 127.489 213.016C127.765 213.126 128.07 213.182 128.406 213.182C128.781 213.182 129.113 213.116 129.403 212.986C129.692 212.855 129.92 212.673 130.085 212.44C130.249 212.207 130.332 211.938 130.332 211.631C130.332 211.31 130.252 211.027 130.093 210.783C129.934 210.536 129.701 210.342 129.394 210.203C129.087 210.064 128.712 209.994 128.269 209.994H127.57V209.057H128.269C128.616 209.057 128.92 208.994 129.181 208.869C129.445 208.744 129.651 208.568 129.799 208.341C129.95 208.114 130.025 207.847 130.025 207.54C130.025 207.244 129.96 206.987 129.829 206.768C129.698 206.55 129.513 206.379 129.275 206.257C129.039 206.135 128.761 206.074 128.44 206.074C128.138 206.074 127.854 206.129 127.587 206.24C127.323 206.348 127.107 206.506 126.94 206.713C126.772 206.918 126.681 207.165 126.667 207.455H125.644C125.661 206.997 125.799 206.597 126.058 206.253C126.316 205.906 126.654 205.636 127.072 205.443C127.492 205.25 127.954 205.153 128.457 205.153C128.996 205.153 129.46 205.263 129.846 205.482C130.232 205.697 130.529 205.983 130.737 206.338C130.944 206.693 131.048 207.077 131.048 207.489C131.048 207.98 130.918 208.399 130.66 208.746C130.404 209.092 130.056 209.332 129.616 209.466V209.534C130.167 209.625 130.597 209.859 130.907 210.237C131.217 210.612 131.371 211.077 131.371 211.631C131.371 212.105 131.242 212.531 130.984 212.909C130.728 213.284 130.379 213.58 129.935 213.795C129.492 214.011 128.988 214.119 128.423 214.119ZM135.961 214.119C135.319 214.119 134.772 213.945 134.32 213.595C133.869 213.243 133.523 212.733 133.285 212.065C133.046 211.395 132.927 210.585 132.927 209.636C132.927 208.693 133.046 207.888 133.285 207.22C133.526 206.55 133.873 206.038 134.325 205.686C134.779 205.331 135.325 205.153 135.961 205.153C136.597 205.153 137.141 205.331 137.593 205.686C138.048 206.038 138.394 206.55 138.633 207.22C138.874 207.888 138.995 208.693 138.995 209.636C138.995 210.585 138.876 211.395 138.637 212.065C138.398 212.733 138.053 213.243 137.602 213.595C137.15 213.945 136.603 214.119 135.961 214.119ZM135.961 213.182C136.597 213.182 137.092 212.875 137.444 212.261C137.796 211.648 137.972 210.773 137.972 209.636C137.972 208.881 137.891 208.237 137.729 207.706C137.57 207.175 137.34 206.77 137.039 206.491C136.741 206.213 136.381 206.074 135.961 206.074C135.33 206.074 134.837 206.385 134.482 207.007C134.127 207.626 133.95 208.503 133.95 209.636C133.95 210.392 134.029 211.034 134.188 211.562C134.347 212.091 134.576 212.493 134.874 212.768C135.175 213.044 135.538 213.182 135.961 213.182ZM147.79 208H146.734C146.671 207.696 146.562 207.429 146.406 207.199C146.252 206.969 146.065 206.776 145.843 206.619C145.624 206.46 145.381 206.341 145.114 206.261C144.847 206.182 144.569 206.142 144.279 206.142C143.751 206.142 143.272 206.276 142.843 206.543C142.417 206.81 142.077 207.203 141.825 207.723C141.575 208.243 141.45 208.881 141.45 209.636C141.45 210.392 141.575 211.03 141.825 211.55C142.077 212.07 142.417 212.463 142.843 212.73C143.272 212.997 143.751 213.131 144.279 213.131C144.569 213.131 144.847 213.091 145.114 213.011C145.381 212.932 145.624 212.814 145.843 212.658C146.065 212.499 146.252 212.304 146.406 212.074C146.562 211.841 146.671 211.574 146.734 211.273H147.79C147.711 211.719 147.566 212.118 147.356 212.47C147.146 212.822 146.884 213.122 146.572 213.369C146.259 213.614 145.908 213.8 145.519 213.928C145.133 214.055 144.719 214.119 144.279 214.119C143.535 214.119 142.873 213.938 142.293 213.574C141.714 213.21 141.258 212.693 140.925 212.023C140.593 211.352 140.427 210.557 140.427 209.636C140.427 208.716 140.593 207.92 140.925 207.25C141.258 206.58 141.714 206.062 142.293 205.699C142.873 205.335 143.535 205.153 144.279 205.153C144.719 205.153 145.133 205.217 145.519 205.345C145.908 205.473 146.259 205.661 146.572 205.908C146.884 206.152 147.146 206.45 147.356 206.803C147.566 207.152 147.711 207.551 147.79 208ZM152.294 214.119C151.731 214.119 151.23 214.023 150.789 213.83C150.352 213.636 150.004 213.368 149.745 213.024C149.49 212.678 149.35 212.276 149.328 211.818H150.402C150.424 212.099 150.521 212.342 150.691 212.547C150.862 212.749 151.085 212.905 151.36 213.016C151.636 213.126 151.941 213.182 152.277 213.182C152.652 213.182 152.984 213.116 153.274 212.986C153.564 212.855 153.791 212.673 153.956 212.44C154.12 212.207 154.203 211.938 154.203 211.631C154.203 211.31 154.123 211.027 153.964 210.783C153.805 210.536 153.572 210.342 153.265 210.203C152.958 210.064 152.583 209.994 152.14 209.994H151.441V209.057H152.14C152.487 209.057 152.791 208.994 153.052 208.869C153.316 208.744 153.522 208.568 153.67 208.341C153.821 208.114 153.896 207.847 153.896 207.54C153.896 207.244 153.831 206.987 153.7 206.768C153.569 206.55 153.385 206.379 153.146 206.257C152.91 206.135 152.632 206.074 152.311 206.074C152.01 206.074 151.725 206.129 151.458 206.24C151.194 206.348 150.978 206.506 150.811 206.713C150.643 206.918 150.552 207.165 150.538 207.455H149.515C149.532 206.997 149.67 206.597 149.929 206.253C150.187 205.906 150.525 205.636 150.943 205.443C151.363 205.25 151.825 205.153 152.328 205.153C152.868 205.153 153.331 205.263 153.717 205.482C154.103 205.697 154.4 205.983 154.608 206.338C154.815 206.693 154.919 207.077 154.919 207.489C154.919 207.98 154.789 208.399 154.531 208.746C154.275 209.092 153.927 209.332 153.487 209.466V209.534C154.038 209.625 154.468 209.859 154.778 210.237C155.088 210.612 155.243 211.077 155.243 211.631C155.243 212.105 155.113 212.531 154.855 212.909C154.599 213.284 154.25 213.58 153.806 213.795C153.363 214.011 152.859 214.119 152.294 214.119ZM164.162 208H163.105C163.042 207.696 162.933 207.429 162.777 207.199C162.623 206.969 162.436 206.776 162.214 206.619C161.995 206.46 161.752 206.341 161.485 206.261C161.218 206.182 160.94 206.142 160.65 206.142C160.122 206.142 159.643 206.276 159.214 206.543C158.788 206.81 158.449 207.203 158.196 207.723C157.946 208.243 157.821 208.881 157.821 209.636C157.821 210.392 157.946 211.03 158.196 211.55C158.449 212.07 158.788 212.463 159.214 212.73C159.643 212.997 160.122 213.131 160.65 213.131C160.94 213.131 161.218 213.091 161.485 213.011C161.752 212.932 161.995 212.814 162.214 212.658C162.436 212.499 162.623 212.304 162.777 212.074C162.933 211.841 163.042 211.574 163.105 211.273H164.162C164.082 211.719 163.937 212.118 163.727 212.47C163.517 212.822 163.255 213.122 162.943 213.369C162.63 213.614 162.279 213.8 161.89 213.928C161.504 214.055 161.091 214.119 160.65 214.119C159.906 214.119 159.244 213.938 158.664 213.574C158.085 213.21 157.629 212.693 157.297 212.023C156.964 211.352 156.798 210.557 156.798 209.636C156.798 208.716 156.964 207.92 157.297 207.25C157.629 206.58 158.085 206.062 158.664 205.699C159.244 205.335 159.906 205.153 160.65 205.153C161.091 205.153 161.504 205.217 161.89 205.345C162.279 205.473 162.63 205.661 162.943 205.908C163.255 206.152 163.517 206.45 163.727 206.803C163.937 207.152 164.082 207.551 164.162 208ZM168.562 214H165.869V205.273H168.682C169.528 205.273 170.253 205.447 170.855 205.797C171.457 206.143 171.919 206.642 172.24 207.293C172.561 207.94 172.722 208.716 172.722 209.619C172.722 210.528 172.56 211.311 172.236 211.967C171.912 212.621 171.44 213.124 170.821 213.476C170.202 213.825 169.449 214 168.562 214ZM166.926 213.062H168.494C169.216 213.062 169.814 212.923 170.288 212.645C170.763 212.366 171.116 211.97 171.349 211.456C171.582 210.942 171.699 210.33 171.699 209.619C171.699 208.915 171.584 208.308 171.354 207.8C171.124 207.288 170.78 206.896 170.322 206.624C169.865 206.348 169.295 206.21 168.614 206.21H166.926V213.062Z" fill="black"/>
<path d="M124.176 107L125.608 98.2727H126.46L125.028 107H124.176ZM120.205 104.58L120.341 103.727H126.852L126.716 104.58H120.205ZM121.108 107L122.54 98.2727H123.392L121.96 107H121.108ZM120.716 101.545L120.852 100.693H127.364L127.227 101.545H120.716ZM128.627 107V98.2727H133.86V99.2102H129.684V102.159H133.468V103.097H129.684V107H128.627ZM138.466 107.119C137.903 107.119 137.402 107.023 136.961 106.83C136.524 106.636 136.176 106.368 135.917 106.024C135.662 105.678 135.522 105.276 135.5 104.818H136.574C136.596 105.099 136.693 105.342 136.863 105.547C137.034 105.749 137.257 105.905 137.532 106.016C137.808 106.126 138.113 106.182 138.449 106.182C138.824 106.182 139.156 106.116 139.446 105.986C139.735 105.855 139.963 105.673 140.127 105.44C140.292 105.207 140.375 104.938 140.375 104.631C140.375 104.31 140.295 104.027 140.136 103.783C139.977 103.536 139.744 103.342 139.437 103.203C139.13 103.064 138.755 102.994 138.312 102.994H137.613V102.057H138.312C138.659 102.057 138.963 101.994 139.224 101.869C139.488 101.744 139.694 101.568 139.842 101.341C139.993 101.114 140.068 100.847 140.068 100.54C140.068 100.244 140.002 99.9872 139.872 99.7685C139.741 99.5497 139.556 99.3793 139.318 99.2571C139.082 99.1349 138.804 99.0739 138.483 99.0739C138.181 99.0739 137.897 99.1293 137.63 99.2401C137.366 99.348 137.15 99.5057 136.983 99.7131C136.815 99.9176 136.724 100.165 136.71 100.455H135.687C135.704 99.9972 135.842 99.5966 136.1 99.2528C136.359 98.9062 136.697 98.6364 137.115 98.4432C137.535 98.25 137.997 98.1534 138.5 98.1534C139.039 98.1534 139.502 98.2628 139.889 98.4815C140.275 98.6974 140.572 98.983 140.779 99.3381C140.987 99.6932 141.091 100.077 141.091 100.489C141.091 100.98 140.961 101.399 140.703 101.746C140.447 102.092 140.099 102.332 139.659 102.466V102.534C140.21 102.625 140.64 102.859 140.95 103.237C141.26 103.612 141.414 104.077 141.414 104.631C141.414 105.105 141.285 105.531 141.027 105.909C140.771 106.284 140.422 106.58 139.978 106.795C139.535 107.011 139.031 107.119 138.466 107.119ZM143.311 107V98.2727H148.544V99.2102H144.368V102.159H148.152V103.097H144.368V107H143.311ZM153.149 107.119C152.587 107.119 152.085 107.023 151.645 106.83C151.207 106.636 150.859 106.368 150.601 106.024C150.345 105.678 150.206 105.276 150.183 104.818H151.257C151.28 105.099 151.376 105.342 151.547 105.547C151.717 105.749 151.94 105.905 152.216 106.016C152.491 106.126 152.797 106.182 153.132 106.182C153.507 106.182 153.839 106.116 154.129 105.986C154.419 105.855 154.646 105.673 154.811 105.44C154.976 105.207 155.058 104.938 155.058 104.631C155.058 104.31 154.979 104.027 154.82 103.783C154.661 103.536 154.428 103.342 154.121 103.203C153.814 103.064 153.439 102.994 152.996 102.994H152.297V102.057H152.996C153.342 102.057 153.646 101.994 153.908 101.869C154.172 101.744 154.378 101.568 154.526 101.341C154.676 101.114 154.751 100.847 154.751 100.54C154.751 100.244 154.686 99.9872 154.555 99.7685C154.425 99.5497 154.24 99.3793 154.001 99.2571C153.766 99.1349 153.487 99.0739 153.166 99.0739C152.865 99.0739 152.581 99.1293 152.314 99.2401C152.05 99.348 151.834 99.5057 151.666 99.7131C151.499 99.9176 151.408 100.165 151.393 100.455H150.371C150.388 99.9972 150.526 99.5966 150.784 99.2528C151.043 98.9062 151.381 98.6364 151.798 98.4432C152.219 98.25 152.68 98.1534 153.183 98.1534C153.723 98.1534 154.186 98.2628 154.572 98.4815C154.959 98.6974 155.256 98.983 155.463 99.3381C155.67 99.6932 155.774 100.077 155.774 100.489C155.774 100.98 155.645 101.399 155.386 101.746C155.131 102.092 154.783 102.332 154.342 102.466V102.534C154.893 102.625 155.324 102.859 155.634 103.237C155.943 103.612 156.098 104.077 156.098 104.631C156.098 105.105 155.969 105.531 155.71 105.909C155.455 106.284 155.105 106.58 154.662 106.795C154.219 107.011 153.714 107.119 153.149 107.119ZM157.994 107V98.2727H163.227V99.2102H159.051V102.159H162.835V103.097H159.051V107H157.994ZM167.833 107.119C167.27 107.119 166.769 107.023 166.328 106.83C165.891 106.636 165.543 106.368 165.284 106.024C165.029 105.678 164.89 105.276 164.867 104.818H165.941C165.963 105.099 166.06 105.342 166.23 105.547C166.401 105.749 166.624 105.905 166.9 106.016C167.175 106.126 167.48 106.182 167.816 106.182C168.191 106.182 168.523 106.116 168.813 105.986C169.103 105.855 169.33 105.673 169.495 105.44C169.659 105.207 169.742 104.938 169.742 104.631C169.742 104.31 169.662 104.027 169.503 103.783C169.344 103.536 169.111 103.342 168.804 103.203C168.498 103.064 168.123 102.994 167.679 102.994H166.98V102.057H167.679C168.026 102.057 168.33 101.994 168.591 101.869C168.855 101.744 169.061 101.568 169.209 101.341C169.36 101.114 169.435 100.847 169.435 100.54C169.435 100.244 169.37 99.9872 169.239 99.7685C169.108 99.5497 168.924 99.3793 168.685 99.2571C168.449 99.1349 168.171 99.0739 167.85 99.0739C167.549 99.0739 167.265 99.1293 166.998 99.2401C166.733 99.348 166.517 99.5057 166.35 99.7131C166.182 99.9176 166.091 100.165 166.077 100.455H165.054C165.071 99.9972 165.209 99.5966 165.468 99.2528C165.726 98.9062 166.064 98.6364 166.482 98.4432C166.902 98.25 167.364 98.1534 167.867 98.1534C168.407 98.1534 168.87 98.2628 169.256 98.4815C169.642 98.6974 169.939 98.983 170.147 99.3381C170.354 99.6932 170.458 100.077 170.458 100.489C170.458 100.98 170.328 101.399 170.07 101.746C169.814 102.092 169.466 102.332 169.026 102.466V102.534C169.577 102.625 170.007 102.859 170.317 103.237C170.627 103.612 170.782 104.077 170.782 104.631C170.782 105.105 170.652 105.531 170.394 105.909C170.138 106.284 169.789 106.58 169.346 106.795C168.902 107.011 168.398 107.119 167.833 107.119Z" fill="black"/>
<path d="M22.1761 214L23.608 205.273H24.4602L23.0284 214H22.1761ZM18.2045 211.58L18.3409 210.727H24.8523L24.7159 211.58H18.2045ZM19.108 214L20.5398 205.273H21.392L19.9602 214H19.108ZM18.7159 208.545L18.8523 207.693H25.3636L25.2273 208.545H18.7159ZM26.6271 214V205.273H31.8601V206.21H27.6839V209.159H31.468V210.097H27.6839V214H26.6271ZM36.4656 214.119C35.9031 214.119 35.4016 214.023 34.9613 213.83C34.5238 213.636 34.1758 213.368 33.9173 213.024C33.6616 212.678 33.5224 212.276 33.4996 211.818H34.5735C34.5962 212.099 34.6928 212.342 34.8633 212.547C35.0337 212.749 35.2567 212.905 35.5323 213.016C35.8079 213.126 36.1133 213.182 36.4485 213.182C36.8235 213.182 37.1559 213.116 37.4457 212.986C37.7354 212.855 37.9627 212.673 38.1275 212.44C38.2923 212.207 38.3746 211.938 38.3746 211.631C38.3746 211.31 38.2951 211.027 38.136 210.783C37.9769 210.536 37.744 210.342 37.4371 210.203C37.1303 210.064 36.7553 209.994 36.3121 209.994H35.6133V209.057H36.3121C36.6587 209.057 36.9627 208.994 37.2241 208.869C37.4883 208.744 37.6942 208.568 37.842 208.341C37.9925 208.114 38.0678 207.847 38.0678 207.54C38.0678 207.244 38.0025 206.987 37.8718 206.768C37.7411 206.55 37.5565 206.379 37.3178 206.257C37.082 206.135 36.8036 206.074 36.4826 206.074C36.1815 206.074 35.8974 206.129 35.6303 206.24C35.3661 206.348 35.1502 206.506 34.9826 206.713C34.815 206.918 34.7241 207.165 34.7099 207.455H33.6871C33.7042 206.997 33.842 206.597 34.1005 206.253C34.359 205.906 34.6971 205.636 35.1147 205.443C35.5352 205.25 35.9968 205.153 36.4996 205.153C37.0394 205.153 37.5025 205.263 37.8888 205.482C38.2752 205.697 38.5721 205.983 38.7795 206.338C38.9869 206.693 39.0906 207.077 39.0906 207.489C39.0906 207.98 38.9613 208.399 38.7028 208.746C38.4471 209.092 38.0991 209.332 37.6587 209.466V209.534C38.2099 209.625 38.6403 209.859 38.9499 210.237C39.2596 210.612 39.4144 211.077 39.4144 211.631C39.4144 212.105 39.2852 212.531 39.0266 212.909C38.771 213.284 38.4215 213.58 37.9783 213.795C37.5352 214.011 37.0309 214.119 36.4656 214.119ZM41.6687 214H40.5607L43.7653 205.273H44.8562L48.0607 214H46.9528L44.3448 206.653H44.2766L41.6687 214ZM42.0778 210.591H46.5437V211.528H42.0778V210.591ZM52.1133 214H49.4201V205.273H52.2326C53.0792 205.273 53.8036 205.447 54.4059 205.797C55.0082 206.143 55.4698 206.642 55.7908 207.293C56.1119 207.94 56.2724 208.716 56.2724 209.619C56.2724 210.528 56.1104 211.311 55.7866 211.967C55.4627 212.621 54.9911 213.124 54.3718 213.476C53.7525 213.825 52.9996 214 52.1133 214ZM50.4769 213.062H52.0451C52.7667 213.062 53.3647 212.923 53.8391 212.645C54.3136 212.366 54.6673 211.97 54.9002 211.456C55.1332 210.942 55.2496 210.33 55.2496 209.619C55.2496 208.915 55.1346 208.308 54.9045 207.8C54.6744 207.288 54.3306 206.896 53.8732 206.624C53.4158 206.348 52.8462 206.21 52.1644 206.21H50.4769V213.062ZM58.1644 214L62.0678 206.278V206.21H57.5678V205.273H63.1587V206.261L59.2724 214H58.1644ZM67.3668 214.119C66.7816 214.119 66.2646 214.016 65.8157 213.808C65.3697 213.598 65.0217 213.31 64.7717 212.943C64.5217 212.574 64.3981 212.153 64.4009 211.682C64.3981 211.312 64.4705 210.972 64.6183 210.659C64.766 210.344 64.9677 210.081 65.2234 209.871C65.4819 209.658 65.7702 209.523 66.0884 209.466V209.415C65.6708 209.307 65.3384 209.072 65.0913 208.712C64.8441 208.348 64.7219 207.935 64.7248 207.472C64.7219 207.028 64.8342 206.632 65.0614 206.283C65.2887 205.933 65.6012 205.658 65.9989 205.456C66.3995 205.254 66.8555 205.153 67.3668 205.153C67.8725 205.153 68.3242 205.254 68.7219 205.456C69.1197 205.658 69.4322 205.933 69.6594 206.283C69.8896 206.632 70.006 207.028 70.0089 207.472C70.006 207.935 69.8796 208.348 69.6296 208.712C69.3825 209.072 69.0543 209.307 68.6452 209.415V209.466C68.9606 209.523 69.2447 209.658 69.4975 209.871C69.7504 210.081 69.9521 210.344 70.1026 210.659C70.2532 210.972 70.3299 211.312 70.3327 211.682C70.3299 212.153 70.2021 212.574 69.9492 212.943C69.6992 213.31 69.3512 213.598 68.9052 213.808C68.462 214.016 67.9492 214.119 67.3668 214.119ZM67.3668 213.182C67.7617 213.182 68.1026 213.118 68.3896 212.99C68.6765 212.862 68.8981 212.682 69.0543 212.449C69.2106 212.216 69.2901 211.943 69.293 211.631C69.2901 211.301 69.2049 211.01 69.0373 210.757C68.8697 210.504 68.641 210.305 68.3512 210.161C68.0643 210.016 67.7362 209.943 67.3668 209.943C66.9947 209.943 66.6623 210.016 66.3697 210.161C66.0799 210.305 65.8512 210.504 65.6836 210.757C65.5188 211.01 65.4379 211.301 65.4407 211.631C65.4379 211.943 65.5131 212.216 65.6665 212.449C65.8228 212.682 66.0458 212.862 66.3356 212.99C66.6254 213.118 66.9691 213.182 67.3668 213.182ZM67.3668 209.04C67.6793 209.04 67.9563 208.977 68.1978 208.852C68.4421 208.727 68.6339 208.553 68.7731 208.328C68.9123 208.104 68.9833 207.841 68.9862 207.54C68.9833 207.244 68.9137 206.987 68.7773 206.768C68.641 206.547 68.4521 206.376 68.2106 206.257C67.9691 206.135 67.6879 206.074 67.3668 206.074C67.0401 206.074 66.7546 206.135 66.5103 206.257C66.266 206.376 66.0771 206.547 65.9435 206.768C65.81 206.987 65.7447 207.244 65.7475 207.54C65.7447 207.841 65.8114 208.104 65.9478 208.328C66.087 208.553 66.2788 208.727 66.5231 208.852C66.7674 208.977 67.0487 209.04 67.3668 209.04Z" fill="black"/>
<path d="M22.1761 107L23.608 98.2727H24.4602L23.0284 107H22.1761ZM18.2045 104.58L18.3409 103.727H24.8523L24.7159 104.58H18.2045ZM19.108 107L20.5398 98.2727H21.392L19.9602 107H19.108ZM18.7159 101.545L18.8523 100.693H25.3636L25.2273 101.545H18.7159ZM26.6271 107V98.2727H31.8942V99.2102H27.6839V102.159H31.6214V103.097H27.6839V106.062H31.9624V107H26.6271ZM36.4411 107.119C35.8558 107.119 35.3388 107.016 34.8899 106.808C34.4439 106.598 34.0959 106.31 33.8459 105.943C33.5959 105.574 33.4723 105.153 33.4751 104.682C33.4723 104.312 33.5447 103.972 33.6925 103.659C33.8402 103.344 34.0419 103.081 34.2976 102.871C34.5561 102.658 34.8445 102.523 35.1626 102.466V102.415C34.745 102.307 34.4126 102.072 34.1655 101.712C33.9183 101.348 33.7962 100.935 33.799 100.472C33.7962 100.028 33.9084 99.6321 34.1357 99.2827C34.3629 98.9332 34.6754 98.6577 35.0732 98.456C35.4737 98.2543 35.9297 98.1534 36.4411 98.1534C36.9467 98.1534 37.3984 98.2543 37.7962 98.456C38.1939 98.6577 38.5064 98.9332 38.7337 99.2827C38.9638 99.6321 39.0803 100.028 39.0831 100.472C39.0803 100.935 38.9538 101.348 38.7038 101.712C38.4567 102.072 38.1286 102.307 37.7195 102.415V102.466C38.0348 102.523 38.3189 102.658 38.5717 102.871C38.8246 103.081 39.0263 103.344 39.1768 103.659C39.3274 103.972 39.4041 104.312 39.407 104.682C39.4041 105.153 39.2763 105.574 39.0234 105.943C38.7734 106.31 38.4254 106.598 37.9794 106.808C37.5362 107.016 37.0234 107.119 36.4411 107.119ZM36.4411 106.182C36.8359 106.182 37.1768 106.118 37.4638 105.99C37.7507 105.862 37.9723 105.682 38.1286 105.449C38.2848 105.216 38.3643 104.943 38.3672 104.631C38.3643 104.301 38.2791 104.01 38.1115 103.757C37.9439 103.504 37.7152 103.305 37.4254 103.161C37.1385 103.016 36.8104 102.943 36.4411 102.943C36.0689 102.943 35.7365 103.016 35.4439 103.161C35.1541 103.305 34.9254 103.504 34.7578 103.757C34.593 104.01 34.5121 104.301 34.5149 104.631C34.5121 104.943 34.5874 105.216 34.7408 105.449C34.897 105.682 35.12 105.862 35.4098 105.99C35.6996 106.118 36.0433 106.182 36.4411 106.182ZM36.4411 102.04C36.7536 102.04 37.0305 101.977 37.272 101.852C37.5163 101.727 37.7081 101.553 37.8473 101.328C37.9865 101.104 38.0575 100.841 38.0604 100.54C38.0575 100.244 37.9879 99.9872 37.8516 99.7685C37.7152 99.5469 37.5263 99.3764 37.2848 99.2571C37.0433 99.1349 36.7621 99.0739 36.4411 99.0739C36.1143 99.0739 35.8288 99.1349 35.5845 99.2571C35.3402 99.3764 35.1513 99.5469 35.0178 99.7685C34.8842 99.9872 34.8189 100.244 34.8217 100.54C34.8189 100.841 34.8857 101.104 35.022 101.328C35.1612 101.553 35.353 101.727 35.5973 101.852C35.8416 101.977 36.1229 102.04 36.4411 102.04ZM43.8356 107.119C43.2504 107.119 42.7333 107.016 42.2844 106.808C41.8384 106.598 41.4904 106.31 41.2404 105.943C40.9904 105.574 40.8668 105.153 40.8697 104.682C40.8668 104.312 40.9393 103.972 41.087 103.659C41.2347 103.344 41.4364 103.081 41.6921 102.871C41.9506 102.658 42.239 102.523 42.5572 102.466V102.415C42.1396 102.307 41.8072 102.072 41.56 101.712C41.3129 101.348 41.1907 100.935 41.1935 100.472C41.1907 100.028 41.3029 99.6321 41.5302 99.2827C41.7575 98.9332 42.07 98.6577 42.4677 98.456C42.8683 98.2543 43.3242 98.1534 43.8356 98.1534C44.3413 98.1534 44.793 98.2543 45.1907 98.456C45.5884 98.6577 45.9009 98.9332 46.1282 99.2827C46.3583 99.6321 46.4748 100.028 46.4776 100.472C46.4748 100.935 46.3484 101.348 46.0984 101.712C45.8512 102.072 45.5231 102.307 45.114 102.415V102.466C45.4293 102.523 45.7134 102.658 45.9663 102.871C46.2191 103.081 46.4208 103.344 46.5714 103.659C46.7219 103.972 46.7987 104.312 46.8015 104.682C46.7987 105.153 46.6708 105.574 46.418 105.943C46.168 106.31 45.82 106.598 45.3739 106.808C44.9308 107.016 44.418 107.119 43.8356 107.119ZM43.8356 106.182C44.2305 106.182 44.5714 106.118 44.8583 105.99C45.1452 105.862 45.3668 105.682 45.5231 105.449C45.6793 105.216 45.7589 104.943 45.7617 104.631C45.7589 104.301 45.6737 104.01 45.506 103.757C45.3384 103.504 45.1097 103.305 44.82 103.161C44.533 103.016 44.2049 102.943 43.8356 102.943C43.4634 102.943 43.131 103.016 42.8384 103.161C42.5487 103.305 42.32 103.504 42.1523 103.757C41.9876 104.01 41.9066 104.301 41.9094 104.631C41.9066 104.943 41.9819 105.216 42.1353 105.449C42.2915 105.682 42.5146 105.862 42.8043 105.99C43.0941 106.118 43.4379 106.182 43.8356 106.182ZM43.8356 102.04C44.1481 102.04 44.4251 101.977 44.6665 101.852C44.9109 101.727 45.1026 101.553 45.2418 101.328C45.381 101.104 45.4521 100.841 45.4549 100.54C45.4521 100.244 45.3825 99.9872 45.2461 99.7685C45.1097 99.5469 44.9208 99.3764 44.6793 99.2571C44.4379 99.1349 44.1566 99.0739 43.8356 99.0739C43.5089 99.0739 43.2234 99.1349 42.979 99.2571C42.7347 99.3764 42.5458 99.5469 42.4123 99.7685C42.2788 99.9872 42.2134 100.244 42.2163 100.54C42.2134 100.841 42.2802 101.104 42.4165 101.328C42.5558 101.553 42.7475 101.727 42.9918 101.852C43.2362 101.977 43.5174 102.04 43.8356 102.04ZM51.2812 107.119C50.6392 107.119 50.0923 106.945 49.6406 106.595C49.1889 106.243 48.8438 105.733 48.6051 105.065C48.3665 104.395 48.2472 103.585 48.2472 102.636C48.2472 101.693 48.3665 100.888 48.6051 100.22C48.8466 99.5497 49.1932 99.0384 49.6449 98.6861C50.0994 98.331 50.6449 98.1534 51.2812 98.1534C51.9176 98.1534 52.4616 98.331 52.9134 98.6861C53.3679 99.0384 53.7145 99.5497 53.9531 100.22C54.1946 100.888 54.3153 101.693 54.3153 102.636C54.3153 103.585 54.196 104.395 53.9574 105.065C53.7188 105.733 53.3736 106.243 52.9219 106.595C52.4702 106.945 51.9233 107.119 51.2812 107.119ZM51.2812 106.182C51.9176 106.182 52.4119 105.875 52.7642 105.261C53.1165 104.648 53.2926 103.773 53.2926 102.636C53.2926 101.881 53.2116 101.237 53.0497 100.706C52.8906 100.175 52.6605 99.7699 52.3594 99.4915C52.0611 99.2131 51.7017 99.0739 51.2812 99.0739C50.6506 99.0739 50.1577 99.3849 49.8026 100.007C49.4474 100.626 49.2699 101.503 49.2699 102.636C49.2699 103.392 49.3494 104.034 49.5085 104.562C49.6676 105.091 49.8963 105.493 50.1946 105.768C50.4957 106.044 50.858 106.182 51.2812 106.182ZM55.7301 105.21V104.341L59.5653 98.2727H60.196V99.6193H59.7699L56.8722 104.205V104.273H62.0369V105.21H55.7301ZM59.8381 107V104.946V104.541V98.2727H60.8438V107H59.8381ZM70.81 101H69.7532C69.6907 100.696 69.5813 100.429 69.4251 100.199C69.2717 99.9688 69.0842 99.7756 68.8626 99.6193C68.6438 99.4602 68.4009 99.3409 68.1339 99.2614C67.8668 99.1818 67.5884 99.142 67.2987 99.142C66.7702 99.142 66.2915 99.2756 65.8626 99.5426C65.4364 99.8097 65.0969 100.203 64.8441 100.723C64.5941 101.243 64.4691 101.881 64.4691 102.636C64.4691 103.392 64.5941 104.03 64.8441 104.55C65.0969 105.07 65.4364 105.463 65.8626 105.73C66.2915 105.997 66.7702 106.131 67.2987 106.131C67.5884 106.131 67.8668 106.091 68.1339 106.011C68.4009 105.932 68.6438 105.814 68.8626 105.658C69.0842 105.499 69.2717 105.304 69.4251 105.074C69.5813 104.841 69.6907 104.574 69.7532 104.273H70.81C70.7305 104.719 70.5856 105.118 70.3754 105.47C70.1651 105.822 69.9038 106.122 69.5913 106.369C69.2788 106.614 68.9279 106.8 68.5387 106.928C68.1523 107.055 67.739 107.119 67.2987 107.119C66.5543 107.119 65.8924 106.938 65.3129 106.574C64.7333 106.21 64.2773 105.693 63.945 105.023C63.6126 104.352 63.4464 103.557 63.4464 102.636C63.4464 101.716 63.6126 100.92 63.945 100.25C64.2773 99.5795 64.7333 99.0625 65.3129 98.6989C65.8924 98.3352 66.5543 98.1534 67.2987 98.1534C67.739 98.1534 68.1523 98.2173 68.5387 98.3452C68.9279 98.473 69.2788 98.6605 69.5913 98.9077C69.9038 99.152 70.1651 99.4503 70.3754 99.8026C70.5856 100.152 70.7305 100.551 70.81 101Z" fill="black"/>
<rect x="208" y="199" width="75" height="75" transform="rotate(-90 208 199)" fill="#0E5364"/>
<path d="M223.176 214L224.608 205.273H225.46L224.028 214H223.176ZM219.205 211.58L219.341 210.727H225.852L225.716 211.58H219.205ZM220.108 214L221.54 205.273H222.392L220.96 214H220.108ZM219.716 208.545L219.852 207.693H226.364L226.227 208.545H219.716ZM230.32 214.119C229.678 214.119 229.131 213.945 228.68 213.595C228.228 213.243 227.883 212.733 227.644 212.065C227.406 211.395 227.286 210.585 227.286 209.636C227.286 208.693 227.406 207.888 227.644 207.22C227.886 206.55 228.232 206.038 228.684 205.686C229.138 205.331 229.684 205.153 230.32 205.153C230.957 205.153 231.501 205.331 231.952 205.686C232.407 206.038 232.754 206.55 232.992 207.22C233.234 207.888 233.354 208.693 233.354 209.636C233.354 210.585 233.235 211.395 232.996 212.065C232.758 212.733 232.413 213.243 231.961 213.595C231.509 213.945 230.962 214.119 230.32 214.119ZM230.32 213.182C230.957 213.182 231.451 212.875 231.803 212.261C232.156 211.648 232.332 210.773 232.332 209.636C232.332 208.881 232.251 208.237 232.089 207.706C231.93 207.175 231.7 206.77 231.398 206.491C231.1 206.213 230.741 206.074 230.32 206.074C229.69 206.074 229.197 206.385 228.842 207.007C228.487 207.626 228.309 208.503 228.309 209.636C228.309 210.392 228.388 211.034 228.548 211.562C228.707 212.091 228.935 212.493 229.234 212.768C229.535 213.044 229.897 213.182 230.32 213.182ZM235.127 214V205.273H240.394V206.21H236.184V209.159H240.121V210.097H236.184V213.062H240.462V214H235.127ZM244.873 214.119C244.373 214.119 243.923 214.02 243.522 213.821C243.121 213.622 242.8 213.349 242.559 213.003C242.317 212.656 242.185 212.261 242.163 211.818H243.185C243.225 212.213 243.404 212.54 243.722 212.798C244.043 213.054 244.427 213.182 244.873 213.182C245.231 213.182 245.549 213.098 245.827 212.93C246.109 212.763 246.329 212.533 246.488 212.24C246.65 211.945 246.731 211.611 246.731 211.239C246.731 210.858 246.647 210.518 246.479 210.22C246.315 209.919 246.087 209.682 245.798 209.509C245.508 209.335 245.177 209.247 244.805 209.244C244.538 209.241 244.263 209.283 243.982 209.368C243.701 209.45 243.469 209.557 243.288 209.688L242.299 209.568L242.827 205.273H247.362V206.21H243.714L243.407 208.784H243.458C243.637 208.642 243.862 208.524 244.131 208.43C244.401 208.337 244.683 208.29 244.975 208.29C245.509 208.29 245.985 208.418 246.403 208.673C246.823 208.926 247.153 209.273 247.391 209.713C247.633 210.153 247.754 210.656 247.754 211.222C247.754 211.778 247.629 212.276 247.379 212.713C247.131 213.148 246.79 213.491 246.356 213.744C245.921 213.994 245.427 214.119 244.873 214.119ZM252.395 214.119C251.833 214.119 251.331 214.023 250.891 213.83C250.453 213.636 250.105 213.368 249.847 213.024C249.591 212.678 249.452 212.276 249.429 211.818H250.503C250.526 212.099 250.623 212.342 250.793 212.547C250.963 212.749 251.186 212.905 251.462 213.016C251.738 213.126 252.043 213.182 252.378 213.182C252.753 213.182 253.086 213.116 253.375 212.986C253.665 212.855 253.892 212.673 254.057 212.44C254.222 212.207 254.304 211.938 254.304 211.631C254.304 211.31 254.225 211.027 254.066 210.783C253.907 210.536 253.674 210.342 253.367 210.203C253.06 210.064 252.685 209.994 252.242 209.994H251.543V209.057H252.242C252.588 209.057 252.892 208.994 253.154 208.869C253.418 208.744 253.624 208.568 253.772 208.341C253.922 208.114 253.998 207.847 253.998 207.54C253.998 207.244 253.932 206.987 253.801 206.768C253.671 206.55 253.486 206.379 253.248 206.257C253.012 206.135 252.733 206.074 252.412 206.074C252.111 206.074 251.827 206.129 251.56 206.24C251.296 206.348 251.08 206.506 250.912 206.713C250.745 206.918 250.654 207.165 250.64 207.455H249.617C249.634 206.997 249.772 206.597 250.03 206.253C250.289 205.906 250.627 205.636 251.044 205.443C251.465 205.25 251.926 205.153 252.429 205.153C252.969 205.153 253.432 205.263 253.819 205.482C254.205 205.697 254.502 205.983 254.709 206.338C254.917 206.693 255.02 207.077 255.02 207.489C255.02 207.98 254.891 208.399 254.632 208.746C254.377 209.092 254.029 209.332 253.588 209.466V209.534C254.14 209.625 254.57 209.859 254.88 210.237C255.189 210.612 255.344 211.077 255.344 211.631C255.344 212.105 255.215 212.531 254.956 212.909C254.701 213.284 254.351 213.58 253.908 213.795C253.465 214.011 252.961 214.119 252.395 214.119ZM259.985 214.119C259.627 214.114 259.269 214.045 258.911 213.915C258.553 213.784 258.226 213.564 257.931 213.254C257.635 212.942 257.398 212.52 257.219 211.989C257.04 211.455 256.951 210.784 256.951 209.977C256.951 209.205 257.023 208.52 257.168 207.923C257.313 207.324 257.523 206.82 257.799 206.411C258.074 205.999 258.407 205.686 258.796 205.473C259.188 205.26 259.63 205.153 260.121 205.153C260.61 205.153 261.044 205.251 261.425 205.447C261.809 205.641 262.121 205.911 262.363 206.257C262.604 206.604 262.76 207.003 262.831 207.455H261.792C261.695 207.062 261.507 206.737 261.229 206.479C260.951 206.22 260.581 206.091 260.121 206.091C259.445 206.091 258.912 206.385 258.523 206.973C258.137 207.561 257.942 208.386 257.939 209.449H258.007C258.167 209.207 258.355 209.001 258.574 208.831C258.796 208.658 259.04 208.524 259.307 208.43C259.574 208.337 259.857 208.29 260.155 208.29C260.655 208.29 261.113 208.415 261.527 208.665C261.942 208.912 262.275 209.254 262.525 209.692C262.775 210.126 262.9 210.625 262.9 211.188C262.9 211.727 262.779 212.222 262.537 212.67C262.296 213.116 261.956 213.472 261.519 213.736C261.084 213.997 260.573 214.125 259.985 214.119ZM259.985 213.182C260.343 213.182 260.664 213.092 260.948 212.913C261.235 212.734 261.461 212.494 261.625 212.193C261.793 211.892 261.877 211.557 261.877 211.188C261.877 210.827 261.796 210.499 261.634 210.203C261.475 209.905 261.255 209.668 260.973 209.491C260.695 209.315 260.377 209.227 260.019 209.227C259.749 209.227 259.498 209.281 259.265 209.389C259.032 209.494 258.827 209.639 258.651 209.824C258.478 210.009 258.341 210.22 258.242 210.459C258.142 210.695 258.093 210.943 258.093 211.205C258.093 211.551 258.174 211.875 258.336 212.176C258.5 212.477 258.725 212.72 259.009 212.905C259.296 213.089 259.621 213.182 259.985 213.182ZM264.371 212.21V211.341L268.206 205.273H268.837V206.619H268.411L265.513 211.205V211.273H270.678V212.21H264.371ZM268.479 214V211.946V211.541V205.273H269.484V214H268.479Z" fill="black"/>
<rect x="308" y="124" width="75" height="75" fill="#18C115"/>
<rect x="308" y="15" width="75" height="75" fill="#E23030"/>
<path d="M323.176 214L324.608 205.273H325.46L324.028 214H323.176ZM319.205 211.58L319.341 210.727H325.852L325.716 211.58H319.205ZM320.108 214L321.54 205.273H322.392L320.96 214H320.108ZM319.716 208.545L319.852 207.693H326.364L326.227 208.545H319.716ZM330.542 205.273V214H329.485V206.381H329.434L327.303 207.795V206.722L329.485 205.273H330.542ZM335.847 214.119C335.262 214.119 334.745 214.016 334.296 213.808C333.85 213.598 333.502 213.31 333.252 212.943C333.002 212.574 332.879 212.153 332.881 211.682C332.879 211.312 332.951 210.972 333.099 210.659C333.246 210.344 333.448 210.081 333.704 209.871C333.962 209.658 334.251 209.523 334.569 209.466V209.415C334.151 209.307 333.819 209.072 333.572 208.712C333.325 208.348 333.202 207.935 333.205 207.472C333.202 207.028 333.315 206.632 333.542 206.283C333.769 205.933 334.082 205.658 334.479 205.456C334.88 205.254 335.336 205.153 335.847 205.153C336.353 205.153 336.805 205.254 337.202 205.456C337.6 205.658 337.913 205.933 338.14 206.283C338.37 206.632 338.487 207.028 338.489 207.472C338.487 207.935 338.36 208.348 338.11 208.712C337.863 209.072 337.535 209.307 337.126 209.415V209.466C337.441 209.523 337.725 209.658 337.978 209.871C338.231 210.081 338.433 210.344 338.583 210.659C338.734 210.972 338.81 211.312 338.813 211.682C338.81 212.153 338.683 212.574 338.43 212.943C338.18 213.31 337.832 213.598 337.386 213.808C336.942 214.016 336.43 214.119 335.847 214.119ZM335.847 213.182C336.242 213.182 336.583 213.118 336.87 212.99C337.157 212.862 337.379 212.682 337.535 212.449C337.691 212.216 337.771 211.943 337.773 211.631C337.771 211.301 337.685 211.01 337.518 210.757C337.35 210.504 337.121 210.305 336.832 210.161C336.545 210.016 336.217 209.943 335.847 209.943C335.475 209.943 335.143 210.016 334.85 210.161C334.56 210.305 334.332 210.504 334.164 210.757C333.999 211.01 333.918 211.301 333.921 211.631C333.918 211.943 333.994 212.216 334.147 212.449C334.303 212.682 334.526 212.862 334.816 212.99C335.106 213.118 335.45 213.182 335.847 213.182ZM335.847 209.04C336.16 209.04 336.437 208.977 336.678 208.852C336.923 208.727 337.114 208.553 337.254 208.328C337.393 208.104 337.464 207.841 337.467 207.54C337.464 207.244 337.394 206.987 337.258 206.768C337.121 206.547 336.933 206.376 336.691 206.257C336.45 206.135 336.168 206.074 335.847 206.074C335.521 206.074 335.235 206.135 334.991 206.257C334.746 206.376 334.558 206.547 334.424 206.768C334.29 206.987 334.225 207.244 334.228 207.54C334.225 207.841 334.292 208.104 334.428 208.328C334.567 208.553 334.759 208.727 335.004 208.852C335.248 208.977 335.529 209.04 335.847 209.04ZM347.623 208H346.566C346.503 207.696 346.394 207.429 346.238 207.199C346.084 206.969 345.897 206.776 345.675 206.619C345.456 206.46 345.213 206.341 344.946 206.261C344.679 206.182 344.401 206.142 344.111 206.142C343.583 206.142 343.104 206.276 342.675 206.543C342.249 206.81 341.909 207.203 341.657 207.723C341.407 208.243 341.282 208.881 341.282 209.636C341.282 210.392 341.407 211.03 341.657 211.55C341.909 212.07 342.249 212.463 342.675 212.73C343.104 212.997 343.583 213.131 344.111 213.131C344.401 213.131 344.679 213.091 344.946 213.011C345.213 212.932 345.456 212.814 345.675 212.658C345.897 212.499 346.084 212.304 346.238 212.074C346.394 211.841 346.503 211.574 346.566 211.273H347.623C347.543 211.719 347.398 212.118 347.188 212.47C346.978 212.822 346.716 213.122 346.404 213.369C346.091 213.614 345.74 213.8 345.351 213.928C344.965 214.055 344.551 214.119 344.111 214.119C343.367 214.119 342.705 213.938 342.125 213.574C341.546 213.21 341.09 212.693 340.757 212.023C340.425 211.352 340.259 210.557 340.259 209.636C340.259 208.716 340.425 207.92 340.757 207.25C341.09 206.58 341.546 206.062 342.125 205.699C342.705 205.335 343.367 205.153 344.111 205.153C344.551 205.153 344.965 205.217 345.351 205.345C345.74 205.473 346.091 205.661 346.404 205.908C346.716 206.152 346.978 206.45 347.188 206.803C347.398 207.152 347.543 207.551 347.623 208ZM352.245 205.273V214H351.188V206.381H351.137L349.006 207.795V206.722L351.188 205.273H352.245ZM357.823 205.273V214H356.766V206.381H356.715L354.585 207.795V206.722L356.766 205.273H357.823ZM363.06 214.119C362.56 214.119 362.11 214.02 361.71 213.821C361.309 213.622 360.988 213.349 360.746 213.003C360.505 212.656 360.373 212.261 360.35 211.818H361.373C361.413 212.213 361.592 212.54 361.91 212.798C362.231 213.054 362.614 213.182 363.06 213.182C363.418 213.182 363.737 213.098 364.015 212.93C364.296 212.763 364.516 212.533 364.675 212.24C364.837 211.945 364.918 211.611 364.918 211.239C364.918 210.858 364.835 210.518 364.667 210.22C364.502 209.919 364.275 209.682 363.985 209.509C363.695 209.335 363.364 209.247 362.992 209.244C362.725 209.241 362.451 209.283 362.17 209.368C361.888 209.45 361.657 209.557 361.475 209.688L360.487 209.568L361.015 205.273H365.549V206.21H361.901L361.594 208.784H361.646C361.825 208.642 362.049 208.524 362.319 208.43C362.589 208.337 362.87 208.29 363.163 208.29C363.697 208.29 364.173 208.418 364.59 208.673C365.011 208.926 365.34 209.273 365.579 209.713C365.82 210.153 365.941 210.656 365.941 211.222C365.941 211.778 365.816 212.276 365.566 212.713C365.319 213.148 364.978 213.491 364.543 213.744C364.109 213.994 363.614 214.119 363.06 214.119Z" fill="black"/>
<path d="M322.176 108L323.608 99.2727H324.46L323.028 108H322.176ZM318.205 105.58L318.341 104.727H324.852L324.716 105.58H318.205ZM319.108 108L320.54 99.2727H321.392L319.96 108H319.108ZM318.716 102.545L318.852 101.693H325.364L325.227 102.545H318.716ZM326.627 108V99.2727H331.894V100.21H327.684V103.159H331.621V104.097H327.684V107.062H331.962V108H326.627ZM333.646 108V107.233L336.526 104.08C336.864 103.71 337.143 103.389 337.362 103.116C337.58 102.841 337.742 102.582 337.847 102.341C337.955 102.097 338.009 101.841 338.009 101.574C338.009 101.267 337.935 101.001 337.788 100.777C337.643 100.553 337.444 100.379 337.191 100.257C336.938 100.135 336.654 100.074 336.339 100.074C336.004 100.074 335.711 100.143 335.461 100.283C335.214 100.419 335.022 100.611 334.886 100.858C334.752 101.105 334.685 101.395 334.685 101.727H333.68C333.68 101.216 333.798 100.767 334.033 100.381C334.269 99.9943 334.59 99.6932 334.996 99.4773C335.406 99.2614 335.864 99.1534 336.373 99.1534C336.884 99.1534 337.337 99.2614 337.732 99.4773C338.127 99.6932 338.437 99.9844 338.661 100.351C338.886 100.717 338.998 101.125 338.998 101.574C338.998 101.895 338.94 102.209 338.823 102.516C338.71 102.82 338.511 103.159 338.227 103.534C337.945 103.906 337.555 104.361 337.055 104.898L335.094 106.994V107.062H339.151V108H333.646ZM343.86 108.119C343.298 108.119 342.796 108.023 342.356 107.83C341.918 107.636 341.57 107.368 341.312 107.024C341.056 106.678 340.917 106.276 340.894 105.818H341.968C341.991 106.099 342.087 106.342 342.258 106.547C342.428 106.749 342.651 106.905 342.927 107.016C343.202 107.126 343.508 107.182 343.843 107.182C344.218 107.182 344.55 107.116 344.84 106.986C345.13 106.855 345.357 106.673 345.522 106.44C345.687 106.207 345.769 105.938 345.769 105.631C345.769 105.31 345.69 105.027 345.531 104.783C345.371 104.536 345.138 104.342 344.832 104.203C344.525 104.064 344.15 103.994 343.707 103.994H343.008V103.057H343.707C344.053 103.057 344.357 102.994 344.619 102.869C344.883 102.744 345.089 102.568 345.237 102.341C345.387 102.114 345.462 101.847 345.462 101.54C345.462 101.244 345.397 100.987 345.266 100.768C345.136 100.55 344.951 100.379 344.712 100.257C344.477 100.135 344.198 100.074 343.877 100.074C343.576 100.074 343.292 100.129 343.025 100.24C342.761 100.348 342.545 100.506 342.377 100.713C342.21 100.918 342.119 101.165 342.104 101.455H341.082C341.099 100.997 341.237 100.597 341.495 100.253C341.754 99.9062 342.092 99.6364 342.509 99.4432C342.93 99.25 343.391 99.1534 343.894 99.1534C344.434 99.1534 344.897 99.2628 345.283 99.4815C345.67 99.6974 345.967 99.983 346.174 100.338C346.381 100.693 346.485 101.077 346.485 101.489C346.485 101.98 346.356 102.399 346.097 102.746C345.842 103.092 345.494 103.332 345.053 103.466V103.534C345.604 103.625 346.035 103.859 346.344 104.237C346.654 104.612 346.809 105.077 346.809 105.631C346.809 106.105 346.68 106.531 346.421 106.909C346.165 107.284 345.816 107.58 345.373 107.795C344.93 108.011 344.425 108.119 343.86 108.119ZM351.398 108.119C350.756 108.119 350.21 107.945 349.758 107.595C349.306 107.243 348.961 106.733 348.722 106.065C348.484 105.395 348.364 104.585 348.364 103.636C348.364 102.693 348.484 101.888 348.722 101.22C348.964 100.55 349.31 100.038 349.762 99.6861C350.217 99.331 350.762 99.1534 351.398 99.1534C352.035 99.1534 352.579 99.331 353.031 99.6861C353.485 100.038 353.832 100.55 354.07 101.22C354.312 101.888 354.433 102.693 354.433 103.636C354.433 104.585 354.313 105.395 354.075 106.065C353.836 106.733 353.491 107.243 353.039 107.595C352.587 107.945 352.04 108.119 351.398 108.119ZM351.398 107.182C352.035 107.182 352.529 106.875 352.881 106.261C353.234 105.648 353.41 104.773 353.41 103.636C353.41 102.881 353.329 102.237 353.167 101.706C353.008 101.175 352.778 100.77 352.477 100.491C352.178 100.213 351.819 100.074 351.398 100.074C350.768 100.074 350.275 100.385 349.92 101.007C349.565 101.626 349.387 102.503 349.387 103.636C349.387 104.392 349.467 105.034 349.626 105.562C349.785 106.091 350.013 106.493 350.312 106.768C350.613 107.044 350.975 107.182 351.398 107.182ZM359.001 108.119C358.438 108.119 357.937 108.023 357.496 107.83C357.059 107.636 356.711 107.368 356.452 107.024C356.197 106.678 356.058 106.276 356.035 105.818H357.109C357.131 106.099 357.228 106.342 357.398 106.547C357.569 106.749 357.792 106.905 358.067 107.016C358.343 107.126 358.648 107.182 358.984 107.182C359.359 107.182 359.691 107.116 359.981 106.986C360.271 106.855 360.498 106.673 360.663 106.44C360.827 106.207 360.91 105.938 360.91 105.631C360.91 105.31 360.83 105.027 360.671 104.783C360.512 104.536 360.279 104.342 359.972 104.203C359.665 104.064 359.29 103.994 358.847 103.994H358.148V103.057H358.847C359.194 103.057 359.498 102.994 359.759 102.869C360.023 102.744 360.229 102.568 360.377 102.341C360.528 102.114 360.603 101.847 360.603 101.54C360.603 101.244 360.538 100.987 360.407 100.768C360.276 100.55 360.092 100.379 359.853 100.257C359.617 100.135 359.339 100.074 359.018 100.074C358.717 100.074 358.433 100.129 358.165 100.24C357.901 100.348 357.685 100.506 357.518 100.713C357.35 100.918 357.259 101.165 357.245 101.455H356.222C356.239 100.997 356.377 100.597 356.636 100.253C356.894 99.9062 357.232 99.6364 357.65 99.4432C358.07 99.25 358.532 99.1534 359.035 99.1534C359.575 99.1534 360.038 99.2628 360.424 99.4815C360.81 99.6974 361.107 99.983 361.315 100.338C361.522 100.693 361.626 101.077 361.626 101.489C361.626 101.98 361.496 102.399 361.238 102.746C360.982 103.092 360.634 103.332 360.194 103.466V103.534C360.745 103.625 361.175 103.859 361.485 104.237C361.795 104.612 361.95 105.077 361.95 105.631C361.95 106.105 361.82 106.531 361.562 106.909C361.306 107.284 360.957 107.58 360.513 107.795C360.07 108.011 359.566 108.119 359.001 108.119ZM366.539 108.119C365.897 108.119 365.35 107.945 364.898 107.595C364.447 107.243 364.102 106.733 363.863 106.065C363.624 105.395 363.505 104.585 363.505 103.636C363.505 102.693 363.624 101.888 363.863 101.22C364.104 100.55 364.451 100.038 364.903 99.6861C365.357 99.331 365.903 99.1534 366.539 99.1534C367.175 99.1534 367.719 99.331 368.171 99.6861C368.626 100.038 368.972 100.55 369.211 101.22C369.452 101.888 369.573 102.693 369.573 103.636C369.573 104.585 369.454 105.395 369.215 106.065C368.977 106.733 368.631 107.243 368.18 107.595C367.728 107.945 367.181 108.119 366.539 108.119ZM366.539 107.182C367.175 107.182 367.67 106.875 368.022 106.261C368.374 105.648 368.55 104.773 368.55 103.636C368.55 102.881 368.469 102.237 368.308 101.706C368.148 101.175 367.918 100.77 367.617 100.491C367.319 100.213 366.96 100.074 366.539 100.074C365.908 100.074 365.415 100.385 365.06 101.007C364.705 101.626 364.528 102.503 364.528 103.636C364.528 104.392 364.607 105.034 364.766 105.562C364.925 106.091 365.154 106.493 365.452 106.768C365.754 107.044 366.116 107.182 366.539 107.182Z" fill="black"/>
</svg>
