<?xml version="1.0" encoding="UTF-8"?><svg id="Layer_1" xmlns="http://www.w3.org/2000/svg" viewBox="0 0 396.88 224.27"><defs><style>.cls-1{fill:#f3ad78;}.cls-2{fill:#e8804c;}.cls-3{fill:#0e5364;}.cls-4{fill:#1697b7;}.cls-5{fill:none;stroke:#fff;stroke-width:2px;}</style></defs><rect class="cls-1" width="396.88" height="224.27"/><path class="cls-3" d="M190.02,160.43c-.55,2.27-1.46,4.29-2.72,6.05-1.21,1.71-2.7,3.18-4.46,4.39-1.72,1.21-3.66,2.12-5.83,2.72-2.12,.61-4.36,.91-6.73,.91-6.51,0-11.57-2.29-15.21-6.88-3.58-4.59-5.37-11.52-5.37-20.8,0-3.43,.3-6.93,.91-10.52,.61-3.58,1.66-6.83,3.18-9.76,1.51-2.93,3.53-5.32,6.05-7.19,2.57-1.87,5.8-2.8,9.68-2.8,1.87,0,3.68,.25,5.45,.76,1.76,.45,3.3,1.19,4.61,2.19,1.36,.96,2.45,2.19,3.25,3.71,.81,1.51,1.21,3.28,1.21,5.3,0,1.51-.3,2.75-.91,3.71-.55,.96-1.61,1.44-3.18,1.44-.61,0-1.34-.1-2.19-.3-.81-.25-1.66-.81-2.57-1.66,.66-.4,1.19-1.13,1.59-2.19,.4-1.11,.61-2.19,.61-3.25,0-1.61-.48-3.03-1.44-4.24-.96-1.26-2.24-1.89-3.86-1.89-1.72,0-3.2,.73-4.46,2.19-1.26,1.46-2.32,3.4-3.18,5.83-.81,2.37-1.41,5.09-1.82,8.17-.4,3.03-.61,6.13-.61,9.31,0,4.19,.33,7.69,.98,10.52,.71,2.82,1.64,5.09,2.8,6.81,1.16,1.71,2.52,2.93,4.09,3.63,1.61,.71,3.33,1.06,5.14,1.06,2.87,0,5.45-.71,7.72-2.12,2.32-1.46,4.11-3.4,5.37-5.83l1.89,.76Zm12.78-25.34c3.13,0,5.67,.78,7.64,2.35,1.97,1.51,3.38,3.93,4.24,7.26,.45-.25,.86-.58,1.21-.98,.4-.45,.73-.91,.98-1.36,.3-.5,.56-.98,.76-1.44,.2-.45,.35-.83,.45-1.13h2.42c-.2,.76-.45,1.59-.76,2.5-.25,.91-.58,1.82-.98,2.72-.35,.86-.81,1.69-1.36,2.5-.55,.81-1.24,1.51-2.04,2.12,.05,.5,.08,1.03,.08,1.59,.05,.5,.08,1.03,.08,1.59,0,2.93-.25,5.67-.76,8.25-.5,2.52-1.36,4.74-2.57,6.66-1.16,1.87-2.67,3.35-4.54,4.46-1.87,1.06-4.16,1.59-6.88,1.59-1.87,0-3.66-.28-5.37-.83-1.66-.61-3.15-1.56-4.46-2.87-1.31-1.36-2.37-3.13-3.18-5.3-.76-2.22-1.13-4.92-1.13-8.09,0-2.17,.23-4.49,.68-6.96,.45-2.52,1.29-4.87,2.5-7.04,1.21-2.17,2.85-3.96,4.92-5.37,2.12-1.46,4.82-2.19,8.09-2.19Zm.08,31.55c1.06,0,1.97-.35,2.72-1.06,.81-.76,1.46-1.77,1.97-3.03,.5-1.31,.86-2.85,1.06-4.61,.25-1.77,.38-3.68,.38-5.75v-1.06c-2.02-.45-3.03-1.94-3.03-4.46,0-1.61,.66-2.67,1.97-3.18-.55-1.61-1.24-2.65-2.04-3.1-.76-.5-1.41-.76-1.97-.76-1.11,0-2.07,.53-2.87,1.59-.76,1.01-1.39,2.32-1.89,3.93-.5,1.56-.88,3.3-1.13,5.22-.2,1.92-.3,3.76-.3,5.52,0,2.27,.15,4.11,.45,5.52,.35,1.41,.78,2.5,1.29,3.25,.5,.76,1.06,1.29,1.66,1.59,.61,.25,1.19,.38,1.74,.38Zm52.39-40.55c0,1.92-.43,3.48-1.29,4.69-.81,1.16-1.99,1.74-3.56,1.74-1.41,0-2.67-.53-3.78-1.59,.71-.5,1.24-1.24,1.59-2.19,.4-.96,.61-1.94,.61-2.95,0-1.56-.5-2.85-1.51-3.86s-2.55-1.51-4.61-1.51c-2.27,0-3.91,.63-4.92,1.89-1.01,1.26-1.51,2.95-1.51,5.07,0,2.47,.58,4.49,1.74,6.05,1.21,1.56,2.7,2.98,4.46,4.24,1.76,1.21,3.66,2.37,5.67,3.48,2.07,1.11,3.98,2.42,5.75,3.93,1.76,1.51,3.23,3.35,4.39,5.52,1.21,2.12,1.82,4.84,1.82,8.17,0,2.82-.48,5.25-1.44,7.26-.91,2.02-2.17,3.68-3.78,4.99-1.61,1.26-3.53,2.17-5.75,2.72-2.22,.61-4.64,.91-7.26,.91-2.32,0-4.61-.25-6.88-.76-2.22-.45-4.21-1.21-5.98-2.27-1.72-1.11-3.1-2.55-4.16-4.31-1.06-1.82-1.59-4.01-1.59-6.58,0-1.71,.23-3.28,.68-4.69,.5-1.41,1.16-2.6,1.97-3.56,.86-.96,1.84-1.69,2.95-2.19,1.11-.55,2.27-.83,3.48-.83,.61,0,1.26,.08,1.97,.23s1.41,.43,2.12,.83c.71,.35,1.36,.86,1.97,1.51,.61,.66,1.08,1.46,1.44,2.42-.91,0-1.82,.1-2.72,.3-.91,.2-1.74,.55-2.5,1.06-.71,.5-1.29,1.21-1.74,2.12-.45,.86-.68,1.97-.68,3.33,0,2.62,.81,4.51,2.42,5.67,1.61,1.11,3.63,1.66,6.05,1.66s4.29-.58,5.6-1.74c1.31-1.16,1.97-3.15,1.97-5.98,0-2.62-.55-4.84-1.66-6.66-1.06-1.82-2.42-3.4-4.09-4.77s-3.46-2.62-5.37-3.78c-1.87-1.21-3.63-2.5-5.3-3.86-1.66-1.41-3.05-3.05-4.16-4.92-1.06-1.87-1.59-4.16-1.59-6.88,0-4.39,1.46-7.72,4.39-9.99,2.93-2.32,6.91-3.48,11.95-3.48,.71,0,1.76,.08,3.18,.23,1.46,.1,2.9,.48,4.31,1.13,1.46,.61,2.72,1.56,3.78,2.87,1.06,1.26,1.59,3.03,1.59,5.3Zm19.99,9.38v25.72c0,2.12,.28,3.53,.83,4.24,.61,.66,1.64,.98,3.1,.98s2.67-.63,3.63-1.89c1.01-1.26,1.59-2.85,1.74-4.77h3.18c-.4,3.08-1.11,5.55-2.12,7.41-1.01,1.82-2.14,3.23-3.4,4.24-1.26,.96-2.55,1.59-3.86,1.89-1.31,.3-2.47,.45-3.48,.45-3.88,0-6.61-1.06-8.17-3.18-1.56-2.17-2.35-5.02-2.35-8.55v-26.55h10.89Zm-11.73-10.06c0-1.66,.58-3.08,1.74-4.24,1.16-1.21,2.57-1.82,4.24-1.82s3.08,.61,4.24,1.82c1.21,1.16,1.82,2.57,1.82,4.24s-.61,3.08-1.82,4.24c-1.16,1.16-2.57,1.74-4.24,1.74s-3.08-.58-4.24-1.74c-1.16-1.16-1.74-2.57-1.74-4.24Zm52.1,10.06v35.1c1.06-.4,1.99-.88,2.8-1.44,.81-.55,1.51-1.24,2.12-2.04,.61-.86,1.08-1.87,1.44-3.03,.4-1.21,.71-2.65,.91-4.31h3.18c-.25,2.52-.73,4.61-1.44,6.28-.66,1.61-1.49,2.95-2.5,4.01-.96,1.06-2.02,1.89-3.18,2.5-1.11,.61-2.22,1.08-3.33,1.44v5.37c0,2.72-.33,4.92-.98,6.58-.66,1.66-1.51,2.95-2.57,3.86-1.01,.96-2.14,1.59-3.4,1.89-1.21,.35-2.4,.53-3.56,.53-1.46,0-2.85-.2-4.16-.61-1.26-.4-2.37-.98-3.33-1.74-.91-.71-1.64-1.59-2.19-2.65-.55-1.06-.83-2.24-.83-3.56s.28-2.6,.83-3.71c.61-1.06,1.39-1.99,2.35-2.8s2.04-1.51,3.25-2.12c1.21-.55,2.45-1.03,3.71-1.44v-6.35c-.86,1.41-1.97,2.6-3.33,3.56-1.31,.96-3.05,1.44-5.22,1.44-1.56,0-3.13-.3-4.69-.91-1.56-.61-2.98-1.56-4.24-2.87-1.26-1.31-2.29-3.03-3.1-5.14-.76-2.17-1.13-4.77-1.13-7.79,0-2.27,.25-4.59,.76-6.96,.5-2.42,1.34-4.61,2.5-6.58,1.21-2.02,2.77-3.66,4.69-4.92,1.97-1.31,4.36-1.97,7.19-1.97,.5,0,1.06,.05,1.66,.15,.66,.05,1.29,.2,1.89,.45s1.19,.63,1.74,1.13,.98,1.19,1.29,2.04v-3.4h10.89Zm-14.53,4.31c-1.26,0-2.35,.48-3.25,1.44-.86,.96-1.59,2.19-2.19,3.71-.55,1.46-.96,3.1-1.21,4.92-.25,1.82-.38,3.58-.38,5.3,0,2.37,.2,4.21,.61,5.52,.4,1.31,.88,2.29,1.44,2.95,.55,.61,1.11,.98,1.66,1.13,.55,.1,.98,.15,1.29,.15,1.61,0,2.9-.53,3.86-1.59,1.01-1.06,1.61-2.4,1.82-4.01v-16.87c-.15-.5-.53-1.06-1.13-1.66-.55-.66-1.39-.98-2.5-.98Zm-2.5,43.27c0,.96,.33,1.74,.98,2.35,.66,.61,1.34,.91,2.04,.91,.91,0,1.64-.55,2.19-1.66,.61-1.11,.91-2.8,.91-5.07v-2.19c-1.76,.71-3.23,1.51-4.39,2.42-1.16,.96-1.74,2.04-1.74,3.25Zm43.56-32.76c0-2.98-.35-5.09-1.06-6.35-.66-1.26-1.64-1.89-2.95-1.89s-2.4,.68-3.1,2.04c-.71,1.36-1.13,3-1.29,4.92v24.28h-10.89v-37.83h10.89v3.93c1.21-1.82,2.55-2.98,4.01-3.48,1.46-.5,2.77-.76,3.93-.76,1.46,0,2.85,.23,4.16,.68,1.31,.45,2.45,1.21,3.4,2.27,1.01,1.06,1.79,2.47,2.35,4.24,.55,1.71,.83,3.86,.83,6.43,0,.86-.03,1.79-.08,2.8,0,.96-.03,1.94-.08,2.95-.05,1.01-.1,1.99-.15,2.95v2.5c0,2.12,.25,3.73,.76,4.84,.55,1.06,1.64,1.59,3.25,1.59,1.21,0,2.02-.15,2.42-.45,0,2.72-.58,4.72-1.74,5.98-1.11,1.21-2.75,1.82-4.92,1.82-1.87,0-3.43-.35-4.69-1.06-1.26-.76-2.3-1.77-3.1-3.03-.76-1.26-1.31-2.72-1.66-4.39-.3-1.66-.45-3.43-.45-5.3v-2.27c.05-.91,.08-1.79,.08-2.65v-2.57c.05-.86,.08-1.59,.08-2.19Z"/><path class="cls-4" d="M52.69,186.64c-13.03,4.4-15.18-14.85-14.62-25.03-.21-7.37,4.49-11.1,6.87-12.04-4.69-4.69-13.06-16.63-8.96-26.82,.29-.72,.73-1.37,1.29-1.96,3.03-5.02,7-14.52,5.41-24.05-2.29-13.71,17.75,4.73,10,20.02,16.64,.02,39.68,7.1,41.52,15.29,.96,4.29-4.7,7.17-12.34,8.79,5.37,2.06,9.61,4.47,10.89,6.74,1.2,2.12-.99,4.69-4.89,7.14,.85,.02,1.71,.04,2.58,.06,26.58,.66-21.47,26.35-37.76,31.86Z"/><path class="cls-5" d="M35.97,122.74c-4.1,10.2,4.27,22.13,8.96,26.82-2.38,.95-7.08,4.68-6.87,12.04-.56,10.18,1.59,29.43,14.62,25.03,16.29-5.5,64.34-31.19,37.76-31.86-26.58-.66-44.34-.54-38.02,6.5,6.32,7.04,44.58-6.19,40.33-13.69-4.24-7.51-40.82-16.54-44.05-9.57-3.24,6.97,48.26,6.32,45.5-5.96-1.84-8.2-24.88-15.28-41.52-15.29m-16.71,5.98c3-4.1,8.53-15.03,6.71-26-2.29-13.71,17.75,4.73,10,20.02m-16.71,5.98c1.7-4.24,8.41-5.99,16.71-5.98"/><path class="cls-2" d="M113.74,186.08c13.03,4.4,15.18-14.85,14.62-25.03,.21-7.37-4.49-11.1-6.87-12.04,4.69-4.69,13.06-16.63,8.96-26.82-.29-.72-.73-1.37-1.29-1.96-3.03-5.02-7-14.52-5.41-24.05,2.29-13.71-17.75,4.73-10,20.02-16.64,.02-39.68,7.1-41.52,15.3-.96,4.29,4.7,7.17,12.34,8.79-5.37,2.06-9.61,4.47-10.89,6.74-1.2,2.12,.99,4.69,4.89,7.14-.85,.02-1.71,.04-2.58,.06-26.58,.66,21.47,26.35,37.76,31.86Z"/><path class="cls-5" d="M130.45,122.19c4.1,10.2-4.27,22.13-8.96,26.82,2.38,.95,7.08,4.68,6.87,12.04,.56,10.18-1.59,29.43-14.62,25.03-16.29-5.5-64.34-31.19-37.76-31.86,26.58-.66,44.34-.54,38.02,6.5-6.32,7.04-44.58-6.19-40.33-13.69,4.24-7.51,40.81-16.54,44.05-9.57,3.24,6.97-48.26,6.32-45.5-5.96,1.84-8.2,24.88-15.28,41.52-15.3m16.71,5.98c-3-4.1-8.53-15.03-6.71-26,2.29-13.71-17.75,4.73-10,20.02m16.71,5.98c-1.7-4.24-8.41-5.99-16.71-5.98"/></svg>