<svg width="390" height="769" viewBox="0 0 390 769" fill="none" xmlns="http://www.w3.org/2000/svg">
<rect x="62" y="133" width="291" height="104" fill="#F3AD78"/>
<path d="M158.64 515.14C158.215 516.88 157.519 518.427 156.552 519.78C155.624 521.095 154.483 522.216 153.13 523.144C151.815 524.072 150.327 524.768 148.664 525.232C147.04 525.696 145.319 525.928 143.502 525.928C138.514 525.928 134.628 524.169 131.844 520.65C129.099 517.131 127.726 511.815 127.726 504.7C127.726 502.071 127.958 499.383 128.422 496.638C128.886 493.893 129.698 491.399 130.858 489.156C132.018 486.913 133.565 485.077 135.498 483.646C137.47 482.215 139.945 481.5 142.922 481.5C144.353 481.5 145.745 481.693 147.098 482.08C148.451 482.428 149.631 482.989 150.636 483.762C151.68 484.497 152.511 485.444 153.13 486.604C153.749 487.764 154.058 489.117 154.058 490.664C154.058 491.824 153.826 492.771 153.362 493.506C152.937 494.241 152.125 494.608 150.926 494.608C150.462 494.608 149.901 494.531 149.244 494.376C148.625 494.183 147.968 493.757 147.272 493.1C147.775 492.791 148.181 492.23 148.49 491.418C148.799 490.567 148.954 489.736 148.954 488.924C148.954 487.687 148.587 486.604 147.852 485.676C147.117 484.709 146.131 484.226 144.894 484.226C143.579 484.226 142.439 484.787 141.472 485.908C140.505 487.029 139.693 488.518 139.036 490.374C138.417 492.191 137.953 494.279 137.644 496.638C137.335 498.958 137.18 501.336 137.18 503.772C137.18 506.981 137.431 509.669 137.934 511.834C138.475 513.999 139.191 515.739 140.08 517.054C140.969 518.369 142.013 519.297 143.212 519.838C144.449 520.379 145.764 520.65 147.156 520.65C149.36 520.65 151.332 520.109 153.072 519.026C154.851 517.905 156.223 516.416 157.19 514.56L158.64 515.14ZM168.435 495.71C170.833 495.71 172.785 496.309 174.293 497.508C175.801 498.668 176.884 500.524 177.541 503.076C177.889 502.883 178.199 502.631 178.469 502.322C178.779 501.974 179.03 501.626 179.223 501.278C179.455 500.891 179.649 500.524 179.803 500.176C179.958 499.828 180.074 499.538 180.151 499.306H182.007C181.853 499.886 181.659 500.524 181.427 501.22C181.234 501.916 180.983 502.612 180.673 503.308C180.403 503.965 180.055 504.603 179.629 505.222C179.204 505.841 178.682 506.382 178.063 506.846C178.102 507.233 178.121 507.639 178.121 508.064C178.16 508.451 178.179 508.857 178.179 509.282C178.179 511.525 177.986 513.632 177.599 515.604C177.213 517.537 176.555 519.239 175.627 520.708C174.738 522.139 173.578 523.279 172.147 524.13C170.717 524.942 168.957 525.348 166.869 525.348C165.439 525.348 164.066 525.135 162.751 524.71C161.475 524.246 160.335 523.511 159.329 522.506C158.324 521.462 157.512 520.109 156.893 518.446C156.313 516.745 156.023 514.676 156.023 512.24C156.023 510.577 156.197 508.799 156.545 506.904C156.893 504.971 157.531 503.173 158.459 501.51C159.387 499.847 160.644 498.475 162.229 497.392C163.853 496.271 165.922 495.71 168.435 495.71ZM168.493 519.896C169.305 519.896 170.001 519.625 170.581 519.084C171.2 518.504 171.703 517.731 172.089 516.764C172.476 515.759 172.747 514.579 172.901 513.226C173.095 511.873 173.191 510.403 173.191 508.818V508.006C171.645 507.658 170.871 506.517 170.871 504.584C170.871 503.347 171.374 502.535 172.379 502.148C171.954 500.911 171.432 500.118 170.813 499.77C170.233 499.383 169.731 499.19 169.305 499.19C168.455 499.19 167.72 499.596 167.101 500.408C166.521 501.181 166.038 502.187 165.651 503.424C165.265 504.623 164.975 505.957 164.781 507.426C164.627 508.895 164.549 510.307 164.549 511.66C164.549 513.4 164.665 514.811 164.897 515.894C165.168 516.977 165.497 517.808 165.883 518.388C166.27 518.968 166.695 519.374 167.159 519.606C167.623 519.799 168.068 519.896 168.493 519.896ZM208.655 488.808C208.655 490.277 208.326 491.476 207.669 492.404C207.05 493.293 206.142 493.738 204.943 493.738C203.86 493.738 202.894 493.332 202.043 492.52C202.584 492.133 202.99 491.573 203.261 490.838C203.57 490.103 203.725 489.349 203.725 488.576C203.725 487.377 203.338 486.391 202.565 485.618C201.792 484.845 200.612 484.458 199.027 484.458C197.287 484.458 196.03 484.941 195.257 485.908C194.484 486.875 194.097 488.17 194.097 489.794C194.097 491.689 194.542 493.235 195.431 494.434C196.359 495.633 197.5 496.715 198.853 497.682C200.206 498.61 201.656 499.499 203.203 500.35C204.788 501.201 206.258 502.206 207.611 503.366C208.964 504.526 210.086 505.937 210.975 507.6C211.903 509.224 212.367 511.312 212.367 513.864C212.367 516.029 212 517.885 211.265 519.432C210.569 520.979 209.602 522.255 208.365 523.26C207.128 524.227 205.658 524.923 203.957 525.348C202.256 525.812 200.4 526.044 198.389 526.044C196.61 526.044 194.851 525.851 193.111 525.464C191.41 525.116 189.882 524.536 188.529 523.724C187.214 522.873 186.151 521.771 185.339 520.418C184.527 519.026 184.121 517.344 184.121 515.372C184.121 514.057 184.295 512.859 184.643 511.776C185.03 510.693 185.532 509.785 186.151 509.05C186.808 508.315 187.562 507.755 188.413 507.368C189.264 506.943 190.153 506.73 191.081 506.73C191.545 506.73 192.048 506.788 192.589 506.904C193.13 507.02 193.672 507.233 194.213 507.542C194.754 507.813 195.257 508.199 195.721 508.702C196.185 509.205 196.552 509.823 196.823 510.558C196.127 510.558 195.431 510.635 194.735 510.79C194.039 510.945 193.401 511.215 192.821 511.602C192.28 511.989 191.835 512.53 191.487 513.226C191.139 513.883 190.965 514.734 190.965 515.778C190.965 517.789 191.584 519.239 192.821 520.128C194.058 520.979 195.605 521.404 197.461 521.404C199.317 521.404 200.748 520.959 201.753 520.07C202.758 519.181 203.261 517.653 203.261 515.488C203.261 513.477 202.836 511.776 201.985 510.384C201.173 508.992 200.129 507.774 198.853 506.73C197.577 505.686 196.204 504.719 194.735 503.83C193.304 502.902 191.951 501.916 190.675 500.872C189.399 499.789 188.336 498.533 187.485 497.102C186.673 495.671 186.267 493.912 186.267 491.824C186.267 488.46 187.388 485.908 189.631 484.168C191.874 482.389 194.928 481.5 198.795 481.5C199.336 481.5 200.148 481.558 201.231 481.674C202.352 481.751 203.454 482.041 204.537 482.544C205.658 483.008 206.625 483.743 207.437 484.748C208.249 485.715 208.655 487.068 208.655 488.808ZM223.984 496V515.72C223.984 517.344 224.197 518.427 224.622 518.968C225.086 519.471 225.879 519.722 227 519.722C228.122 519.722 229.05 519.239 229.784 518.272C230.558 517.305 231.002 516.087 231.118 514.618H233.554C233.245 516.977 232.704 518.871 231.93 520.302C231.157 521.694 230.287 522.777 229.32 523.55C228.354 524.285 227.368 524.768 226.362 525C225.357 525.232 224.468 525.348 223.694 525.348C220.717 525.348 218.629 524.536 217.43 522.912C216.232 521.249 215.632 519.065 215.632 516.358V496H223.984ZM214.994 488.286C214.994 487.01 215.439 485.927 216.328 485.038C217.218 484.11 218.3 483.646 219.576 483.646C220.852 483.646 221.935 484.11 222.824 485.038C223.752 485.927 224.216 487.01 224.216 488.286C224.216 489.562 223.752 490.645 222.824 491.534C221.935 492.423 220.852 492.868 219.576 492.868C218.3 492.868 217.218 492.423 216.328 491.534C215.439 490.645 214.994 489.562 214.994 488.286ZM254.933 496V522.912C255.745 522.603 256.46 522.235 257.079 521.81C257.698 521.385 258.239 520.863 258.703 520.244C259.167 519.587 259.534 518.813 259.805 517.924C260.114 516.996 260.346 515.894 260.501 514.618H262.937C262.744 516.551 262.376 518.156 261.835 519.432C261.332 520.669 260.694 521.694 259.921 522.506C259.186 523.318 258.374 523.956 257.485 524.42C256.634 524.884 255.784 525.251 254.933 525.522V529.64C254.933 531.728 254.682 533.41 254.179 534.686C253.676 535.962 253.019 536.948 252.207 537.644C251.434 538.379 250.564 538.862 249.597 539.094C248.669 539.365 247.76 539.5 246.871 539.5C245.75 539.5 244.686 539.345 243.681 539.036C242.714 538.727 241.864 538.282 241.129 537.702C240.433 537.161 239.872 536.484 239.447 535.672C239.022 534.86 238.809 533.951 238.809 532.946C238.809 531.902 239.022 530.955 239.447 530.104C239.911 529.292 240.51 528.577 241.245 527.958C241.98 527.339 242.811 526.798 243.739 526.334C244.667 525.909 245.614 525.541 246.581 525.232V520.36C245.924 521.443 245.073 522.351 244.029 523.086C243.024 523.821 241.69 524.188 240.027 524.188C238.828 524.188 237.63 523.956 236.431 523.492C235.232 523.028 234.15 522.293 233.183 521.288C232.216 520.283 231.424 518.968 230.805 517.344C230.225 515.681 229.935 513.69 229.935 511.37C229.935 509.63 230.128 507.851 230.515 506.034C230.902 504.178 231.54 502.496 232.429 500.988C233.357 499.441 234.556 498.185 236.025 497.218C237.533 496.213 239.37 495.71 241.535 495.71C241.922 495.71 242.347 495.749 242.811 495.826C243.314 495.865 243.797 495.981 244.261 496.174C244.725 496.367 245.17 496.657 245.595 497.044C246.02 497.431 246.349 497.953 246.581 498.61V496H254.933ZM243.797 499.306C242.83 499.306 241.999 499.673 241.303 500.408C240.646 501.143 240.085 502.09 239.621 503.25C239.196 504.371 238.886 505.628 238.693 507.02C238.5 508.412 238.403 509.765 238.403 511.08C238.403 512.897 238.558 514.309 238.867 515.314C239.176 516.319 239.544 517.073 239.969 517.576C240.394 518.04 240.82 518.33 241.245 518.446C241.67 518.523 241.999 518.562 242.231 518.562C243.468 518.562 244.454 518.156 245.189 517.344C245.962 516.532 246.426 515.507 246.581 514.27V501.336C246.465 500.949 246.175 500.524 245.711 500.06C245.286 499.557 244.648 499.306 243.797 499.306ZM241.883 532.482C241.883 533.217 242.134 533.816 242.637 534.28C243.14 534.744 243.662 534.976 244.203 534.976C244.899 534.976 245.46 534.551 245.885 533.7C246.349 532.849 246.581 531.554 246.581 529.814V528.132C245.228 528.673 244.106 529.292 243.217 529.988C242.328 530.723 241.883 531.554 241.883 532.482ZM275.282 507.368C275.282 505.087 275.011 503.463 274.47 502.496C273.967 501.529 273.213 501.046 272.208 501.046C271.164 501.046 270.371 501.568 269.83 502.612C269.288 503.656 268.96 504.913 268.844 506.382V525H260.492V496H268.844V499.016C269.772 497.624 270.796 496.735 271.918 496.348C273.039 495.961 274.044 495.768 274.934 495.768C276.055 495.768 277.118 495.942 278.124 496.29C279.129 496.638 279.999 497.218 280.734 498.03C281.507 498.842 282.106 499.925 282.532 501.278C282.957 502.593 283.17 504.236 283.17 506.208C283.17 506.865 283.15 507.581 283.112 508.354C283.112 509.089 283.092 509.843 283.054 510.616C283.015 511.389 282.976 512.143 282.938 512.878C282.938 513.613 282.938 514.251 282.938 514.792C282.938 516.416 283.131 517.653 283.518 518.504C283.943 519.316 284.774 519.722 286.012 519.722C286.94 519.722 287.558 519.606 287.868 519.374C287.868 521.462 287.423 522.989 286.534 523.956C285.683 524.884 284.426 525.348 282.764 525.348C281.333 525.348 280.134 525.077 279.168 524.536C278.201 523.956 277.408 523.183 276.79 522.216C276.21 521.249 275.784 520.128 275.514 518.852C275.282 517.576 275.166 516.223 275.166 514.792C275.166 514.289 275.166 513.709 275.166 513.052C275.204 512.356 275.224 511.679 275.224 511.022C275.224 510.326 275.224 509.669 275.224 509.05C275.262 508.393 275.282 507.832 275.282 507.368Z" fill="#0E5364"/>
<path d="M200.64 200.14C200.215 201.88 199.519 203.427 198.552 204.78C197.624 206.095 196.483 207.216 195.13 208.144C193.815 209.072 192.327 209.768 190.664 210.232C189.04 210.696 187.319 210.928 185.502 210.928C180.514 210.928 176.628 209.169 173.844 205.65C171.099 202.131 169.726 196.815 169.726 189.7C169.726 187.071 169.958 184.383 170.422 181.638C170.886 178.893 171.698 176.399 172.858 174.156C174.018 171.913 175.565 170.077 177.498 168.646C179.47 167.215 181.945 166.5 184.922 166.5C186.353 166.5 187.745 166.693 189.098 167.08C190.451 167.428 191.631 167.989 192.636 168.762C193.68 169.497 194.511 170.444 195.13 171.604C195.749 172.764 196.058 174.117 196.058 175.664C196.058 176.824 195.826 177.771 195.362 178.506C194.937 179.241 194.125 179.608 192.926 179.608C192.462 179.608 191.901 179.531 191.244 179.376C190.625 179.183 189.968 178.757 189.272 178.1C189.775 177.791 190.181 177.23 190.49 176.418C190.799 175.567 190.954 174.736 190.954 173.924C190.954 172.687 190.587 171.604 189.852 170.676C189.117 169.709 188.131 169.226 186.894 169.226C185.579 169.226 184.439 169.787 183.472 170.908C182.505 172.029 181.693 173.518 181.036 175.374C180.417 177.191 179.953 179.279 179.644 181.638C179.335 183.958 179.18 186.336 179.18 188.772C179.18 191.981 179.431 194.669 179.934 196.834C180.475 198.999 181.191 200.739 182.08 202.054C182.969 203.369 184.013 204.297 185.212 204.838C186.449 205.379 187.764 205.65 189.156 205.65C191.36 205.65 193.332 205.109 195.072 204.026C196.851 202.905 198.223 201.416 199.19 199.56L200.64 200.14ZM210.435 180.71C212.833 180.71 214.785 181.309 216.293 182.508C217.801 183.668 218.884 185.524 219.541 188.076C219.889 187.883 220.199 187.631 220.469 187.322C220.779 186.974 221.03 186.626 221.223 186.278C221.455 185.891 221.649 185.524 221.803 185.176C221.958 184.828 222.074 184.538 222.151 184.306H224.007C223.853 184.886 223.659 185.524 223.427 186.22C223.234 186.916 222.983 187.612 222.673 188.308C222.403 188.965 222.055 189.603 221.629 190.222C221.204 190.841 220.682 191.382 220.063 191.846C220.102 192.233 220.121 192.639 220.121 193.064C220.16 193.451 220.179 193.857 220.179 194.282C220.179 196.525 219.986 198.632 219.599 200.604C219.213 202.537 218.555 204.239 217.627 205.708C216.738 207.139 215.578 208.279 214.147 209.13C212.717 209.942 210.957 210.348 208.869 210.348C207.439 210.348 206.066 210.135 204.751 209.71C203.475 209.246 202.335 208.511 201.329 207.506C200.324 206.462 199.512 205.109 198.893 203.446C198.313 201.745 198.023 199.676 198.023 197.24C198.023 195.577 198.197 193.799 198.545 191.904C198.893 189.971 199.531 188.173 200.459 186.51C201.387 184.847 202.644 183.475 204.229 182.392C205.853 181.271 207.922 180.71 210.435 180.71ZM210.493 204.896C211.305 204.896 212.001 204.625 212.581 204.084C213.2 203.504 213.703 202.731 214.089 201.764C214.476 200.759 214.747 199.579 214.901 198.226C215.095 196.873 215.191 195.403 215.191 193.818V193.006C213.645 192.658 212.871 191.517 212.871 189.584C212.871 188.347 213.374 187.535 214.379 187.148C213.954 185.911 213.432 185.118 212.813 184.77C212.233 184.383 211.731 184.19 211.305 184.19C210.455 184.19 209.72 184.596 209.101 185.408C208.521 186.181 208.038 187.187 207.651 188.424C207.265 189.623 206.975 190.957 206.781 192.426C206.627 193.895 206.549 195.307 206.549 196.66C206.549 198.4 206.665 199.811 206.897 200.894C207.168 201.977 207.497 202.808 207.883 203.388C208.27 203.968 208.695 204.374 209.159 204.606C209.623 204.799 210.068 204.896 210.493 204.896ZM250.655 173.808C250.655 175.277 250.326 176.476 249.669 177.404C249.05 178.293 248.142 178.738 246.943 178.738C245.86 178.738 244.894 178.332 244.043 177.52C244.584 177.133 244.99 176.573 245.261 175.838C245.57 175.103 245.725 174.349 245.725 173.576C245.725 172.377 245.338 171.391 244.565 170.618C243.792 169.845 242.612 169.458 241.027 169.458C239.287 169.458 238.03 169.941 237.257 170.908C236.484 171.875 236.097 173.17 236.097 174.794C236.097 176.689 236.542 178.235 237.431 179.434C238.359 180.633 239.5 181.715 240.853 182.682C242.206 183.61 243.656 184.499 245.203 185.35C246.788 186.201 248.258 187.206 249.611 188.366C250.964 189.526 252.086 190.937 252.975 192.6C253.903 194.224 254.367 196.312 254.367 198.864C254.367 201.029 254 202.885 253.265 204.432C252.569 205.979 251.602 207.255 250.365 208.26C249.128 209.227 247.658 209.923 245.957 210.348C244.256 210.812 242.4 211.044 240.389 211.044C238.61 211.044 236.851 210.851 235.111 210.464C233.41 210.116 231.882 209.536 230.529 208.724C229.214 207.873 228.151 206.771 227.339 205.418C226.527 204.026 226.121 202.344 226.121 200.372C226.121 199.057 226.295 197.859 226.643 196.776C227.03 195.693 227.532 194.785 228.151 194.05C228.808 193.315 229.562 192.755 230.413 192.368C231.264 191.943 232.153 191.73 233.081 191.73C233.545 191.73 234.048 191.788 234.589 191.904C235.13 192.02 235.672 192.233 236.213 192.542C236.754 192.813 237.257 193.199 237.721 193.702C238.185 194.205 238.552 194.823 238.823 195.558C238.127 195.558 237.431 195.635 236.735 195.79C236.039 195.945 235.401 196.215 234.821 196.602C234.28 196.989 233.835 197.53 233.487 198.226C233.139 198.883 232.965 199.734 232.965 200.778C232.965 202.789 233.584 204.239 234.821 205.128C236.058 205.979 237.605 206.404 239.461 206.404C241.317 206.404 242.748 205.959 243.753 205.07C244.758 204.181 245.261 202.653 245.261 200.488C245.261 198.477 244.836 196.776 243.985 195.384C243.173 193.992 242.129 192.774 240.853 191.73C239.577 190.686 238.204 189.719 236.735 188.83C235.304 187.902 233.951 186.916 232.675 185.872C231.399 184.789 230.336 183.533 229.485 182.102C228.673 180.671 228.267 178.912 228.267 176.824C228.267 173.46 229.388 170.908 231.631 169.168C233.874 167.389 236.928 166.5 240.795 166.5C241.336 166.5 242.148 166.558 243.231 166.674C244.352 166.751 245.454 167.041 246.537 167.544C247.658 168.008 248.625 168.743 249.437 169.748C250.249 170.715 250.655 172.068 250.655 173.808ZM265.984 181V200.72C265.984 202.344 266.197 203.427 266.622 203.968C267.086 204.471 267.879 204.722 269 204.722C270.122 204.722 271.05 204.239 271.784 203.272C272.558 202.305 273.002 201.087 273.118 199.618H275.554C275.245 201.977 274.704 203.871 273.93 205.302C273.157 206.694 272.287 207.777 271.32 208.55C270.354 209.285 269.368 209.768 268.362 210C267.357 210.232 266.468 210.348 265.694 210.348C262.717 210.348 260.629 209.536 259.43 207.912C258.232 206.249 257.632 204.065 257.632 201.358V181H265.984ZM256.994 173.286C256.994 172.01 257.439 170.927 258.328 170.038C259.218 169.11 260.3 168.646 261.576 168.646C262.852 168.646 263.935 169.11 264.824 170.038C265.752 170.927 266.216 172.01 266.216 173.286C266.216 174.562 265.752 175.645 264.824 176.534C263.935 177.423 262.852 177.868 261.576 177.868C260.3 177.868 259.218 177.423 258.328 176.534C257.439 175.645 256.994 174.562 256.994 173.286ZM296.933 181V207.912C297.745 207.603 298.46 207.235 299.079 206.81C299.698 206.385 300.239 205.863 300.703 205.244C301.167 204.587 301.534 203.813 301.805 202.924C302.114 201.996 302.346 200.894 302.501 199.618H304.937C304.744 201.551 304.376 203.156 303.835 204.432C303.332 205.669 302.694 206.694 301.921 207.506C301.186 208.318 300.374 208.956 299.485 209.42C298.634 209.884 297.784 210.251 296.933 210.522V214.64C296.933 216.728 296.682 218.41 296.179 219.686C295.676 220.962 295.019 221.948 294.207 222.644C293.434 223.379 292.564 223.862 291.597 224.094C290.669 224.365 289.76 224.5 288.871 224.5C287.75 224.5 286.686 224.345 285.681 224.036C284.714 223.727 283.864 223.282 283.129 222.702C282.433 222.161 281.872 221.484 281.447 220.672C281.022 219.86 280.809 218.951 280.809 217.946C280.809 216.902 281.022 215.955 281.447 215.104C281.911 214.292 282.51 213.577 283.245 212.958C283.98 212.339 284.811 211.798 285.739 211.334C286.667 210.909 287.614 210.541 288.581 210.232V205.36C287.924 206.443 287.073 207.351 286.029 208.086C285.024 208.821 283.69 209.188 282.027 209.188C280.828 209.188 279.63 208.956 278.431 208.492C277.232 208.028 276.15 207.293 275.183 206.288C274.216 205.283 273.424 203.968 272.805 202.344C272.225 200.681 271.935 198.69 271.935 196.37C271.935 194.63 272.128 192.851 272.515 191.034C272.902 189.178 273.54 187.496 274.429 185.988C275.357 184.441 276.556 183.185 278.025 182.218C279.533 181.213 281.37 180.71 283.535 180.71C283.922 180.71 284.347 180.749 284.811 180.826C285.314 180.865 285.797 180.981 286.261 181.174C286.725 181.367 287.17 181.657 287.595 182.044C288.02 182.431 288.349 182.953 288.581 183.61V181H296.933ZM285.797 184.306C284.83 184.306 283.999 184.673 283.303 185.408C282.646 186.143 282.085 187.09 281.621 188.25C281.196 189.371 280.886 190.628 280.693 192.02C280.5 193.412 280.403 194.765 280.403 196.08C280.403 197.897 280.558 199.309 280.867 200.314C281.176 201.319 281.544 202.073 281.969 202.576C282.394 203.04 282.82 203.33 283.245 203.446C283.67 203.523 283.999 203.562 284.231 203.562C285.468 203.562 286.454 203.156 287.189 202.344C287.962 201.532 288.426 200.507 288.581 199.27V186.336C288.465 185.949 288.175 185.524 287.711 185.06C287.286 184.557 286.648 184.306 285.797 184.306ZM283.883 217.482C283.883 218.217 284.134 218.816 284.637 219.28C285.14 219.744 285.662 219.976 286.203 219.976C286.899 219.976 287.46 219.551 287.885 218.7C288.349 217.849 288.581 216.554 288.581 214.814V213.132C287.228 213.673 286.106 214.292 285.217 214.988C284.328 215.723 283.883 216.554 283.883 217.482ZM317.282 192.368C317.282 190.087 317.011 188.463 316.47 187.496C315.967 186.529 315.213 186.046 314.208 186.046C313.164 186.046 312.371 186.568 311.83 187.612C311.288 188.656 310.96 189.913 310.844 191.382V210H302.492V181H310.844V184.016C311.772 182.624 312.796 181.735 313.918 181.348C315.039 180.961 316.044 180.768 316.934 180.768C318.055 180.768 319.118 180.942 320.124 181.29C321.129 181.638 321.999 182.218 322.734 183.03C323.507 183.842 324.106 184.925 324.532 186.278C324.957 187.593 325.17 189.236 325.17 191.208C325.17 191.865 325.15 192.581 325.112 193.354C325.112 194.089 325.092 194.843 325.054 195.616C325.015 196.389 324.976 197.143 324.938 197.878C324.938 198.613 324.938 199.251 324.938 199.792C324.938 201.416 325.131 202.653 325.518 203.504C325.943 204.316 326.774 204.722 328.012 204.722C328.94 204.722 329.558 204.606 329.868 204.374C329.868 206.462 329.423 207.989 328.534 208.956C327.683 209.884 326.426 210.348 324.764 210.348C323.333 210.348 322.134 210.077 321.168 209.536C320.201 208.956 319.408 208.183 318.79 207.216C318.21 206.249 317.784 205.128 317.514 203.852C317.282 202.576 317.166 201.223 317.166 199.792C317.166 199.289 317.166 198.709 317.166 198.052C317.204 197.356 317.224 196.679 317.224 196.022C317.224 195.326 317.224 194.669 317.224 194.05C317.262 193.393 317.282 192.832 317.282 192.368Z" fill="white"/>
<path d="M136.748 469.644C106.871 479.736 101.956 435.591 103.233 412.257C102.761 395.366 113.537 386.81 118.985 384.643C108.221 373.886 89.0426 346.527 98.4348 323.147C99.1012 321.488 100.102 319.996 101.397 318.662C108.355 307.155 117.451 285.37 113.81 263.527C108.57 232.087 154.51 274.37 136.748 309.437C174.909 309.475 227.722 325.71 231.942 344.503C234.152 354.347 221.166 360.931 203.654 364.65C215.975 369.381 225.683 374.902 228.62 380.105C231.363 384.962 226.35 390.862 217.414 396.467C219.361 396.512 221.33 396.56 223.321 396.61C284.268 398.134 174.093 457.028 136.748 469.644Z" fill="#1697B7"/>
<path d="M98.4348 323.147C89.0426 346.527 108.221 373.886 118.985 384.643C113.537 386.81 102.761 395.366 103.233 412.257C101.956 435.591 106.871 479.736 136.748 469.644C174.093 457.028 284.268 398.134 223.321 396.61C162.374 395.086 121.664 395.369 136.146 411.503C150.628 427.636 238.342 397.32 228.62 380.105C218.899 362.889 135.045 342.18 127.625 358.166C120.204 374.152 238.264 372.665 231.942 344.503C227.722 325.71 174.909 309.474 136.748 309.437M98.4348 323.147C105.307 313.754 118.002 288.679 113.81 263.527C108.57 232.087 154.51 274.37 136.748 309.437M98.4348 323.147C102.341 313.425 117.723 309.418 136.748 309.437" stroke="white" stroke-width="4"/>
<path d="M95.3548 219.234C85.3643 222.609 83.7208 207.847 84.1478 200.044C83.9898 194.396 87.5934 191.535 89.415 190.81C85.8158 187.213 79.4026 178.064 82.5433 170.246C82.7661 169.692 83.1006 169.193 83.5339 168.747C85.8603 164.899 88.902 157.614 87.6846 150.31C85.9324 139.797 101.295 153.936 95.3548 165.662C108.116 165.674 125.776 171.103 127.187 177.388C127.926 180.679 123.584 182.881 117.728 184.125C121.848 185.707 125.094 187.553 126.076 189.293C126.994 190.917 125.317 192.89 122.329 194.764C122.98 194.779 123.639 194.795 124.304 194.812C144.685 195.322 107.843 215.015 95.3548 219.234Z" fill="#1697B7"/>
<path d="M82.5433 170.246C79.4026 178.064 85.8158 187.213 89.415 190.81C87.5934 191.535 83.9898 194.396 84.1478 200.044C83.7208 207.847 85.3643 222.609 95.3548 219.234C107.843 215.015 144.685 195.322 124.304 194.812C103.924 194.302 90.3108 194.397 95.1536 199.792C99.9964 205.187 129.327 195.05 126.076 189.293C122.826 183.536 94.7855 176.611 92.3042 181.957C89.8229 187.302 129.301 186.805 127.187 177.388C125.776 171.103 108.116 165.674 95.3548 165.662M82.5433 170.246C84.8411 167.105 89.0864 158.721 87.6846 150.31C85.9324 139.797 101.295 153.936 95.3548 165.662M82.5433 170.246C83.8493 166.995 88.9932 165.656 95.3548 165.662" stroke="white" stroke-width="2"/>
<path d="M277.497 469.744C307.373 479.837 312.288 435.691 311.011 412.357C311.484 395.466 300.707 386.91 295.259 384.743C306.023 373.986 325.202 346.627 315.809 323.247C315.143 321.589 314.143 320.096 312.847 318.762C305.89 307.255 296.794 285.47 300.434 263.627C305.674 232.187 259.734 274.471 277.497 309.537C239.335 309.575 186.522 325.81 182.303 344.603C180.093 354.447 193.079 361.031 210.591 364.75C198.269 369.481 188.562 375.003 185.624 380.205C182.881 385.062 187.894 390.962 196.83 396.567C194.883 396.613 192.914 396.66 190.923 396.71C129.976 398.234 240.151 457.128 277.497 469.744Z" fill="#E8804C"/>
<path d="M315.809 323.247C325.202 346.627 306.023 373.986 295.259 384.743C300.707 386.91 311.484 395.466 311.011 412.357C312.288 435.691 307.373 479.837 277.497 469.744C240.151 457.128 129.976 398.234 190.923 396.71C251.871 395.186 292.581 395.469 278.098 411.603C263.616 427.736 175.902 397.421 185.624 380.205C195.346 362.989 279.199 342.28 286.619 358.266C294.04 374.253 175.98 372.765 182.303 344.603C186.522 325.81 239.335 309.575 277.497 309.537M315.809 323.247C308.938 313.854 296.242 288.779 300.434 263.627C305.674 232.187 259.734 274.471 277.497 309.537M315.809 323.247C311.904 313.525 296.521 309.518 277.497 309.537" stroke="white" stroke-width="4"/>
<path d="M200.64 79.14C200.215 80.88 199.519 82.4267 198.552 83.78C197.624 85.0947 196.483 86.216 195.13 87.144C193.815 88.072 192.327 88.768 190.664 89.232C189.04 89.696 187.319 89.928 185.502 89.928C180.514 89.928 176.628 88.1687 173.844 84.65C171.099 81.1313 169.726 75.8147 169.726 68.7C169.726 66.0707 169.958 63.3833 170.422 60.638C170.886 57.8927 171.698 55.3987 172.858 53.156C174.018 50.9133 175.565 49.0767 177.498 47.646C179.47 46.2153 181.945 45.5 184.922 45.5C186.353 45.5 187.745 45.6933 189.098 46.08C190.451 46.428 191.631 46.9887 192.636 47.762C193.68 48.4967 194.511 49.444 195.13 50.604C195.749 51.764 196.058 53.1173 196.058 54.664C196.058 55.824 195.826 56.7713 195.362 57.506C194.937 58.2407 194.125 58.608 192.926 58.608C192.462 58.608 191.901 58.5307 191.244 58.376C190.625 58.1827 189.968 57.7573 189.272 57.1C189.775 56.7907 190.181 56.23 190.49 55.418C190.799 54.5673 190.954 53.736 190.954 52.924C190.954 51.6867 190.587 50.604 189.852 49.676C189.117 48.7093 188.131 48.226 186.894 48.226C185.579 48.226 184.439 48.7867 183.472 49.908C182.505 51.0293 181.693 52.518 181.036 54.374C180.417 56.1913 179.953 58.2793 179.644 60.638C179.335 62.958 179.18 65.336 179.18 67.772C179.18 70.9813 179.431 73.6687 179.934 75.834C180.475 77.9993 181.191 79.7393 182.08 81.054C182.969 82.3687 184.013 83.2967 185.212 83.838C186.449 84.3793 187.764 84.65 189.156 84.65C191.36 84.65 193.332 84.1087 195.072 83.026C196.851 81.9047 198.223 80.416 199.19 78.56L200.64 79.14ZM210.435 59.71C212.833 59.71 214.785 60.3093 216.293 61.508C217.801 62.668 218.884 64.524 219.541 67.076C219.889 66.8827 220.199 66.6313 220.469 66.322C220.779 65.974 221.03 65.626 221.223 65.278C221.455 64.8913 221.649 64.524 221.803 64.176C221.958 63.828 222.074 63.538 222.151 63.306H224.007C223.853 63.886 223.659 64.524 223.427 65.22C223.234 65.916 222.983 66.612 222.673 67.308C222.403 67.9653 222.055 68.6033 221.629 69.222C221.204 69.8407 220.682 70.382 220.063 70.846C220.102 71.2327 220.121 71.6387 220.121 72.064C220.16 72.4507 220.179 72.8567 220.179 73.282C220.179 75.5247 219.986 77.632 219.599 79.604C219.213 81.5373 218.555 83.2387 217.627 84.708C216.738 86.1387 215.578 87.2793 214.147 88.13C212.717 88.942 210.957 89.348 208.869 89.348C207.439 89.348 206.066 89.1353 204.751 88.71C203.475 88.246 202.335 87.5113 201.329 86.506C200.324 85.462 199.512 84.1087 198.893 82.446C198.313 80.7447 198.023 78.676 198.023 76.24C198.023 74.5773 198.197 72.7987 198.545 70.904C198.893 68.9707 199.531 67.1727 200.459 65.51C201.387 63.8473 202.644 62.4747 204.229 61.392C205.853 60.2707 207.922 59.71 210.435 59.71ZM210.493 83.896C211.305 83.896 212.001 83.6253 212.581 83.084C213.2 82.504 213.703 81.7307 214.089 80.764C214.476 79.7587 214.747 78.5793 214.901 77.226C215.095 75.8727 215.191 74.4033 215.191 72.818V72.006C213.645 71.658 212.871 70.5173 212.871 68.584C212.871 67.3467 213.374 66.5347 214.379 66.148C213.954 64.9107 213.432 64.118 212.813 63.77C212.233 63.3833 211.731 63.19 211.305 63.19C210.455 63.19 209.72 63.596 209.101 64.408C208.521 65.1813 208.038 66.1867 207.651 67.424C207.265 68.6227 206.975 69.9567 206.781 71.426C206.627 72.8953 206.549 74.3067 206.549 75.66C206.549 77.4 206.665 78.8113 206.897 79.894C207.168 80.9767 207.497 81.808 207.883 82.388C208.27 82.968 208.695 83.374 209.159 83.606C209.623 83.7993 210.068 83.896 210.493 83.896ZM250.655 52.808C250.655 54.2773 250.326 55.476 249.669 56.404C249.05 57.2933 248.142 57.738 246.943 57.738C245.86 57.738 244.894 57.332 244.043 56.52C244.584 56.1333 244.99 55.5727 245.261 54.838C245.57 54.1033 245.725 53.3493 245.725 52.576C245.725 51.3773 245.338 50.3913 244.565 49.618C243.792 48.8447 242.612 48.458 241.027 48.458C239.287 48.458 238.03 48.9413 237.257 49.908C236.484 50.8747 236.097 52.17 236.097 53.794C236.097 55.6887 236.542 57.2353 237.431 58.434C238.359 59.6327 239.5 60.7153 240.853 61.682C242.206 62.61 243.656 63.4993 245.203 64.35C246.788 65.2007 248.258 66.206 249.611 67.366C250.964 68.526 252.086 69.9373 252.975 71.6C253.903 73.224 254.367 75.312 254.367 77.864C254.367 80.0293 254 81.8853 253.265 83.432C252.569 84.9787 251.602 86.2547 250.365 87.26C249.128 88.2267 247.658 88.9227 245.957 89.348C244.256 89.812 242.4 90.044 240.389 90.044C238.61 90.044 236.851 89.8507 235.111 89.464C233.41 89.116 231.882 88.536 230.529 87.724C229.214 86.8733 228.151 85.7713 227.339 84.418C226.527 83.026 226.121 81.344 226.121 79.372C226.121 78.0573 226.295 76.8587 226.643 75.776C227.03 74.6933 227.532 73.7847 228.151 73.05C228.808 72.3153 229.562 71.7547 230.413 71.368C231.264 70.9427 232.153 70.73 233.081 70.73C233.545 70.73 234.048 70.788 234.589 70.904C235.13 71.02 235.672 71.2327 236.213 71.542C236.754 71.8127 237.257 72.1993 237.721 72.702C238.185 73.2047 238.552 73.8233 238.823 74.558C238.127 74.558 237.431 74.6353 236.735 74.79C236.039 74.9447 235.401 75.2153 234.821 75.602C234.28 75.9887 233.835 76.53 233.487 77.226C233.139 77.8833 232.965 78.734 232.965 79.778C232.965 81.7887 233.584 83.2387 234.821 84.128C236.058 84.9787 237.605 85.404 239.461 85.404C241.317 85.404 242.748 84.9593 243.753 84.07C244.758 83.1807 245.261 81.6533 245.261 79.488C245.261 77.4773 244.836 75.776 243.985 74.384C243.173 72.992 242.129 71.774 240.853 70.73C239.577 69.686 238.204 68.7193 236.735 67.83C235.304 66.902 233.951 65.916 232.675 64.872C231.399 63.7893 230.336 62.5327 229.485 61.102C228.673 59.6713 228.267 57.912 228.267 55.824C228.267 52.46 229.388 49.908 231.631 48.168C233.874 46.3893 236.928 45.5 240.795 45.5C241.336 45.5 242.148 45.558 243.231 45.674C244.352 45.7513 245.454 46.0413 246.537 46.544C247.658 47.008 248.625 47.7427 249.437 48.748C250.249 49.7147 250.655 51.068 250.655 52.808ZM265.984 60V79.72C265.984 81.344 266.197 82.4267 266.622 82.968C267.086 83.4707 267.879 83.722 269 83.722C270.122 83.722 271.05 83.2387 271.784 82.272C272.558 81.3053 273.002 80.0873 273.118 78.618H275.554C275.245 80.9767 274.704 82.8713 273.93 84.302C273.157 85.694 272.287 86.7767 271.32 87.55C270.354 88.2847 269.368 88.768 268.362 89C267.357 89.232 266.468 89.348 265.694 89.348C262.717 89.348 260.629 88.536 259.43 86.912C258.232 85.2493 257.632 83.0647 257.632 80.358V60H265.984ZM256.994 52.286C256.994 51.01 257.439 49.9273 258.328 49.038C259.218 48.11 260.3 47.646 261.576 47.646C262.852 47.646 263.935 48.11 264.824 49.038C265.752 49.9273 266.216 51.01 266.216 52.286C266.216 53.562 265.752 54.6447 264.824 55.534C263.935 56.4233 262.852 56.868 261.576 56.868C260.3 56.868 259.218 56.4233 258.328 55.534C257.439 54.6447 256.994 53.562 256.994 52.286ZM296.933 60V86.912C297.745 86.6027 298.46 86.2353 299.079 85.81C299.698 85.3847 300.239 84.8627 300.703 84.244C301.167 83.5867 301.534 82.8133 301.805 81.924C302.114 80.996 302.346 79.894 302.501 78.618H304.937C304.744 80.5513 304.376 82.156 303.835 83.432C303.332 84.6693 302.694 85.694 301.921 86.506C301.186 87.318 300.374 87.956 299.485 88.42C298.634 88.884 297.784 89.2513 296.933 89.522V93.64C296.933 95.728 296.682 97.41 296.179 98.686C295.676 99.962 295.019 100.948 294.207 101.644C293.434 102.379 292.564 102.862 291.597 103.094C290.669 103.365 289.76 103.5 288.871 103.5C287.75 103.5 286.686 103.345 285.681 103.036C284.714 102.727 283.864 102.282 283.129 101.702C282.433 101.161 281.872 100.484 281.447 99.672C281.022 98.86 280.809 97.9513 280.809 96.946C280.809 95.902 281.022 94.9547 281.447 94.104C281.911 93.292 282.51 92.5767 283.245 91.958C283.98 91.3393 284.811 90.798 285.739 90.334C286.667 89.9087 287.614 89.5413 288.581 89.232V84.36C287.924 85.4427 287.073 86.3513 286.029 87.086C285.024 87.8207 283.69 88.188 282.027 88.188C280.828 88.188 279.63 87.956 278.431 87.492C277.232 87.028 276.15 86.2933 275.183 85.288C274.216 84.2827 273.424 82.968 272.805 81.344C272.225 79.6813 271.935 77.69 271.935 75.37C271.935 73.63 272.128 71.8513 272.515 70.034C272.902 68.178 273.54 66.496 274.429 64.988C275.357 63.4413 276.556 62.1847 278.025 61.218C279.533 60.2127 281.37 59.71 283.535 59.71C283.922 59.71 284.347 59.7487 284.811 59.826C285.314 59.8647 285.797 59.9807 286.261 60.174C286.725 60.3673 287.17 60.6573 287.595 61.044C288.02 61.4307 288.349 61.9527 288.581 62.61V60H296.933ZM285.797 63.306C284.83 63.306 283.999 63.6733 283.303 64.408C282.646 65.1427 282.085 66.09 281.621 67.25C281.196 68.3713 280.886 69.628 280.693 71.02C280.5 72.412 280.403 73.7653 280.403 75.08C280.403 76.8973 280.558 78.3087 280.867 79.314C281.176 80.3193 281.544 81.0733 281.969 81.576C282.394 82.04 282.82 82.33 283.245 82.446C283.67 82.5233 283.999 82.562 284.231 82.562C285.468 82.562 286.454 82.156 287.189 81.344C287.962 80.532 288.426 79.5073 288.581 78.27V65.336C288.465 64.9493 288.175 64.524 287.711 64.06C287.286 63.5573 286.648 63.306 285.797 63.306ZM283.883 96.482C283.883 97.2167 284.134 97.816 284.637 98.28C285.14 98.744 285.662 98.976 286.203 98.976C286.899 98.976 287.46 98.5507 287.885 97.7C288.349 96.8493 288.581 95.554 288.581 93.814V92.132C287.228 92.6733 286.106 93.292 285.217 93.988C284.328 94.7227 283.883 95.554 283.883 96.482ZM317.282 71.368C317.282 69.0867 317.011 67.4627 316.47 66.496C315.967 65.5293 315.213 65.046 314.208 65.046C313.164 65.046 312.371 65.568 311.83 66.612C311.288 67.656 310.96 68.9127 310.844 70.382V89H302.492V60H310.844V63.016C311.772 61.624 312.796 60.7347 313.918 60.348C315.039 59.9613 316.044 59.768 316.934 59.768C318.055 59.768 319.118 59.942 320.124 60.29C321.129 60.638 321.999 61.218 322.734 62.03C323.507 62.842 324.106 63.9247 324.532 65.278C324.957 66.5927 325.17 68.236 325.17 70.208C325.17 70.8653 325.15 71.5807 325.112 72.354C325.112 73.0887 325.092 73.8427 325.054 74.616C325.015 75.3893 324.976 76.1433 324.938 76.878C324.938 77.6127 324.938 78.2507 324.938 78.792C324.938 80.416 325.131 81.6533 325.518 82.504C325.943 83.316 326.774 83.722 328.012 83.722C328.94 83.722 329.558 83.606 329.868 83.374C329.868 85.462 329.423 86.9893 328.534 87.956C327.683 88.884 326.426 89.348 324.764 89.348C323.333 89.348 322.134 89.0773 321.168 88.536C320.201 87.956 319.408 87.1827 318.79 86.216C318.21 85.2493 317.784 84.128 317.514 82.852C317.282 81.576 317.166 80.2227 317.166 78.792C317.166 78.2893 317.166 77.7093 317.166 77.052C317.204 76.356 317.224 75.6793 317.224 75.022C317.224 74.326 317.224 73.6687 317.224 73.05C317.262 72.3927 317.282 71.832 317.282 71.368Z" fill="#0E5364"/>
<path d="M95.355 99.2339C85.3646 102.609 83.721 87.8469 84.1481 80.0441C83.99 74.3961 87.5937 71.535 89.4153 70.8104C85.816 67.2133 79.4028 58.0645 82.5435 50.2465C82.7663 49.6918 83.1009 49.1928 83.5341 48.7465C85.8606 44.8989 88.9023 37.6141 87.6849 30.3099C85.9327 19.7965 101.295 33.9359 95.355 45.6619C108.116 45.6744 125.776 51.1035 127.187 57.3878C127.926 60.6794 123.584 62.8812 117.728 64.1247C121.848 65.7068 125.094 67.5531 126.077 69.2927C126.994 70.9169 125.318 72.8898 122.329 74.7641C122.98 74.7793 123.639 74.7953 124.305 74.812C144.685 75.3216 107.843 95.0152 95.355 99.2339Z" fill="#1697B7"/>
<path d="M82.5435 50.2465C79.4028 58.0645 85.816 67.2133 89.4153 70.8104C87.5937 71.535 83.99 74.3961 84.1481 80.0441C83.721 87.8469 85.3646 102.609 95.355 99.2339C107.843 95.0152 144.685 75.3216 124.305 74.812C103.924 74.3023 90.3111 74.3971 95.1539 79.792C99.9967 85.1869 129.328 75.0495 126.077 69.2927C122.826 63.5359 94.7857 56.611 92.3044 61.9567C89.8231 67.3023 129.301 66.805 127.187 57.3878C125.776 51.1035 108.116 45.6744 95.355 45.6619M82.5435 50.2465C84.8414 47.1054 89.0867 38.7205 87.6849 30.3099C85.9327 19.7965 101.295 33.9359 95.355 45.6619M82.5435 50.2465C83.8495 46.9954 88.9935 45.6556 95.355 45.6619" stroke="white" stroke-width="2"/>
<path d="M142.164 98.8072C152.154 102.182 153.798 87.4202 153.37 79.6173C153.529 73.9693 149.925 71.1082 148.103 70.3837C151.703 66.7865 158.116 57.6378 154.975 49.8198C154.752 49.2651 154.418 48.766 153.984 48.3198C151.658 44.4722 148.616 37.1874 149.834 29.8831C151.586 19.3698 136.224 33.5092 142.164 45.2351C129.403 45.2477 111.742 50.6768 110.331 56.9611C109.592 60.2527 113.935 62.4545 119.791 63.698C115.67 65.2801 112.424 67.1264 111.442 68.866C110.525 70.4902 112.201 72.4631 115.189 74.3374C114.538 74.3526 113.88 74.3686 113.214 74.3853C92.8337 74.8949 129.676 94.5885 142.164 98.8072Z" fill="#E8804C"/>
<path d="M154.975 49.8198C158.116 57.6378 151.703 66.7865 148.103 70.3837C149.925 71.1082 153.529 73.9693 153.37 79.6173C153.798 87.4202 152.154 102.182 142.164 98.8072C129.676 94.5885 92.8337 74.8949 113.214 74.3853C133.594 73.8756 147.207 73.9704 142.365 79.3653C137.522 84.7601 108.191 74.6228 111.442 68.866C114.693 63.1092 142.733 56.1843 145.214 61.5299C147.695 66.8756 108.217 66.3783 110.331 56.9611C111.742 50.6768 129.403 45.2477 142.164 45.2351M154.975 49.8198C152.677 46.6787 148.432 38.2938 149.834 29.8831C151.586 19.3698 136.224 33.5092 142.164 45.2351M154.975 49.8198C153.669 46.5687 148.525 45.2289 142.164 45.2351" stroke="white" stroke-width="2"/>
<path d="M142.164 218.807C152.154 222.182 153.798 207.42 153.37 199.617C153.529 193.969 149.925 191.108 148.103 190.384C151.703 186.787 158.116 177.638 154.975 169.82C154.752 169.265 154.418 168.766 153.984 168.32C151.658 164.472 148.616 157.187 149.834 149.883C151.586 139.37 136.224 153.509 142.164 165.235C129.403 165.248 111.742 170.677 110.331 176.961C109.592 180.253 113.935 182.454 119.791 183.698C115.67 185.28 112.424 187.126 111.442 188.866C110.525 190.49 112.201 192.463 115.189 194.337C114.538 194.353 113.88 194.369 113.214 194.385C92.8337 194.895 129.676 214.588 142.164 218.807Z" fill="#E8804C"/>
<path d="M154.975 169.82C158.116 177.638 151.703 186.787 148.103 190.384C149.925 191.108 153.529 193.969 153.37 199.617C153.798 207.42 152.154 222.182 142.164 218.807C129.676 214.588 92.8337 194.895 113.214 194.385C133.594 193.876 147.207 193.97 142.365 199.365C137.522 204.76 108.191 194.623 111.442 188.866C114.693 183.109 142.733 176.184 145.214 181.53C147.695 186.876 108.217 186.378 110.331 176.961C111.742 170.677 129.403 165.248 142.164 165.235M154.975 169.82C152.677 166.679 148.432 158.294 149.834 149.883C151.586 139.37 136.224 153.509 142.164 165.235M154.975 169.82C153.669 166.569 148.525 165.229 142.164 165.235" stroke="white" stroke-width="2"/>
<path d="M199.409 598.227L198.205 598.568C198.129 598.367 198.017 598.172 197.869 597.983C197.725 597.79 197.528 597.631 197.278 597.506C197.028 597.381 196.708 597.318 196.318 597.318C195.784 597.318 195.339 597.441 194.983 597.688C194.631 597.93 194.455 598.239 194.455 598.614C194.455 598.947 194.576 599.21 194.818 599.403C195.061 599.597 195.439 599.758 195.955 599.886L197.25 600.205C198.03 600.394 198.612 600.684 198.994 601.074C199.377 601.46 199.568 601.958 199.568 602.568C199.568 603.068 199.424 603.515 199.136 603.909C198.852 604.303 198.455 604.614 197.943 604.841C197.432 605.068 196.837 605.182 196.159 605.182C195.269 605.182 194.532 604.989 193.949 604.602C193.366 604.216 192.996 603.652 192.841 602.909L194.114 602.591C194.235 603.061 194.464 603.413 194.801 603.648C195.142 603.883 195.587 604 196.136 604C196.761 604 197.258 603.867 197.625 603.602C197.996 603.333 198.182 603.011 198.182 602.636C198.182 602.333 198.076 602.08 197.864 601.875C197.652 601.667 197.326 601.511 196.886 601.409L195.432 601.068C194.633 600.879 194.045 600.585 193.67 600.188C193.299 599.786 193.114 599.284 193.114 598.682C193.114 598.189 193.252 597.754 193.528 597.375C193.809 596.996 194.189 596.699 194.67 596.483C195.155 596.267 195.705 596.159 196.318 596.159C197.182 596.159 197.86 596.348 198.352 596.727C198.848 597.106 199.201 597.606 199.409 598.227ZM202.928 593.364V605H201.587V593.364H202.928ZM208.929 605.182C208.141 605.182 207.45 604.994 206.855 604.619C206.264 604.244 205.802 603.72 205.469 603.045C205.139 602.371 204.974 601.583 204.974 600.682C204.974 599.773 205.139 598.979 205.469 598.301C205.802 597.623 206.264 597.097 206.855 596.722C207.45 596.347 208.141 596.159 208.929 596.159C209.717 596.159 210.406 596.347 210.997 596.722C211.592 597.097 212.054 597.623 212.384 598.301C212.717 598.979 212.884 599.773 212.884 600.682C212.884 601.583 212.717 602.371 212.384 603.045C212.054 603.72 211.592 604.244 210.997 604.619C210.406 604.994 209.717 605.182 208.929 605.182ZM208.929 603.977C209.527 603.977 210.02 603.824 210.406 603.517C210.793 603.21 211.079 602.807 211.264 602.307C211.45 601.807 211.543 601.265 211.543 600.682C211.543 600.098 211.45 599.555 211.264 599.051C211.079 598.547 210.793 598.14 210.406 597.83C210.02 597.519 209.527 597.364 208.929 597.364C208.33 597.364 207.838 597.519 207.452 597.83C207.065 598.14 206.779 598.547 206.594 599.051C206.408 599.555 206.315 600.098 206.315 600.682C206.315 601.265 206.408 601.807 206.594 602.307C206.779 602.807 207.065 603.21 207.452 603.517C207.838 603.824 208.33 603.977 208.929 603.977ZM216.611 605L213.952 596.273H215.361L217.247 602.955H217.338L219.202 596.273H220.634L222.474 602.932H222.565L224.452 596.273H225.861L223.202 605H221.884L219.974 598.295H219.838L217.929 605H216.611ZM232.134 605V596.273H233.429V597.636H233.543C233.724 597.17 234.018 596.809 234.423 596.551C234.829 596.29 235.315 596.159 235.884 596.159C236.459 596.159 236.938 596.29 237.321 596.551C237.707 596.809 238.009 597.17 238.224 597.636H238.315C238.539 597.186 238.874 596.828 239.321 596.562C239.768 596.294 240.304 596.159 240.929 596.159C241.709 596.159 242.348 596.403 242.844 596.892C243.34 597.377 243.588 598.133 243.588 599.159V605H242.247V599.159C242.247 598.515 242.071 598.055 241.719 597.778C241.366 597.502 240.952 597.364 240.474 597.364C239.861 597.364 239.385 597.549 239.048 597.92C238.711 598.288 238.543 598.754 238.543 599.318V605H237.179V599.023C237.179 598.527 237.018 598.127 236.696 597.824C236.374 597.517 235.959 597.364 235.452 597.364C235.103 597.364 234.777 597.456 234.474 597.642C234.175 597.828 233.933 598.085 233.747 598.415C233.565 598.741 233.474 599.117 233.474 599.545V605H232.134ZM249.585 605.182C248.797 605.182 248.106 604.994 247.511 604.619C246.92 604.244 246.458 603.72 246.125 603.045C245.795 602.371 245.631 601.583 245.631 600.682C245.631 599.773 245.795 598.979 246.125 598.301C246.458 597.623 246.92 597.097 247.511 596.722C248.106 596.347 248.797 596.159 249.585 596.159C250.373 596.159 251.063 596.347 251.653 596.722C252.248 597.097 252.71 597.623 253.04 598.301C253.373 598.979 253.54 599.773 253.54 600.682C253.54 601.583 253.373 602.371 253.04 603.045C252.71 603.72 252.248 604.244 251.653 604.619C251.063 604.994 250.373 605.182 249.585 605.182ZM249.585 603.977C250.184 603.977 250.676 603.824 251.062 603.517C251.449 603.21 251.735 602.807 251.92 602.307C252.106 601.807 252.199 601.265 252.199 600.682C252.199 600.098 252.106 599.555 251.92 599.051C251.735 598.547 251.449 598.14 251.062 597.83C250.676 597.519 250.184 597.364 249.585 597.364C248.987 597.364 248.494 597.519 248.108 597.83C247.722 598.14 247.436 598.547 247.25 599.051C247.064 599.555 246.972 600.098 246.972 600.682C246.972 601.265 247.064 601.807 247.25 602.307C247.436 602.807 247.722 603.21 248.108 603.517C248.494 603.824 248.987 603.977 249.585 603.977ZM258.882 605.182C258.155 605.182 257.513 604.998 256.956 604.631C256.399 604.259 255.964 603.737 255.649 603.062C255.335 602.384 255.178 601.583 255.178 600.659C255.178 599.742 255.335 598.947 255.649 598.273C255.964 597.598 256.401 597.078 256.962 596.71C257.522 596.343 258.17 596.159 258.905 596.159C259.473 596.159 259.922 596.254 260.251 596.443C260.585 596.629 260.839 596.841 261.013 597.08C261.191 597.314 261.329 597.508 261.428 597.659H261.541V593.364H262.882V605H261.587V603.659H261.428C261.329 603.818 261.189 604.019 261.007 604.261C260.825 604.5 260.566 604.714 260.229 604.903C259.892 605.089 259.443 605.182 258.882 605.182ZM259.064 603.977C259.602 603.977 260.056 603.837 260.428 603.557C260.799 603.273 261.081 602.881 261.274 602.381C261.467 601.877 261.564 601.295 261.564 600.636C261.564 599.985 261.469 599.415 261.28 598.926C261.09 598.434 260.81 598.051 260.439 597.778C260.068 597.502 259.609 597.364 259.064 597.364C258.496 597.364 258.022 597.509 257.643 597.801C257.268 598.089 256.986 598.481 256.797 598.977C256.611 599.47 256.518 600.023 256.518 600.636C256.518 601.258 256.613 601.822 256.803 602.33C256.996 602.833 257.28 603.235 257.655 603.534C258.034 603.83 258.503 603.977 259.064 603.977ZM269.183 605.182C268.342 605.182 267.617 604.996 267.007 604.625C266.401 604.25 265.933 603.727 265.604 603.057C265.278 602.383 265.115 601.598 265.115 600.705C265.115 599.811 265.278 599.023 265.604 598.341C265.933 597.655 266.392 597.121 266.979 596.739C267.57 596.352 268.259 596.159 269.047 596.159C269.501 596.159 269.95 596.235 270.393 596.386C270.837 596.538 271.24 596.784 271.604 597.125C271.967 597.462 272.257 597.909 272.473 598.466C272.689 599.023 272.797 599.708 272.797 600.523V601.091H266.07V599.932H271.433C271.433 599.439 271.335 599 271.138 598.614C270.945 598.227 270.668 597.922 270.308 597.699C269.952 597.475 269.532 597.364 269.047 597.364C268.513 597.364 268.051 597.496 267.661 597.761C267.274 598.023 266.977 598.364 266.768 598.784C266.56 599.205 266.456 599.655 266.456 600.136V600.909C266.456 601.568 266.57 602.127 266.797 602.585C267.028 603.04 267.348 603.386 267.757 603.625C268.166 603.86 268.642 603.977 269.183 603.977C269.536 603.977 269.854 603.928 270.138 603.83C270.426 603.727 270.674 603.576 270.882 603.375C271.09 603.17 271.251 602.917 271.365 602.614L272.661 602.977C272.524 603.417 272.295 603.803 271.973 604.136C271.651 604.466 271.253 604.723 270.78 604.909C270.306 605.091 269.774 605.182 269.183 605.182Z" fill="black"/>
<path d="M193.227 666V657.273H194.523V658.636H194.636C194.818 658.17 195.112 657.809 195.517 657.551C195.922 657.29 196.409 657.159 196.977 657.159C197.553 657.159 198.032 657.29 198.415 657.551C198.801 657.809 199.102 658.17 199.318 658.636H199.409C199.633 658.186 199.968 657.828 200.415 657.562C200.862 657.294 201.398 657.159 202.023 657.159C202.803 657.159 203.441 657.403 203.938 657.892C204.434 658.377 204.682 659.133 204.682 660.159V666H203.341V660.159C203.341 659.515 203.165 659.055 202.812 658.778C202.46 658.502 202.045 658.364 201.568 658.364C200.955 658.364 200.479 658.549 200.142 658.92C199.805 659.288 199.636 659.754 199.636 660.318V666H198.273V660.023C198.273 659.527 198.112 659.127 197.79 658.824C197.468 658.517 197.053 658.364 196.545 658.364C196.197 658.364 195.871 658.456 195.568 658.642C195.269 658.828 195.027 659.085 194.841 659.415C194.659 659.741 194.568 660.117 194.568 660.545V666H193.227ZM207.134 666V657.273H208.474V666H207.134ZM207.815 655.818C207.554 655.818 207.329 655.729 207.139 655.551C206.954 655.373 206.861 655.159 206.861 654.909C206.861 654.659 206.954 654.445 207.139 654.267C207.329 654.089 207.554 654 207.815 654C208.077 654 208.3 654.089 208.486 654.267C208.675 654.445 208.77 654.659 208.77 654.909C208.77 655.159 208.675 655.373 208.486 655.551C208.3 655.729 208.077 655.818 207.815 655.818ZM210.93 666V657.273H212.226V658.591H212.317C212.476 658.159 212.764 657.809 213.18 657.54C213.597 657.271 214.067 657.136 214.589 657.136C214.688 657.136 214.811 657.138 214.959 657.142C215.107 657.146 215.218 657.152 215.294 657.159V658.523C215.249 658.511 215.144 658.494 214.982 658.472C214.822 658.445 214.654 658.432 214.476 658.432C214.052 658.432 213.673 658.521 213.339 658.699C213.01 658.873 212.749 659.116 212.555 659.426C212.366 659.733 212.271 660.083 212.271 660.477V666H210.93ZM216.884 666V657.273H218.179V658.591H218.27C218.429 658.159 218.717 657.809 219.134 657.54C219.55 657.271 220.02 657.136 220.543 657.136C220.641 657.136 220.764 657.138 220.912 657.142C221.06 657.146 221.171 657.152 221.247 657.159V658.523C221.202 658.511 221.098 658.494 220.935 658.472C220.776 658.445 220.607 658.432 220.429 658.432C220.005 658.432 219.626 658.521 219.293 658.699C218.963 658.873 218.702 659.116 218.509 659.426C218.319 659.733 218.224 660.083 218.224 660.477V666H216.884ZM226.116 666.182C225.329 666.182 224.637 665.994 224.043 665.619C223.452 665.244 222.99 664.72 222.656 664.045C222.327 663.371 222.162 662.583 222.162 661.682C222.162 660.773 222.327 659.979 222.656 659.301C222.99 658.623 223.452 658.097 224.043 657.722C224.637 657.347 225.329 657.159 226.116 657.159C226.904 657.159 227.594 657.347 228.185 657.722C228.779 658.097 229.241 658.623 229.571 659.301C229.904 659.979 230.071 660.773 230.071 661.682C230.071 662.583 229.904 663.371 229.571 664.045C229.241 664.72 228.779 665.244 228.185 665.619C227.594 665.994 226.904 666.182 226.116 666.182ZM226.116 664.977C226.715 664.977 227.207 664.824 227.594 664.517C227.98 664.21 228.266 663.807 228.452 663.307C228.637 662.807 228.73 662.265 228.73 661.682C228.73 661.098 228.637 660.555 228.452 660.051C228.266 659.547 227.98 659.14 227.594 658.83C227.207 658.519 226.715 658.364 226.116 658.364C225.518 658.364 225.026 658.519 224.639 658.83C224.253 659.14 223.967 659.547 223.781 660.051C223.596 660.555 223.503 661.098 223.503 661.682C223.503 662.265 223.596 662.807 223.781 663.307C223.967 663.807 224.253 664.21 224.639 664.517C225.026 664.824 225.518 664.977 226.116 664.977ZM232.118 666V657.273H233.413V658.591H233.504C233.663 658.159 233.951 657.809 234.368 657.54C234.785 657.271 235.254 657.136 235.777 657.136C235.875 657.136 235.999 657.138 236.146 657.142C236.294 657.146 236.406 657.152 236.482 657.159V658.523C236.436 658.511 236.332 658.494 236.169 658.472C236.01 658.445 235.841 658.432 235.663 658.432C235.239 658.432 234.86 658.521 234.527 658.699C234.197 658.873 233.936 659.116 233.743 659.426C233.554 659.733 233.459 660.083 233.459 660.477V666H232.118ZM242.571 666V657.273H243.866V658.636H243.98C244.162 658.17 244.455 657.809 244.861 657.551C245.266 657.29 245.753 657.159 246.321 657.159C246.897 657.159 247.376 657.29 247.759 657.551C248.145 657.809 248.446 658.17 248.662 658.636H248.753C248.976 658.186 249.312 657.828 249.759 657.562C250.205 657.294 250.741 657.159 251.366 657.159C252.147 657.159 252.785 657.403 253.281 657.892C253.777 658.377 254.026 659.133 254.026 660.159V666H252.685V660.159C252.685 659.515 252.509 659.055 252.156 658.778C251.804 658.502 251.389 658.364 250.912 658.364C250.298 658.364 249.823 658.549 249.486 658.92C249.149 659.288 248.98 659.754 248.98 660.318V666H247.616V660.023C247.616 659.527 247.455 659.127 247.134 658.824C246.812 658.517 246.397 658.364 245.889 658.364C245.541 658.364 245.215 658.456 244.912 658.642C244.613 658.828 244.37 659.085 244.185 659.415C244.003 659.741 243.912 660.117 243.912 660.545V666H242.571ZM260.023 666.182C259.235 666.182 258.544 665.994 257.949 665.619C257.358 665.244 256.896 664.72 256.562 664.045C256.233 663.371 256.068 662.583 256.068 661.682C256.068 660.773 256.233 659.979 256.562 659.301C256.896 658.623 257.358 658.097 257.949 657.722C258.544 657.347 259.235 657.159 260.023 657.159C260.811 657.159 261.5 657.347 262.091 657.722C262.686 658.097 263.148 658.623 263.477 659.301C263.811 659.979 263.977 660.773 263.977 661.682C263.977 662.583 263.811 663.371 263.477 664.045C263.148 664.72 262.686 665.244 262.091 665.619C261.5 665.994 260.811 666.182 260.023 666.182ZM260.023 664.977C260.621 664.977 261.114 664.824 261.5 664.517C261.886 664.21 262.172 663.807 262.358 663.307C262.544 662.807 262.636 662.265 262.636 661.682C262.636 661.098 262.544 660.555 262.358 660.051C262.172 659.547 261.886 659.14 261.5 658.83C261.114 658.519 260.621 658.364 260.023 658.364C259.424 658.364 258.932 658.519 258.545 658.83C258.159 659.14 257.873 659.547 257.688 660.051C257.502 660.555 257.409 661.098 257.409 661.682C257.409 662.265 257.502 662.807 257.688 663.307C257.873 663.807 258.159 664.21 258.545 664.517C258.932 664.824 259.424 664.977 260.023 664.977ZM269.32 666.182C268.592 666.182 267.95 665.998 267.393 665.631C266.837 665.259 266.401 664.737 266.087 664.062C265.772 663.384 265.615 662.583 265.615 661.659C265.615 660.742 265.772 659.947 266.087 659.273C266.401 658.598 266.839 658.078 267.399 657.71C267.96 657.343 268.607 657.159 269.342 657.159C269.911 657.159 270.359 657.254 270.689 657.443C271.022 657.629 271.276 657.841 271.45 658.08C271.628 658.314 271.767 658.508 271.865 658.659H271.979V654.364H273.32V666H272.024V664.659H271.865C271.767 664.818 271.626 665.019 271.445 665.261C271.263 665.5 271.003 665.714 270.666 665.903C270.329 666.089 269.88 666.182 269.32 666.182ZM269.501 664.977C270.039 664.977 270.494 664.837 270.865 664.557C271.236 664.273 271.518 663.881 271.712 663.381C271.905 662.877 272.001 662.295 272.001 661.636C272.001 660.985 271.907 660.415 271.717 659.926C271.528 659.434 271.248 659.051 270.876 658.778C270.505 658.502 270.047 658.364 269.501 658.364C268.933 658.364 268.46 658.509 268.081 658.801C267.706 659.089 267.424 659.481 267.234 659.977C267.049 660.47 266.956 661.023 266.956 661.636C266.956 662.258 267.051 662.822 267.24 663.33C267.433 663.833 267.717 664.235 268.092 664.534C268.471 664.83 268.941 664.977 269.501 664.977ZM279.621 666.182C278.78 666.182 278.054 665.996 277.445 665.625C276.839 665.25 276.371 664.727 276.041 664.057C275.715 663.383 275.553 662.598 275.553 661.705C275.553 660.811 275.715 660.023 276.041 659.341C276.371 658.655 276.829 658.121 277.416 657.739C278.007 657.352 278.696 657.159 279.484 657.159C279.939 657.159 280.388 657.235 280.831 657.386C281.274 657.538 281.678 657.784 282.041 658.125C282.405 658.462 282.695 658.909 282.911 659.466C283.126 660.023 283.234 660.708 283.234 661.523V662.091H276.507V660.932H281.871C281.871 660.439 281.772 660 281.575 659.614C281.382 659.227 281.106 658.922 280.746 658.699C280.39 658.475 279.969 658.364 279.484 658.364C278.95 658.364 278.488 658.496 278.098 658.761C277.712 659.023 277.414 659.364 277.206 659.784C276.998 660.205 276.893 660.655 276.893 661.136V661.909C276.893 662.568 277.007 663.127 277.234 663.585C277.465 664.04 277.786 664.386 278.195 664.625C278.604 664.86 279.079 664.977 279.621 664.977C279.973 664.977 280.291 664.928 280.575 664.83C280.863 664.727 281.111 664.576 281.32 664.375C281.528 664.17 281.689 663.917 281.803 663.614L283.098 663.977C282.962 664.417 282.732 664.803 282.411 665.136C282.089 665.466 281.691 665.723 281.217 665.909C280.744 666.091 280.212 666.182 279.621 666.182Z" fill="black"/>
<path d="M196.886 725.182C196.045 725.182 195.32 724.996 194.71 724.625C194.104 724.25 193.636 723.727 193.307 723.057C192.981 722.383 192.818 721.598 192.818 720.705C192.818 719.811 192.981 719.023 193.307 718.341C193.636 717.655 194.095 717.121 194.682 716.739C195.273 716.352 195.962 716.159 196.75 716.159C197.205 716.159 197.653 716.235 198.097 716.386C198.54 716.538 198.943 716.784 199.307 717.125C199.67 717.462 199.96 717.909 200.176 718.466C200.392 719.023 200.5 719.708 200.5 720.523V721.091H193.773V719.932H199.136C199.136 719.439 199.038 719 198.841 718.614C198.648 718.227 198.371 717.922 198.011 717.699C197.655 717.475 197.235 717.364 196.75 717.364C196.216 717.364 195.754 717.496 195.364 717.761C194.977 718.023 194.68 718.364 194.472 718.784C194.263 719.205 194.159 719.655 194.159 720.136V720.909C194.159 721.568 194.273 722.127 194.5 722.585C194.731 723.04 195.051 723.386 195.46 723.625C195.869 723.86 196.345 723.977 196.886 723.977C197.239 723.977 197.557 723.928 197.841 723.83C198.129 723.727 198.377 723.576 198.585 723.375C198.794 723.17 198.955 722.917 199.068 722.614L200.364 722.977C200.227 723.417 199.998 723.803 199.676 724.136C199.354 724.466 198.956 724.723 198.483 724.909C198.009 725.091 197.477 725.182 196.886 725.182ZM203.305 716.273L205.396 719.841L207.487 716.273H209.033L206.214 720.636L209.033 725H207.487L205.396 721.614L203.305 725H201.76L204.533 720.636L201.76 716.273H203.305ZM210.946 725V716.273H212.287V725H210.946ZM211.628 714.818C211.366 714.818 211.141 714.729 210.952 714.551C210.766 714.373 210.673 714.159 210.673 713.909C210.673 713.659 210.766 713.445 210.952 713.267C211.141 713.089 211.366 713 211.628 713C211.889 713 212.113 713.089 212.298 713.267C212.488 713.445 212.582 713.659 212.582 713.909C212.582 714.159 212.488 714.373 212.298 714.551C212.113 714.729 211.889 714.818 211.628 714.818ZM218.538 716.273V717.409H214.016V716.273H218.538ZM215.334 714.182H216.675V722.5C216.675 722.879 216.73 723.163 216.839 723.352C216.953 723.538 217.097 723.663 217.271 723.727C217.449 723.788 217.637 723.818 217.834 723.818C217.982 723.818 218.103 723.811 218.197 723.795C218.292 723.777 218.368 723.761 218.425 723.75L218.697 724.955C218.607 724.989 218.48 725.023 218.317 725.057C218.154 725.095 217.947 725.114 217.697 725.114C217.319 725.114 216.947 725.032 216.584 724.869C216.224 724.706 215.925 724.458 215.686 724.125C215.451 723.792 215.334 723.371 215.334 722.864V714.182Z" fill="black"/>
<path d="M129 599C131.265 591.071 139 596 139 596C145 601 140 611 131 609C122 607 122 597 125 592C128 587 139 583 146 591C147.818 593.078 148 597 147 605L146 610L137 611" fill="#1697B7"/>
<path d="M129 599C131.265 591.071 139 596 139 596C145 601 140 611 131 609C122 607 122 597 125 592C128 587 139 583 146 591C147.818 593.078 148 597 147 605L146 610L137 611" stroke="#1697B7" stroke-width="2" stroke-miterlimit="10"/>
<path d="M117 614C135.403 615.6 147.404 615 151.466 614.296C152.445 614.13 153.366 613.717 154.141 613.096C170.912 599.573 169 591 164 590C160.9 589.38 154.848 600.376 152 604C150.41 606.024 147 608 143 608" fill="#F3AD78"/>
<path d="M129 599C131.266 591.071 139 596 139 596C145 601 140 611 131 609C122 607 122 597 125 592C128 587 139 583 146 591C147.82 593.078 149 596 147 603M161 587L163 590L161 587ZM164.833 589.333L167 585L164.833 589.333Z" stroke="#0E5364" stroke-width="2" stroke-miterlimit="10" stroke-linecap="round" stroke-linejoin="round"/>
<path d="M117 615C135.403 616.6 147.404 615 151.466 614.296C152.445 614.13 153.366 613.717 154.141 613.096C170.912 599.573 169 591 164 590C160.9 589.38 154.848 600.376 152 604C150.41 606.024 147 609 143 609" stroke="#0E5364" stroke-width="2" stroke-miterlimit="10" stroke-linecap="round" stroke-linejoin="round"/>
<path d="M140.824 649.212L148.804 660.406M145.843 648.552L149.477 653.651L145.843 648.552Z" stroke="#0E5364" stroke-width="2" stroke-linecap="round" stroke-linejoin="round"/>
<path d="M141.845 685.958C138.073 685.958 134.772 683.791 133.817 680.688C133.562 680.142 133.197 679.655 132.745 679.257C132.293 678.858 131.764 678.557 131.19 678.372V681.27C131.19 681.535 131.085 681.79 130.897 681.977C130.71 682.165 130.455 682.27 130.19 682.27H126.762C126.497 682.27 126.243 682.165 126.055 681.977C125.867 681.79 125.762 681.535 125.762 681.27V675.916C123.324 675.151 121.583 672.16 121.583 668.497C121.565 666.836 121.969 665.198 122.756 663.735C123.609 661.291 123.608 658.631 122.752 656.188C121.968 654.727 121.566 653.092 121.583 651.434C121.583 648.499 122.731 645.882 124.58 644.604C124.943 644.351 125.341 644.153 125.762 644.017V638.312C125.762 638.047 125.867 637.792 126.055 637.605C126.243 637.417 126.497 637.312 126.762 637.312H130.19C130.455 637.312 130.71 637.417 130.897 637.605C131.085 637.792 131.19 638.047 131.19 638.312V641.537C131.771 641.345 132.307 641.035 132.763 640.626C133.218 640.218 133.585 639.72 133.84 639.163C134.772 636.125 138.073 633.958 141.844 633.958C145.718 633.958 149.113 636.274 149.951 639.478C150.212 639.985 150.571 640.434 151.009 640.798C151.447 641.163 151.954 641.436 152.499 641.6V638.311C152.499 638.046 152.604 637.791 152.792 637.604C152.98 637.416 153.234 637.311 153.499 637.311H156.928C157.193 637.311 157.448 637.416 157.635 637.604C157.823 637.791 157.928 638.046 157.928 638.311V644.039C158.289 644.163 158.632 644.333 158.95 644.544C159.024 644.585 159.093 644.634 159.157 644.69C160.117 645.522 160.875 646.561 161.374 647.73C161.872 648.899 162.098 650.165 162.034 651.434C162.048 653.03 161.678 654.605 160.954 656.027C160.946 656.063 160.935 656.098 160.922 656.132C160.045 658.605 160.042 661.303 160.914 663.778C160.932 663.822 160.947 663.866 160.959 663.912C161.68 665.332 162.048 666.905 162.034 668.497C162.098 669.765 161.873 671.03 161.375 672.198C160.878 673.366 160.121 674.405 159.163 675.237C159.107 675.286 159.046 675.328 158.981 675.364C158.655 675.586 158.301 675.763 157.928 675.891V681.27C157.928 681.535 157.823 681.79 157.635 681.977C157.448 682.165 157.193 682.27 156.928 682.27H153.499C153.234 682.27 152.98 682.165 152.792 681.977C152.604 681.79 152.499 681.535 152.499 681.27V678.311C151.953 678.476 151.446 678.75 151.008 679.115C150.571 679.481 150.211 679.931 149.951 680.439C149.113 683.642 145.719 685.958 141.845 685.958Z" fill="#F3AD78"/>
<path d="M142 679.93C133.956 679.93 127.412 671.06 127.412 660.157C127.412 649.254 133.956 640.384 142 640.384C150.044 640.384 156.588 649.254 156.588 660.156C156.588 671.058 150.044 679.93 142 679.93Z" fill="#30C3CD"/>
<path d="M140.824 649.212L148.804 660.406M145.843 648.552L149.477 653.651L145.843 648.552Z" stroke="white" stroke-width="2" stroke-linecap="round" stroke-linejoin="round"/>
<path d="M142 678.929C149.504 678.929 155.588 670.524 155.588 660.156C155.588 649.788 149.504 641.383 142 641.383C134.495 641.383 128.412 649.788 128.412 660.156C128.412 670.524 134.495 678.929 142 678.929Z" stroke="#0E5364" stroke-width="2" stroke-linecap="round" stroke-linejoin="round"/>
<path d="M150.904 641.948C150.055 641.454 149.388 640.7 149.001 639.798C148.317 637.035 145.373 634.958 141.845 634.958C138.435 634.958 135.58 636.9 134.773 639.522C134.367 640.522 133.641 641.358 132.708 641.9M159.238 673.821C160.458 672.321 161.096 670.43 161.034 668.497C161.054 667.003 160.693 665.529 159.984 664.214L159.992 664.164C159.014 661.449 159.014 658.479 159.992 655.764L159.985 655.716C160.694 654.401 161.055 652.927 161.035 651.434C161.097 649.501 160.46 647.61 159.239 646.109M132.706 678.014C133.64 678.556 134.367 679.394 134.773 680.394C135.58 683.017 138.436 684.958 141.845 684.958C145.373 684.958 148.317 682.881 149.001 680.119C149.375 679.243 150.015 678.507 150.83 678.014M124.482 645.997C123.19 647.507 122.512 649.447 122.582 651.433C122.561 652.946 122.933 654.438 123.662 655.764C124.64 658.479 124.64 661.449 123.662 664.164C122.933 665.49 122.561 666.984 122.582 668.497C122.511 670.483 123.189 672.424 124.482 673.934M130.19 642.863V638.312H126.762V644.834L130.19 642.863ZM156.928 644.84V638.312H153.498V642.89L156.928 644.84ZM153.499 677.022V681.269H156.928V675.091L153.499 677.022ZM126.762 675.096V681.269H130.191V677.049L126.762 675.096Z" stroke="#0E5364" stroke-width="2" stroke-linecap="round" stroke-linejoin="round"/>
<circle cx="142" cy="721" r="15" fill="#DADADA"/>
<line x1="133.395" y1="728.086" x2="148.895" y2="712.585" stroke="#F3F3F3" stroke-width="3" stroke-linecap="round"/>
<path d="M134.406 712.613L150.476 728.683" stroke="#F3F3F3" stroke-width="3" stroke-linecap="round"/>
<rect x="62.5" y="564.5" width="290" height="190" rx="28.5" stroke="black"/>
</svg>
